<svg width="28" height="28" viewBox="0 0 28 28" fill="none" xmlns="http://www.w3.org/2000/svg">
<g clip-path="url(#clip0_63_641)">
<path d="M26.404 2.01114C25.3995 1.23764 24.1208 0.979811 22.8947 1.30298C22.4642 1.41731 22.0033 1.58064 21.525 1.75564C18.9828 2.89548 16.9925 2.05548 14.2228 1.24464C12.2348 0.633311 10.1803 0.000977611 8.16667 0.000977611C5.66417 -0.000189056 3.46033 0.972811 2.051 1.78831C0.786333 2.52214 0 3.88014 0 5.33148V26.2498C0.0396667 28.5505 3.4615 28.5493 3.5 26.2498V19.0036C4.42517 18.4273 6.22067 17.4998 8.16667 17.4998C9.653 17.4998 11.3738 18.0283 13.1938 18.5895C17.1675 20.105 22.148 20.3686 25.7402 18.264C27.1332 17.473 28 15.9913 28 14.3965V5.25448C28 3.97348 27.4178 2.79164 26.404 2.01114ZM19.25 5.83314C20.5403 5.83314 21.7478 5.39564 22.7173 5.04448C23.093 4.90798 23.4535 4.77498 23.7907 4.68514C24.0065 4.62914 24.1698 4.70731 24.269 4.78314C24.3553 4.85081 24.5 5.00014 24.5 5.25331V7.93664C23.3648 8.48148 21.2707 9.33198 19.25 9.33198C17.7637 9.33198 16.0428 8.80348 14.2228 8.24231C13.7632 8.10114 13.2988 7.95764 12.8333 7.82231V4.47864C12.9535 4.51481 13.0737 4.55214 13.1938 4.58948C15.1818 5.20081 17.2363 5.83314 19.25 5.83314ZM24.0135 15.219C21.602 16.7275 17.3833 16.5116 14.2217 15.2435C10.8337 14.0045 6.65817 13.4106 3.49883 15.0545V12.0025C4.424 11.4273 6.21833 10.4998 8.1655 10.4998C9.65183 10.4998 11.3727 11.0283 13.1927 11.5895C16.7708 12.958 21.1295 13.301 24.4988 11.747V14.3953C24.4988 14.7383 24.318 15.0463 24.0135 15.219Z" fill="black"/>
</g>
<defs>
<clipPath id="clip0_63_641">
<rect width="28" height="28" fill="white"/>
</clipPath>
</defs>
</svg>
