<svg width="20" height="20" viewBox="0 0 20 20" fill="none" xmlns="http://www.w3.org/2000/svg"><g clip-path="url(#clip0_223_8659)"><path d="M7.5 10C4.7425 10 2.5 7.7575 2.5 5C2.5 2.2425 4.7425 0 7.5 0C10.2575 0 12.5 2.2425 12.5 5C12.5 7.7575 10.2575 10 7.5 10ZM11.0583 16.2333C10.3808 16.9108 10 17.8292 10 18.7875V20H11.2125C12.1708 20 13.0892 19.6192 13.7667 18.9417L19.4392 13.2692C20.1867 12.5217 20.1867 11.3083 19.4392 10.5608C18.6917 9.81333 17.4783 9.81333 16.7308 10.5608L11.0583 16.2333ZM8.33333 18.7875C8.33333 17.3775 8.8825 16.0517 9.87917 15.055L11.8592 13.075C10.6292 12.1917 9.12667 11.6658 7.5 11.6658C3.365 11.6667 0 15.0317 0 19.1667C0 19.6267 0.373333 20 0.833333 20H8.33333V18.7875Z" fill="#D9D9D9"/></g><defs><clipPath id="clip0_223_8659"><rect width="20" height="20" fill="white"/></clipPath></defs></svg>
