<svg width="258" height="249" viewBox="0 0 258 249" fill="none" xmlns="http://www.w3.org/2000/svg"><path d="M98.7353 45.4661C91.4784 48.8995 84.851 53.5338 79.1316 59.1743L105.614 86.1299C108.31 83.471 111.435 81.2864 114.855 79.6679L98.7353 45.4661Z" fill="#18F514"/><path d="M79.8352 58.4904C73.0615 64.9895 67.6319 72.7618 63.8563 81.3633C60.0806 89.9648 58.033 99.2272 57.8302 108.622L95.5728 109.44C95.6684 105.011 96.6337 100.645 98.4135 96.59C100.193 92.5352 102.753 88.8713 105.946 85.8076L79.8352 58.4904Z" fill="#2C5CD0"/><path d="M66.4846 144.342C60.3106 132.962 57.3354 120.116 57.8763 107.175L95.5947 108.758C95.3397 114.858 96.7422 120.914 99.6527 126.278L66.4846 144.342Z" fill="#00926F"/><path d="M200.563 110.169C200.563 100.784 198.718 91.4904 195.134 82.8195C191.549 74.1486 186.295 66.2701 179.671 59.6337C173.047 52.9972 165.183 47.7329 156.529 44.1413C147.875 40.5497 138.599 38.7012 129.231 38.7012V76.4791C133.647 76.4791 138.02 77.3505 142.099 79.0436C146.179 80.7367 149.886 83.2183 153.009 86.3467C156.131 89.4751 158.608 93.189 160.298 97.2765C161.988 101.364 162.857 105.745 162.857 110.169H200.563Z" fill="#44BEF2"/><path d="M129.232 38.7012C117.027 38.7012 105.027 41.8383 94.3792 47.8125C83.731 53.7867 74.7907 62.3981 68.4134 72.8232C62.0361 83.2483 58.435 95.1384 57.9547 107.356C57.4743 119.574 60.1308 131.711 65.6699 142.606L99.2685 125.46C96.6574 120.324 95.4051 114.603 95.6316 108.843C95.858 103.084 97.5555 97.4786 100.562 92.5642C103.568 87.6498 107.783 83.5904 112.802 80.7741C117.822 77.9579 123.479 76.4791 129.232 76.4791V38.7012Z" fill="#FFD8B0"/><path d="M200.563 110.169C200.563 126.215 195.174 141.795 185.262 154.399C175.35 167.003 161.493 175.899 145.922 179.653C130.351 183.408 113.971 181.803 99.4211 175.097C84.8709 168.391 72.9965 156.975 65.7097 142.685L99.2872 125.497C102.722 132.233 108.32 137.615 115.179 140.776C122.038 143.937 129.759 144.694 137.099 142.924C144.439 141.154 150.972 136.961 155.644 131.019C160.317 125.078 162.857 117.733 162.857 110.169H200.563Z" fill="#5AE4A8"/><path d="M200.564 110.169C200.564 100.784 198.719 91.4904 195.134 82.8195C191.549 74.1486 186.295 66.2701 179.671 59.6337C173.047 52.9972 165.184 47.7329 156.529 44.1413C147.875 40.5497 138.599 38.7012 129.232 38.7012V76.4791C133.647 76.4791 138.02 77.3505 142.1 79.0436C146.179 80.7367 149.886 83.2183 153.009 86.3467C156.131 89.4751 158.608 93.189 160.298 97.2765C161.988 101.364 162.858 105.745 162.858 110.169H200.564Z" fill="#44BEF2"/><path d="M200.564 110.169C200.564 126.215 195.174 141.795 185.262 154.399C175.35 167.003 161.493 175.899 145.922 179.653C130.351 183.408 113.972 181.803 99.4213 175.097C84.8711 168.391 72.9967 156.975 65.71 142.685L99.2874 125.497C102.722 132.233 108.32 137.615 115.179 140.776C122.038 143.937 129.759 144.694 137.099 142.924C144.44 141.154 150.972 136.961 155.644 131.019C160.317 125.078 162.858 117.733 162.858 110.169H200.564Z" fill="#2C3099"/><path d="M200.564 110.169C200.564 100.784 198.719 91.4904 195.134 82.8195C191.549 74.1486 186.295 66.2701 179.671 59.6337C173.047 52.9972 165.184 47.7329 156.529 44.1413C147.875 40.5497 138.599 38.7012 129.232 38.7012V76.4791C133.647 76.4791 138.02 77.3505 142.1 79.0436C146.179 80.7367 149.886 83.2183 153.009 86.3467C156.131 89.4751 158.608 93.189 160.298 97.2765C161.988 101.364 162.858 105.745 162.858 110.169H200.564Z" fill="#912F13"/><rect x="28.5" y="211.5" width="32" height="15" fill="#FFD8B0" stroke="black"/><path d="M208.5 211.5H240.5V226.5H208.5V211.5Z" fill="#456595" stroke="black"/><rect x="118.5" y="211.5" width="32" height="15" fill="#912F13" stroke="black"/><path d="M3.20492 242.21H7.64492V242.978H3.20492V242.21ZM3.30092 246.542H2.41292V238.142H8.17292V238.91H3.30092V246.542ZM12.1837 246.602C11.5757 246.602 11.0277 246.466 10.5397 246.194C10.0597 245.914 9.67973 245.534 9.39973 245.054C9.11973 244.566 8.97973 244.01 8.97973 243.386C8.97973 242.754 9.11973 242.198 9.39973 241.718C9.67973 241.238 10.0597 240.862 10.5397 240.59C11.0197 240.318 11.5677 240.182 12.1837 240.182C12.8077 240.182 13.3597 240.318 13.8397 240.59C14.3277 240.862 14.7077 241.238 14.9797 241.718C15.2597 242.198 15.3997 242.754 15.3997 243.386C15.3997 244.01 15.2597 244.566 14.9797 245.054C14.7077 245.534 14.3277 245.914 13.8397 246.194C13.3517 246.466 12.7997 246.602 12.1837 246.602ZM12.1837 245.846C12.6397 245.846 13.0437 245.746 13.3957 245.546C13.7477 245.338 14.0237 245.05 14.2237 244.682C14.4317 244.306 14.5357 243.874 14.5357 243.386C14.5357 242.89 14.4317 242.458 14.2237 242.09C14.0237 241.722 13.7477 241.438 13.3957 241.238C13.0437 241.03 12.6437 240.926 12.1957 240.926C11.7477 240.926 11.3477 241.03 10.9957 241.238C10.6437 241.438 10.3637 241.722 10.1557 242.09C9.94773 242.458 9.84373 242.89 9.84373 243.386C9.84373 243.874 9.94773 244.306 10.1557 244.682C10.3637 245.05 10.6437 245.338 10.9957 245.546C11.3477 245.746 11.7437 245.846 12.1837 245.846ZM20.3552 240.182C20.8672 240.182 21.3152 240.282 21.6992 240.482C22.0912 240.674 22.3952 240.97 22.6112 241.37C22.8352 241.77 22.9472 242.274 22.9472 242.882V246.542H22.0952V242.966C22.0952 242.302 21.9272 241.802 21.5912 241.466C21.2632 241.122 20.7992 240.95 20.1992 240.95C19.7512 240.95 19.3592 241.042 19.0232 241.226C18.6952 241.402 18.4392 241.662 18.2552 242.006C18.0792 242.342 17.9912 242.75 17.9912 243.23V246.542H17.1392V240.242H17.9552V241.97L17.8232 241.646C18.0232 241.19 18.3432 240.834 18.7832 240.578C19.2232 240.314 19.7472 240.182 20.3552 240.182ZM27.2405 246.602C26.6485 246.602 26.1925 246.442 25.8725 246.122C25.5525 245.802 25.3925 245.35 25.3925 244.766V238.85H26.2445V244.718C26.2445 245.086 26.3365 245.37 26.5205 245.57C26.7125 245.77 26.9845 245.87 27.3365 245.87C27.7125 245.87 28.0245 245.762 28.2725 245.546L28.5725 246.158C28.4045 246.31 28.2005 246.422 27.9605 246.494C27.7285 246.566 27.4885 246.602 27.2405 246.602ZM24.2645 240.95V240.242H28.1645V240.95H24.2645ZM32.5769 246.602C31.9209 246.602 31.3449 246.466 30.8489 246.194C30.3529 245.914 29.9649 245.534 29.6849 245.054C29.4049 244.566 29.2649 244.01 29.2649 243.386C29.2649 242.762 29.3969 242.21 29.6609 241.73C29.9329 241.25 30.3009 240.874 30.7649 240.602C31.2369 240.322 31.7649 240.182 32.3489 240.182C32.9409 240.182 33.4649 240.318 33.9209 240.59C34.3849 240.854 34.7489 241.23 35.0129 241.718C35.2769 242.198 35.4089 242.754 35.4089 243.386C35.4089 243.426 35.4049 243.47 35.3969 243.518C35.3969 243.558 35.3969 243.602 35.3969 243.65H29.9129V243.014H34.9409L34.6049 243.266C34.6049 242.81 34.5049 242.406 34.3049 242.054C34.1129 241.694 33.8489 241.414 33.5129 241.214C33.1769 241.014 32.7889 240.914 32.3489 240.914C31.9169 240.914 31.5289 241.014 31.1849 241.214C30.8409 241.414 30.5729 241.694 30.3809 242.054C30.1889 242.414 30.0929 242.826 30.0929 243.29V243.422C30.0929 243.902 30.1969 244.326 30.4049 244.694C30.6209 245.054 30.9169 245.338 31.2929 245.546C31.6769 245.746 32.1129 245.846 32.6009 245.846C32.9849 245.846 33.3409 245.778 33.6689 245.642C34.0049 245.506 34.2929 245.298 34.5329 245.018L35.0129 245.57C34.7329 245.906 34.3809 246.162 33.9569 246.338C33.5409 246.514 33.0809 246.602 32.5769 246.602Z" fill="white"/><path d="M47.2086 242.21H51.6486V242.978H47.2086V242.21ZM47.3046 246.542H46.4166V238.142H52.1766V238.91H47.3046V246.542ZM56.1874 246.602C55.5794 246.602 55.0314 246.466 54.5434 246.194C54.0634 245.914 53.6834 245.534 53.4034 245.054C53.1234 244.566 52.9834 244.01 52.9834 243.386C52.9834 242.754 53.1234 242.198 53.4034 241.718C53.6834 241.238 54.0634 240.862 54.5434 240.59C55.0234 240.318 55.5714 240.182 56.1874 240.182C56.8114 240.182 57.3634 240.318 57.8434 240.59C58.3314 240.862 58.7114 241.238 58.9834 241.718C59.2634 242.198 59.4034 242.754 59.4034 243.386C59.4034 244.01 59.2634 244.566 58.9834 245.054C58.7114 245.534 58.3314 245.914 57.8434 246.194C57.3554 246.466 56.8034 246.602 56.1874 246.602ZM56.1874 245.846C56.6434 245.846 57.0474 245.746 57.3994 245.546C57.7514 245.338 58.0274 245.05 58.2274 244.682C58.4354 244.306 58.5394 243.874 58.5394 243.386C58.5394 242.89 58.4354 242.458 58.2274 242.09C58.0274 241.722 57.7514 241.438 57.3994 241.238C57.0474 241.03 56.6474 240.926 56.1994 240.926C55.7514 240.926 55.3514 241.03 54.9994 241.238C54.6474 241.438 54.3674 241.722 54.1594 242.09C53.9514 242.458 53.8474 242.89 53.8474 243.386C53.8474 243.874 53.9514 244.306 54.1594 244.682C54.3674 245.05 54.6474 245.338 54.9994 245.546C55.3514 245.746 55.7474 245.846 56.1874 245.846ZM64.3588 240.182C64.8708 240.182 65.3188 240.282 65.7028 240.482C66.0948 240.674 66.3988 240.97 66.6148 241.37C66.8388 241.77 66.9508 242.274 66.9508 242.882V246.542H66.0988V242.966C66.0988 242.302 65.9308 241.802 65.5948 241.466C65.2668 241.122 64.8028 240.95 64.2028 240.95C63.7548 240.95 63.3628 241.042 63.0268 241.226C62.6988 241.402 62.4428 241.662 62.2588 242.006C62.0828 242.342 61.9948 242.75 61.9948 243.23V246.542H61.1428V240.242H61.9588V241.97L61.8268 241.646C62.0268 241.19 62.3468 240.834 62.7868 240.578C63.2268 240.314 63.7508 240.182 64.3588 240.182ZM71.2442 246.602C70.6522 246.602 70.1962 246.442 69.8762 246.122C69.5562 245.802 69.3962 245.35 69.3962 244.766V238.85H70.2482V244.718C70.2482 245.086 70.3402 245.37 70.5242 245.57C70.7162 245.77 70.9882 245.87 71.3402 245.87C71.7162 245.87 72.0282 245.762 72.2762 245.546L72.5762 246.158C72.4082 246.31 72.2042 246.422 71.9642 246.494C71.7322 246.566 71.4922 246.602 71.2442 246.602ZM68.2682 240.95V240.242H72.1682V240.95H68.2682ZM76.5806 246.602C75.9246 246.602 75.3486 246.466 74.8526 246.194C74.3566 245.914 73.9686 245.534 73.6886 245.054C73.4086 244.566 73.2686 244.01 73.2686 243.386C73.2686 242.762 73.4006 242.21 73.6646 241.73C73.9366 241.25 74.3046 240.874 74.7686 240.602C75.2406 240.322 75.7686 240.182 76.3526 240.182C76.9446 240.182 77.4686 240.318 77.9246 240.59C78.3886 240.854 78.7526 241.23 79.0166 241.718C79.2806 242.198 79.4126 242.754 79.4126 243.386C79.4126 243.426 79.4086 243.47 79.4006 243.518C79.4006 243.558 79.4006 243.602 79.4006 243.65H73.9166V243.014H78.9446L78.6086 243.266C78.6086 242.81 78.5086 242.406 78.3086 242.054C78.1166 241.694 77.8526 241.414 77.5166 241.214C77.1806 241.014 76.7926 240.914 76.3526 240.914C75.9206 240.914 75.5326 241.014 75.1886 241.214C74.8446 241.414 74.5766 241.694 74.3846 242.054C74.1926 242.414 74.0966 242.826 74.0966 243.29V243.422C74.0966 243.902 74.2006 244.326 74.4086 244.694C74.6246 245.054 74.9206 245.338 75.2966 245.546C75.6806 245.746 76.1166 245.846 76.6046 245.846C76.9886 245.846 77.3446 245.778 77.6726 245.642C78.0086 245.506 78.2966 245.298 78.5366 245.018L79.0166 245.57C78.7366 245.906 78.3846 246.162 77.9606 246.338C77.5446 246.514 77.0846 246.602 76.5806 246.602Z" fill="white"/><path d="M135.216 242.21H139.656V242.978H135.216V242.21ZM135.312 246.542H134.424V238.142H140.184V238.91H135.312V246.542ZM144.194 246.602C143.586 246.602 143.038 246.466 142.55 246.194C142.07 245.914 141.69 245.534 141.41 245.054C141.13 244.566 140.99 244.01 140.99 243.386C140.99 242.754 141.13 242.198 141.41 241.718C141.69 241.238 142.07 240.862 142.55 240.59C143.03 240.318 143.578 240.182 144.194 240.182C144.818 240.182 145.37 240.318 145.85 240.59C146.338 240.862 146.718 241.238 146.99 241.718C147.27 242.198 147.41 242.754 147.41 243.386C147.41 244.01 147.27 244.566 146.99 245.054C146.718 245.534 146.338 245.914 145.85 246.194C145.362 246.466 144.81 246.602 144.194 246.602ZM144.194 245.846C144.65 245.846 145.054 245.746 145.406 245.546C145.758 245.338 146.034 245.05 146.234 244.682C146.442 244.306 146.546 243.874 146.546 243.386C146.546 242.89 146.442 242.458 146.234 242.09C146.034 241.722 145.758 241.438 145.406 241.238C145.054 241.03 144.654 240.926 144.206 240.926C143.758 240.926 143.358 241.03 143.006 241.238C142.654 241.438 142.374 241.722 142.166 242.09C141.958 242.458 141.854 242.89 141.854 243.386C141.854 243.874 141.958 244.306 142.166 244.682C142.374 245.05 142.654 245.338 143.006 245.546C143.358 245.746 143.754 245.846 144.194 245.846ZM152.366 240.182C152.878 240.182 153.326 240.282 153.71 240.482C154.102 240.674 154.406 240.97 154.622 241.37C154.846 241.77 154.958 242.274 154.958 242.882V246.542H154.106V242.966C154.106 242.302 153.938 241.802 153.602 241.466C153.274 241.122 152.81 240.95 152.21 240.95C151.762 240.95 151.37 241.042 151.034 241.226C150.706 241.402 150.45 241.662 150.266 242.006C150.09 242.342 150.002 242.75 150.002 243.23V246.542H149.15V240.242H149.966V241.97L149.834 241.646C150.034 241.19 150.354 240.834 150.794 240.578C151.234 240.314 151.758 240.182 152.366 240.182ZM159.251 246.602C158.659 246.602 158.203 246.442 157.883 246.122C157.563 245.802 157.403 245.35 157.403 244.766V238.85H158.255V244.718C158.255 245.086 158.347 245.37 158.531 245.57C158.723 245.77 158.995 245.87 159.347 245.87C159.723 245.87 160.035 245.762 160.283 245.546L160.583 246.158C160.415 246.31 160.211 246.422 159.971 246.494C159.739 246.566 159.499 246.602 159.251 246.602ZM156.275 240.95V240.242H160.175V240.95H156.275ZM164.588 246.602C163.932 246.602 163.356 246.466 162.86 246.194C162.364 245.914 161.976 245.534 161.696 245.054C161.416 244.566 161.276 244.01 161.276 243.386C161.276 242.762 161.408 242.21 161.672 241.73C161.944 241.25 162.312 240.874 162.776 240.602C163.248 240.322 163.776 240.182 164.36 240.182C164.952 240.182 165.476 240.318 165.932 240.59C166.396 240.854 166.76 241.23 167.024 241.718C167.288 242.198 167.42 242.754 167.42 243.386C167.42 243.426 167.416 243.47 167.408 243.518C167.408 243.558 167.408 243.602 167.408 243.65H161.924V243.014H166.952L166.616 243.266C166.616 242.81 166.516 242.406 166.316 242.054C166.124 241.694 165.86 241.414 165.524 241.214C165.188 241.014 164.8 240.914 164.36 240.914C163.928 240.914 163.54 241.014 163.196 241.214C162.852 241.414 162.584 241.694 162.392 242.054C162.2 242.414 162.104 242.826 162.104 243.29V243.422C162.104 243.902 162.208 244.326 162.416 244.694C162.632 245.054 162.928 245.338 163.304 245.546C163.688 245.746 164.124 245.846 164.612 245.846C164.996 245.846 165.352 245.778 165.68 245.642C166.016 245.506 166.304 245.298 166.544 245.018L167.024 245.57C166.744 245.906 166.392 246.162 165.968 246.338C165.552 246.514 165.092 246.602 164.588 246.602Z" fill="white"/><path d="M179.219 242.21H183.659V242.978H179.219V242.21ZM179.315 246.542H178.427V238.142H184.187V238.91H179.315V246.542ZM188.198 246.602C187.59 246.602 187.042 246.466 186.554 246.194C186.074 245.914 185.694 245.534 185.414 245.054C185.134 244.566 184.994 244.01 184.994 243.386C184.994 242.754 185.134 242.198 185.414 241.718C185.694 241.238 186.074 240.862 186.554 240.59C187.034 240.318 187.582 240.182 188.198 240.182C188.822 240.182 189.374 240.318 189.854 240.59C190.342 240.862 190.722 241.238 190.994 241.718C191.274 242.198 191.414 242.754 191.414 243.386C191.414 244.01 191.274 244.566 190.994 245.054C190.722 245.534 190.342 245.914 189.854 246.194C189.366 246.466 188.814 246.602 188.198 246.602ZM188.198 245.846C188.654 245.846 189.058 245.746 189.41 245.546C189.762 245.338 190.038 245.05 190.238 244.682C190.446 244.306 190.55 243.874 190.55 243.386C190.55 242.89 190.446 242.458 190.238 242.09C190.038 241.722 189.762 241.438 189.41 241.238C189.058 241.03 188.658 240.926 188.21 240.926C187.762 240.926 187.362 241.03 187.01 241.238C186.658 241.438 186.378 241.722 186.17 242.09C185.962 242.458 185.858 242.89 185.858 243.386C185.858 243.874 185.962 244.306 186.17 244.682C186.378 245.05 186.658 245.338 187.01 245.546C187.362 245.746 187.758 245.846 188.198 245.846ZM196.37 240.182C196.882 240.182 197.33 240.282 197.714 240.482C198.106 240.674 198.41 240.97 198.626 241.37C198.85 241.77 198.962 242.274 198.962 242.882V246.542H198.11V242.966C198.11 242.302 197.942 241.802 197.606 241.466C197.278 241.122 196.814 240.95 196.214 240.95C195.766 240.95 195.374 241.042 195.038 241.226C194.71 241.402 194.454 241.662 194.27 242.006C194.094 242.342 194.006 242.75 194.006 243.23V246.542H193.154V240.242H193.97V241.97L193.838 241.646C194.038 241.19 194.358 240.834 194.798 240.578C195.238 240.314 195.762 240.182 196.37 240.182ZM203.255 246.602C202.663 246.602 202.207 246.442 201.887 246.122C201.567 245.802 201.407 245.35 201.407 244.766V238.85H202.259V244.718C202.259 245.086 202.351 245.37 202.535 245.57C202.727 245.77 202.999 245.87 203.351 245.87C203.727 245.87 204.039 245.762 204.287 245.546L204.587 246.158C204.419 246.31 204.215 246.422 203.975 246.494C203.743 246.566 203.503 246.602 203.255 246.602ZM200.279 240.95V240.242H204.179V240.95H200.279ZM208.591 246.602C207.935 246.602 207.359 246.466 206.863 246.194C206.367 245.914 205.979 245.534 205.699 245.054C205.419 244.566 205.279 244.01 205.279 243.386C205.279 242.762 205.411 242.21 205.675 241.73C205.947 241.25 206.315 240.874 206.779 240.602C207.251 240.322 207.779 240.182 208.363 240.182C208.955 240.182 209.479 240.318 209.935 240.59C210.399 240.854 210.763 241.23 211.027 241.718C211.291 242.198 211.423 242.754 211.423 243.386C211.423 243.426 211.419 243.47 211.411 243.518C211.411 243.558 211.411 243.602 211.411 243.65H205.927V243.014H210.955L210.619 243.266C210.619 242.81 210.519 242.406 210.319 242.054C210.127 241.694 209.863 241.414 209.527 241.214C209.191 241.014 208.803 240.914 208.363 240.914C207.931 240.914 207.543 241.014 207.199 241.214C206.855 241.414 206.587 241.694 206.395 242.054C206.203 242.414 206.107 242.826 206.107 243.29V243.422C206.107 243.902 206.211 244.326 206.419 244.694C206.635 245.054 206.931 245.338 207.307 245.546C207.691 245.746 208.127 245.846 208.615 245.846C208.999 245.846 209.355 245.778 209.683 245.642C210.019 245.506 210.307 245.298 210.547 245.018L211.027 245.57C210.747 245.906 210.395 246.162 209.971 246.338C209.555 246.514 209.095 246.602 208.591 246.602Z" fill="white"/><path d="M2.34 240.969H7.15V241.788H2.34V240.969ZM2.444 245.168H7.917V246H1.482V236.9H7.722V237.732H2.444V245.168ZM18.5113 239.11C19.066 239.11 19.547 239.218 19.9543 239.435C20.3703 239.643 20.691 239.964 20.9163 240.397C21.1503 240.83 21.2673 241.376 21.2673 242.035V246H20.3443V242.126C20.3443 241.407 20.171 240.865 19.8243 240.501C19.4863 240.128 19.0053 239.942 18.3813 239.942C17.9133 239.942 17.506 240.042 17.1593 240.241C16.8213 240.432 16.557 240.713 16.3663 241.086C16.1843 241.45 16.0933 241.892 16.0933 242.412V246H15.1703V242.126C15.1703 241.407 14.997 240.865 14.6503 240.501C14.3036 240.128 13.8183 239.942 13.1943 239.942C12.735 239.942 12.332 240.042 11.9853 240.241C11.6386 240.432 11.37 240.713 11.1793 241.086C10.9973 241.45 10.9063 241.892 10.9063 242.412V246H9.98329V239.175H10.8673V241.021L10.7243 240.696C10.9323 240.202 11.266 239.816 11.7253 239.539C12.1933 239.253 12.7436 239.11 13.3763 239.11C14.0436 239.11 14.6113 239.279 15.0793 239.617C15.5473 239.946 15.8506 240.445 15.9893 241.112L15.6253 240.969C15.8246 240.414 16.1756 239.968 16.6783 239.63C17.1896 239.283 17.8006 239.11 18.5113 239.11ZM27.2934 246.065C26.7041 246.065 26.1711 245.931 25.6944 245.662C25.2177 245.385 24.8364 244.99 24.5504 244.479C24.2731 243.959 24.1344 243.326 24.1344 242.581C24.1344 241.836 24.2731 241.207 24.5504 240.696C24.8277 240.176 25.2047 239.782 25.6814 239.513C26.1581 239.244 26.6954 239.11 27.2934 239.11C27.9434 239.11 28.5241 239.257 29.0354 239.552C29.5554 239.838 29.9627 240.245 30.2574 240.774C30.5521 241.294 30.6994 241.896 30.6994 242.581C30.6994 243.274 30.5521 243.881 30.2574 244.401C29.9627 244.921 29.5554 245.328 29.0354 245.623C28.5241 245.918 27.9434 246.065 27.2934 246.065ZM23.7704 248.522V239.175H24.6544V241.229L24.5634 242.594L24.6934 243.972V248.522H23.7704ZM27.2284 245.246C27.7137 245.246 28.1471 245.138 28.5284 244.921C28.9097 244.696 29.2131 244.384 29.4384 243.985C29.6637 243.578 29.7764 243.11 29.7764 242.581C29.7764 242.052 29.6637 241.589 29.4384 241.19C29.2131 240.791 28.9097 240.479 28.5284 240.254C28.1471 240.029 27.7137 239.916 27.2284 239.916C26.7431 239.916 26.3054 240.029 25.9154 240.254C25.5341 240.479 25.2307 240.791 25.0054 241.19C24.7887 241.589 24.6804 242.052 24.6804 242.581C24.6804 243.11 24.7887 243.578 25.0054 243.985C25.2307 244.384 25.5341 244.696 25.9154 244.921C26.3054 245.138 26.7431 245.246 27.2284 245.246ZM32.5809 246V239.175H33.4649V241.034L33.3739 240.709C33.5646 240.189 33.8853 239.795 34.3359 239.526C34.7866 239.249 35.3456 239.11 36.0129 239.11V240.007C35.9783 240.007 35.9436 240.007 35.9089 240.007C35.8743 239.998 35.8396 239.994 35.8049 239.994C35.0856 239.994 34.5223 240.215 34.1149 240.657C33.7076 241.09 33.5039 241.71 33.5039 242.516V246H32.5809ZM40.5327 246.065C39.822 246.065 39.198 245.918 38.6607 245.623C38.1233 245.32 37.703 244.908 37.3997 244.388C37.0963 243.859 36.9447 243.257 36.9447 242.581C36.9447 241.905 37.0877 241.307 37.3737 240.787C37.6683 240.267 38.067 239.86 38.5697 239.565C39.081 239.262 39.653 239.11 40.2857 239.11C40.927 239.11 41.4947 239.257 41.9887 239.552C42.4913 239.838 42.8857 240.245 43.1717 240.774C43.4577 241.294 43.6007 241.896 43.6007 242.581C43.6007 242.624 43.5963 242.672 43.5877 242.724C43.5877 242.767 43.5877 242.815 43.5877 242.867H37.6467V242.178H43.0937L42.7297 242.451C42.7297 241.957 42.6213 241.519 42.4047 241.138C42.1967 240.748 41.9107 240.445 41.5467 240.228C41.1827 240.011 40.7623 239.903 40.2857 239.903C39.8177 239.903 39.3973 240.011 39.0247 240.228C38.652 240.445 38.3617 240.748 38.1537 241.138C37.9457 241.528 37.8417 241.974 37.8417 242.477V242.62C37.8417 243.14 37.9543 243.599 38.1797 243.998C38.4137 244.388 38.7343 244.696 39.1417 244.921C39.5577 245.138 40.03 245.246 40.5587 245.246C40.9747 245.246 41.3603 245.172 41.7157 245.025C42.0797 244.878 42.3917 244.652 42.6517 244.349L43.1717 244.947C42.8683 245.311 42.487 245.588 42.0277 245.779C41.577 245.97 41.0787 246.065 40.5327 246.065ZM47.3124 246.065C46.749 246.065 46.216 245.987 45.7134 245.831C45.2107 245.666 44.8164 245.463 44.5304 245.22L44.9464 244.492C45.2237 244.7 45.579 244.882 46.0124 245.038C46.4457 245.185 46.9007 245.259 47.3774 245.259C48.0274 245.259 48.4954 245.159 48.7814 244.96C49.0674 244.752 49.2104 244.479 49.2104 244.141C49.2104 243.89 49.128 243.695 48.9634 243.556C48.8074 243.409 48.5994 243.3 48.3394 243.231C48.0794 243.153 47.789 243.088 47.4684 243.036C47.1477 242.984 46.827 242.923 46.5064 242.854C46.1944 242.785 45.9084 242.685 45.6484 242.555C45.3884 242.416 45.176 242.23 45.0114 241.996C44.8554 241.762 44.7774 241.45 44.7774 241.06C44.7774 240.687 44.8814 240.354 45.0894 240.059C45.2974 239.764 45.6007 239.535 45.9994 239.37C46.4067 239.197 46.9007 239.11 47.4814 239.11C47.9234 239.11 48.3654 239.171 48.8074 239.292C49.2494 239.405 49.6134 239.556 49.8994 239.747L49.4964 240.488C49.193 240.28 48.868 240.133 48.5214 240.046C48.1747 239.951 47.828 239.903 47.4814 239.903C46.866 239.903 46.411 240.011 46.1164 240.228C45.8304 240.436 45.6874 240.705 45.6874 241.034C45.6874 241.294 45.7654 241.498 45.9214 241.645C46.086 241.792 46.2984 241.909 46.5584 241.996C46.827 242.074 47.1174 242.139 47.4294 242.191C47.75 242.243 48.0664 242.308 48.3784 242.386C48.699 242.455 48.9894 242.555 49.2494 242.685C49.518 242.806 49.7304 242.984 49.8864 243.218C50.051 243.443 50.1334 243.742 50.1334 244.115C50.1334 244.514 50.0207 244.86 49.7954 245.155C49.5787 245.441 49.258 245.666 48.8334 245.831C48.4174 245.987 47.9104 246.065 47.3124 246.065ZM53.985 246.065C53.3437 246.065 52.8497 245.892 52.503 245.545C52.1564 245.198 51.983 244.709 51.983 244.076V237.667H52.906V244.024C52.906 244.423 53.0057 244.73 53.205 244.947C53.413 245.164 53.7077 245.272 54.089 245.272C54.4964 245.272 54.8344 245.155 55.103 244.921L55.428 245.584C55.246 245.749 55.025 245.87 54.765 245.948C54.5137 246.026 54.2537 246.065 53.985 246.065ZM50.761 239.942V239.175H54.986V239.942H50.761ZM61.3853 246V244.492L61.3463 244.245V241.723C61.3463 241.142 61.1816 240.696 60.8523 240.384C60.5316 240.072 60.0506 239.916 59.4093 239.916C58.9673 239.916 58.547 239.99 58.1483 240.137C57.7496 240.284 57.4116 240.479 57.1343 240.722L56.7183 240.033C57.065 239.738 57.481 239.513 57.9663 239.357C58.4516 239.192 58.963 239.11 59.5003 239.11C60.3843 239.11 61.0646 239.331 61.5413 239.773C62.0266 240.206 62.2693 240.869 62.2693 241.762V246H61.3853ZM59.0323 246.065C58.521 246.065 58.0746 245.983 57.6933 245.818C57.3206 245.645 57.0346 245.411 56.8353 245.116C56.636 244.813 56.5363 244.466 56.5363 244.076C56.5363 243.721 56.6186 243.4 56.7833 243.114C56.9566 242.819 57.234 242.585 57.6153 242.412C58.0053 242.23 58.5253 242.139 59.1753 242.139H61.5283V242.828H59.2013C58.5426 242.828 58.0833 242.945 57.8233 243.179C57.572 243.413 57.4463 243.703 57.4463 244.05C57.4463 244.44 57.598 244.752 57.9013 244.986C58.2046 245.22 58.6293 245.337 59.1753 245.337C59.6953 245.337 60.1416 245.22 60.5143 244.986C60.8956 244.743 61.173 244.397 61.3463 243.946L61.5543 244.583C61.381 245.034 61.0776 245.393 60.6443 245.662C60.2196 245.931 59.6823 246.065 59.0323 246.065ZM67.4933 246.065C66.8433 246.065 66.2583 245.918 65.7383 245.623C65.2269 245.328 64.8239 244.921 64.5293 244.401C64.2346 243.872 64.0873 243.266 64.0873 242.581C64.0873 241.888 64.2346 241.281 64.5293 240.761C64.8239 240.241 65.2269 239.838 65.7383 239.552C66.2583 239.257 66.8433 239.11 67.4933 239.11C68.0913 239.11 68.6243 239.244 69.0923 239.513C69.5689 239.782 69.9459 240.176 70.2233 240.696C70.5093 241.207 70.6523 241.836 70.6523 242.581C70.6523 243.318 70.5136 243.946 70.2363 244.466C69.9589 244.986 69.5819 245.385 69.1053 245.662C68.6373 245.931 68.0999 246.065 67.4933 246.065ZM67.5583 245.246C68.0436 245.246 68.4769 245.138 68.8583 244.921C69.2483 244.696 69.5516 244.384 69.7683 243.985C69.9936 243.578 70.1063 243.11 70.1063 242.581C70.1063 242.044 69.9936 241.576 69.7683 241.177C69.5516 240.778 69.2483 240.471 68.8583 240.254C68.4769 240.029 68.0436 239.916 67.5583 239.916C67.0816 239.916 66.6526 240.029 66.2713 240.254C65.8899 240.471 65.5866 240.778 65.3613 241.177C65.1359 241.576 65.0233 242.044 65.0233 242.581C65.0233 243.11 65.1359 243.578 65.3613 243.985C65.5866 244.384 65.8899 244.696 66.2713 244.921C66.6526 245.138 67.0816 245.246 67.5583 245.246ZM70.1323 246V243.946L70.2233 242.568L70.0933 241.19V236.354H71.0163V246H70.1323ZM76.3688 246.065C75.7101 246.065 75.1165 245.918 74.5878 245.623C74.0678 245.32 73.6561 244.908 73.3528 244.388C73.0495 243.859 72.8978 243.257 72.8978 242.581C72.8978 241.896 73.0495 241.294 73.3528 240.774C73.6561 240.254 74.0678 239.847 74.5878 239.552C75.1078 239.257 75.7015 239.11 76.3688 239.11C77.0448 239.11 77.6428 239.257 78.1628 239.552C78.6915 239.847 79.1031 240.254 79.3978 240.774C79.7011 241.294 79.8528 241.896 79.8528 242.581C79.8528 243.257 79.7011 243.859 79.3978 244.388C79.1031 244.908 78.6915 245.32 78.1628 245.623C77.6341 245.918 77.0361 246.065 76.3688 246.065ZM76.3688 245.246C76.8628 245.246 77.3005 245.138 77.6818 244.921C78.0631 244.696 78.3621 244.384 78.5788 243.985C78.8041 243.578 78.9168 243.11 78.9168 242.581C78.9168 242.044 78.8041 241.576 78.5788 241.177C78.3621 240.778 78.0631 240.471 77.6818 240.254C77.3005 240.029 76.8671 239.916 76.3818 239.916C75.8965 239.916 75.4631 240.029 75.0818 240.254C74.7005 240.471 74.3971 240.778 74.1718 241.177C73.9465 241.576 73.8338 242.044 73.8338 242.581C73.8338 243.11 73.9465 243.578 74.1718 243.985C74.3971 244.384 74.7005 244.696 75.0818 244.921C75.4631 245.138 75.8921 245.246 76.3688 245.246ZM83.5702 246.065C83.0069 246.065 82.4739 245.987 81.9712 245.831C81.4685 245.666 81.0742 245.463 80.7882 245.22L81.2042 244.492C81.4815 244.7 81.8369 244.882 82.2702 245.038C82.7035 245.185 83.1585 245.259 83.6352 245.259C84.2852 245.259 84.7532 245.159 85.0392 244.96C85.3252 244.752 85.4682 244.479 85.4682 244.141C85.4682 243.89 85.3859 243.695 85.2212 243.556C85.0652 243.409 84.8572 243.3 84.5972 243.231C84.3372 243.153 84.0469 243.088 83.7262 243.036C83.4055 242.984 83.0849 242.923 82.7642 242.854C82.4522 242.785 82.1662 242.685 81.9062 242.555C81.6462 242.416 81.4339 242.23 81.2692 241.996C81.1132 241.762 81.0352 241.45 81.0352 241.06C81.0352 240.687 81.1392 240.354 81.3472 240.059C81.5552 239.764 81.8585 239.535 82.2572 239.37C82.6645 239.197 83.1585 239.11 83.7392 239.11C84.1812 239.11 84.6232 239.171 85.0652 239.292C85.5072 239.405 85.8712 239.556 86.1572 239.747L85.7542 240.488C85.4509 240.28 85.1259 240.133 84.7792 240.046C84.4325 239.951 84.0859 239.903 83.7392 239.903C83.1239 239.903 82.6689 240.011 82.3742 240.228C82.0882 240.436 81.9452 240.705 81.9452 241.034C81.9452 241.294 82.0232 241.498 82.1792 241.645C82.3439 241.792 82.5562 241.909 82.8162 241.996C83.0849 242.074 83.3752 242.139 83.6872 242.191C84.0079 242.243 84.3242 242.308 84.6362 242.386C84.9569 242.455 85.2472 242.555 85.5072 242.685C85.7759 242.806 85.9882 242.984 86.1442 243.218C86.3089 243.443 86.3912 243.742 86.3912 244.115C86.3912 244.514 86.2785 244.86 86.0532 245.155C85.8365 245.441 85.5159 245.666 85.0912 245.831C84.6752 245.987 84.1682 246.065 83.5702 246.065Z" fill="black"/><path d="M98.026 246L102.186 236.9H103.135L107.295 246H106.281L102.459 237.459H102.849L99.027 246H98.026ZM99.664 243.569L99.95 242.789H105.241L105.527 243.569H99.664ZM110.7 246.065C110.059 246.065 109.565 245.892 109.218 245.545C108.871 245.198 108.698 244.709 108.698 244.076V237.667H109.621V244.024C109.621 244.423 109.721 244.73 109.92 244.947C110.128 245.164 110.423 245.272 110.804 245.272C111.211 245.272 111.549 245.155 111.818 244.921L112.143 245.584C111.961 245.749 111.74 245.87 111.48 245.948C111.229 246.026 110.969 246.065 110.7 246.065ZM107.476 239.942V239.175H111.701V239.942H107.476ZM113.823 246V239.175H114.707V241.034L114.616 240.709C114.807 240.189 115.127 239.795 115.578 239.526C116.029 239.249 116.588 239.11 117.255 239.11V240.007C117.22 240.007 117.186 240.007 117.151 240.007C117.116 239.998 117.082 239.994 117.047 239.994C116.328 239.994 115.764 240.215 115.357 240.657C114.95 241.09 114.746 241.71 114.746 242.516V246H113.823ZM122.709 246V244.492L122.67 244.245V241.723C122.67 241.142 122.505 240.696 122.176 240.384C121.855 240.072 121.374 239.916 120.733 239.916C120.291 239.916 119.87 239.99 119.472 240.137C119.073 240.284 118.735 240.479 118.458 240.722L118.042 240.033C118.388 239.738 118.804 239.513 119.29 239.357C119.775 239.192 120.286 239.11 120.824 239.11C121.708 239.11 122.388 239.331 122.865 239.773C123.35 240.206 123.593 240.869 123.593 241.762V246H122.709ZM120.356 246.065C119.844 246.065 119.398 245.983 119.017 245.818C118.644 245.645 118.358 245.411 118.159 245.116C117.959 244.813 117.86 244.466 117.86 244.076C117.86 243.721 117.942 243.4 118.107 243.114C118.28 242.819 118.557 242.585 118.939 242.412C119.329 242.23 119.849 242.139 120.499 242.139H122.852V242.828H120.525C119.866 242.828 119.407 242.945 119.147 243.179C118.895 243.413 118.77 243.703 118.77 244.05C118.77 244.44 118.921 244.752 119.225 244.986C119.528 245.22 119.953 245.337 120.499 245.337C121.019 245.337 121.465 245.22 121.838 244.986C122.219 244.743 122.496 244.397 122.67 243.946L122.878 244.583C122.704 245.034 122.401 245.393 121.968 245.662C121.543 245.931 121.006 246.065 120.356 246.065ZM127.933 246.065C127.369 246.065 126.836 245.987 126.334 245.831C125.831 245.666 125.437 245.463 125.151 245.22L125.567 244.492C125.844 244.7 126.199 244.882 126.633 245.038C127.066 245.185 127.521 245.259 127.998 245.259C128.648 245.259 129.116 245.159 129.402 244.96C129.688 244.752 129.831 244.479 129.831 244.141C129.831 243.89 129.748 243.695 129.584 243.556C129.428 243.409 129.22 243.3 128.96 243.231C128.7 243.153 128.409 243.088 128.089 243.036C127.768 242.984 127.447 242.923 127.127 242.854C126.815 242.785 126.529 242.685 126.269 242.555C126.009 242.416 125.796 242.23 125.632 241.996C125.476 241.762 125.398 241.45 125.398 241.06C125.398 240.687 125.502 240.354 125.71 240.059C125.918 239.764 126.221 239.535 126.62 239.37C127.027 239.197 127.521 239.11 128.102 239.11C128.544 239.11 128.986 239.171 129.428 239.292C129.87 239.405 130.234 239.556 130.52 239.747L130.117 240.488C129.813 240.28 129.488 240.133 129.142 240.046C128.795 239.951 128.448 239.903 128.102 239.903C127.486 239.903 127.031 240.011 126.737 240.228C126.451 240.436 126.308 240.705 126.308 241.034C126.308 241.294 126.386 241.498 126.542 241.645C126.706 241.792 126.919 241.909 127.179 241.996C127.447 242.074 127.738 242.139 128.05 242.191C128.37 242.243 128.687 242.308 128.999 242.386C129.319 242.455 129.61 242.555 129.87 242.685C130.138 242.806 130.351 242.984 130.507 243.218C130.671 243.443 130.754 243.742 130.754 244.115C130.754 244.514 130.641 244.86 130.416 245.155C130.199 245.441 129.878 245.666 129.454 245.831C129.038 245.987 128.531 246.065 127.933 246.065ZM136.724 246V244.492L136.685 244.245V241.723C136.685 241.142 136.52 240.696 136.191 240.384C135.87 240.072 135.389 239.916 134.748 239.916C134.306 239.916 133.886 239.99 133.487 240.137C133.088 240.284 132.75 240.479 132.473 240.722L132.057 240.033C132.404 239.738 132.82 239.513 133.305 239.357C133.79 239.192 134.302 239.11 134.839 239.11C135.723 239.11 136.403 239.331 136.88 239.773C137.365 240.206 137.608 240.869 137.608 241.762V246H136.724ZM134.371 246.065C133.86 246.065 133.413 245.983 133.032 245.818C132.659 245.645 132.373 245.411 132.174 245.116C131.975 244.813 131.875 244.466 131.875 244.076C131.875 243.721 131.957 243.4 132.122 243.114C132.295 242.819 132.573 242.585 132.954 242.412C133.344 242.23 133.864 242.139 134.514 242.139H136.867V242.828H134.54C133.881 242.828 133.422 242.945 133.162 243.179C132.911 243.413 132.785 243.703 132.785 244.05C132.785 244.44 132.937 244.752 133.24 244.986C133.543 245.22 133.968 245.337 134.514 245.337C135.034 245.337 135.48 245.22 135.853 244.986C136.234 244.743 136.512 244.397 136.685 243.946L136.893 244.583C136.72 245.034 136.416 245.393 135.983 245.662C135.558 245.931 135.021 246.065 134.371 246.065ZM142.832 246.065C142.182 246.065 141.597 245.918 141.077 245.623C140.566 245.328 140.163 244.921 139.868 244.401C139.573 243.872 139.426 243.266 139.426 242.581C139.426 241.888 139.573 241.281 139.868 240.761C140.163 240.241 140.566 239.838 141.077 239.552C141.597 239.257 142.182 239.11 142.832 239.11C143.43 239.11 143.963 239.244 144.431 239.513C144.908 239.782 145.285 240.176 145.562 240.696C145.848 241.207 145.991 241.836 145.991 242.581C145.991 243.318 145.852 243.946 145.575 244.466C145.298 244.986 144.921 245.385 144.444 245.662C143.976 245.931 143.439 246.065 142.832 246.065ZM142.897 245.246C143.382 245.246 143.816 245.138 144.197 244.921C144.587 244.696 144.89 244.384 145.107 243.985C145.332 243.578 145.445 243.11 145.445 242.581C145.445 242.044 145.332 241.576 145.107 241.177C144.89 240.778 144.587 240.471 144.197 240.254C143.816 240.029 143.382 239.916 142.897 239.916C142.42 239.916 141.991 240.029 141.61 240.254C141.229 240.471 140.925 240.778 140.7 241.177C140.475 241.576 140.362 242.044 140.362 242.581C140.362 243.11 140.475 243.578 140.7 243.985C140.925 244.384 141.229 244.696 141.61 244.921C141.991 245.138 142.42 245.246 142.897 245.246ZM145.471 246V243.946L145.562 242.568L145.432 241.19V236.354H146.355V246H145.471ZM151.708 246.065C151.049 246.065 150.455 245.918 149.927 245.623C149.407 245.32 148.995 244.908 148.692 244.388C148.388 243.859 148.237 243.257 148.237 242.581C148.237 241.896 148.388 241.294 148.692 240.774C148.995 240.254 149.407 239.847 149.927 239.552C150.447 239.257 151.04 239.11 151.708 239.11C152.384 239.11 152.982 239.257 153.502 239.552C154.03 239.847 154.442 240.254 154.737 240.774C155.04 241.294 155.192 241.896 155.192 242.581C155.192 243.257 155.04 243.859 154.737 244.388C154.442 244.908 154.03 245.32 153.502 245.623C152.973 245.918 152.375 246.065 151.708 246.065ZM151.708 245.246C152.202 245.246 152.639 245.138 153.021 244.921C153.402 244.696 153.701 244.384 153.918 243.985C154.143 243.578 154.256 243.11 154.256 242.581C154.256 242.044 154.143 241.576 153.918 241.177C153.701 240.778 153.402 240.471 153.021 240.254C152.639 240.029 152.206 239.916 151.721 239.916C151.235 239.916 150.802 240.029 150.421 240.254C150.039 240.471 149.736 240.778 149.511 241.177C149.285 241.576 149.173 242.044 149.173 242.581C149.173 243.11 149.285 243.578 149.511 243.985C149.736 244.384 150.039 244.696 150.421 244.921C150.802 245.138 151.231 245.246 151.708 245.246ZM158.909 246.065C158.346 246.065 157.813 245.987 157.31 245.831C156.807 245.666 156.413 245.463 156.127 245.22L156.543 244.492C156.82 244.7 157.176 244.882 157.609 245.038C158.042 245.185 158.497 245.259 158.974 245.259C159.624 245.259 160.092 245.159 160.378 244.96C160.664 244.752 160.807 244.479 160.807 244.141C160.807 243.89 160.725 243.695 160.56 243.556C160.404 243.409 160.196 243.3 159.936 243.231C159.676 243.153 159.386 243.088 159.065 243.036C158.744 242.984 158.424 242.923 158.103 242.854C157.791 242.785 157.505 242.685 157.245 242.555C156.985 242.416 156.773 242.23 156.608 241.996C156.452 241.762 156.374 241.45 156.374 241.06C156.374 240.687 156.478 240.354 156.686 240.059C156.894 239.764 157.197 239.535 157.596 239.37C158.003 239.197 158.497 239.11 159.078 239.11C159.52 239.11 159.962 239.171 160.404 239.292C160.846 239.405 161.21 239.556 161.496 239.747L161.093 240.488C160.79 240.28 160.465 240.133 160.118 240.046C159.771 239.951 159.425 239.903 159.078 239.903C158.463 239.903 158.008 240.011 157.713 240.228C157.427 240.436 157.284 240.705 157.284 241.034C157.284 241.294 157.362 241.498 157.518 241.645C157.683 241.792 157.895 241.909 158.155 241.996C158.424 242.074 158.714 242.139 159.026 242.191C159.347 242.243 159.663 242.308 159.975 242.386C160.296 242.455 160.586 242.555 160.846 242.685C161.115 242.806 161.327 242.984 161.483 243.218C161.648 243.443 161.73 243.742 161.73 244.115C161.73 244.514 161.617 244.86 161.392 245.155C161.175 245.441 160.855 245.666 160.43 245.831C160.014 245.987 159.507 246.065 158.909 246.065Z" fill="black"/><path d="M187.482 246V236.9H191.187C192.158 236.9 193.007 237.095 193.735 237.485C194.472 237.866 195.044 238.399 195.451 239.084C195.858 239.769 196.062 240.557 196.062 241.45C196.062 242.343 195.858 243.131 195.451 243.816C195.044 244.501 194.472 245.038 193.735 245.428C193.007 245.809 192.158 246 191.187 246H187.482ZM188.444 245.168H191.135C191.941 245.168 192.639 245.012 193.228 244.7C193.826 244.379 194.29 243.942 194.619 243.387C194.948 242.824 195.113 242.178 195.113 241.45C195.113 240.713 194.948 240.068 194.619 239.513C194.29 238.958 193.826 238.525 193.228 238.213C192.639 237.892 191.941 237.732 191.135 237.732H188.444V245.168ZM200.926 246.065C200.216 246.065 199.592 245.918 199.054 245.623C198.517 245.32 198.097 244.908 197.793 244.388C197.49 243.859 197.338 243.257 197.338 242.581C197.338 241.905 197.481 241.307 197.767 240.787C198.062 240.267 198.461 239.86 198.963 239.565C199.475 239.262 200.047 239.11 200.679 239.11C201.321 239.11 201.888 239.257 202.382 239.552C202.885 239.838 203.279 240.245 203.565 240.774C203.851 241.294 203.994 241.896 203.994 242.581C203.994 242.624 203.99 242.672 203.981 242.724C203.981 242.767 203.981 242.815 203.981 242.867H198.04V242.178H203.487L203.123 242.451C203.123 241.957 203.015 241.519 202.798 241.138C202.59 240.748 202.304 240.445 201.94 240.228C201.576 240.011 201.156 239.903 200.679 239.903C200.211 239.903 199.791 240.011 199.418 240.228C199.046 240.445 198.755 240.748 198.547 241.138C198.339 241.528 198.235 241.974 198.235 242.477V242.62C198.235 243.14 198.348 243.599 198.573 243.998C198.807 244.388 199.128 244.696 199.535 244.921C199.951 245.138 200.424 245.246 200.952 245.246C201.368 245.246 201.754 245.172 202.109 245.025C202.473 244.878 202.785 244.652 203.045 244.349L203.565 244.947C203.262 245.311 202.881 245.588 202.421 245.779C201.971 245.97 201.472 246.065 200.926 246.065ZM207.501 246L204.472 239.175H205.434L208.216 245.506H207.761L210.582 239.175H211.492L208.45 246H207.501ZM215.383 246.065C214.725 246.065 214.131 245.918 213.602 245.623C213.082 245.32 212.671 244.908 212.367 244.388C212.064 243.859 211.912 243.257 211.912 242.581C211.912 241.896 212.064 241.294 212.367 240.774C212.671 240.254 213.082 239.847 213.602 239.552C214.122 239.257 214.716 239.11 215.383 239.11C216.059 239.11 216.657 239.257 217.177 239.552C217.706 239.847 218.118 240.254 218.412 240.774C218.716 241.294 218.867 241.896 218.867 242.581C218.867 243.257 218.716 243.859 218.412 244.388C218.118 244.908 217.706 245.32 217.177 245.623C216.649 245.918 216.051 246.065 215.383 246.065ZM215.383 245.246C215.877 245.246 216.315 245.138 216.696 244.921C217.078 244.696 217.377 244.384 217.593 243.985C217.819 243.578 217.931 243.11 217.931 242.581C217.931 242.044 217.819 241.576 217.593 241.177C217.377 240.778 217.078 240.471 216.696 240.254C216.315 240.029 215.882 239.916 215.396 239.916C214.911 239.916 214.478 240.029 214.096 240.254C213.715 240.471 213.412 240.778 213.186 241.177C212.961 241.576 212.848 242.044 212.848 242.581C212.848 243.11 212.961 243.578 213.186 243.985C213.412 244.384 213.715 244.696 214.096 244.921C214.478 245.138 214.907 245.246 215.383 245.246ZM220.752 246V236.354H221.675V246H220.752ZM225.998 246L222.969 239.175H223.931L226.713 245.506H226.258L229.079 239.175H229.989L226.947 246H225.998ZM231.289 246V239.175H232.212V246H231.289ZM231.757 237.667C231.566 237.667 231.406 237.602 231.276 237.472C231.146 237.342 231.081 237.186 231.081 237.004C231.081 236.822 231.146 236.67 231.276 236.549C231.406 236.419 231.566 236.354 231.757 236.354C231.948 236.354 232.108 236.415 232.238 236.536C232.368 236.657 232.433 236.809 232.433 236.991C232.433 237.182 232.368 237.342 232.238 237.472C232.117 237.602 231.956 237.667 231.757 237.667ZM237.497 246.065C236.847 246.065 236.262 245.918 235.742 245.623C235.231 245.328 234.828 244.921 234.533 244.401C234.238 243.872 234.091 243.266 234.091 242.581C234.091 241.888 234.238 241.281 234.533 240.761C234.828 240.241 235.231 239.838 235.742 239.552C236.262 239.257 236.847 239.11 237.497 239.11C238.095 239.11 238.628 239.244 239.096 239.513C239.573 239.782 239.95 240.176 240.227 240.696C240.513 241.207 240.656 241.836 240.656 242.581C240.656 243.318 240.517 243.946 240.24 244.466C239.963 244.986 239.586 245.385 239.109 245.662C238.641 245.931 238.104 246.065 237.497 246.065ZM237.562 245.246C238.047 245.246 238.481 245.138 238.862 244.921C239.252 244.696 239.555 244.384 239.772 243.985C239.997 243.578 240.11 243.11 240.11 242.581C240.11 242.044 239.997 241.576 239.772 241.177C239.555 240.778 239.252 240.471 238.862 240.254C238.481 240.029 238.047 239.916 237.562 239.916C237.085 239.916 236.656 240.029 236.275 240.254C235.894 240.471 235.59 240.778 235.365 241.177C235.14 241.576 235.027 242.044 235.027 242.581C235.027 243.11 235.14 243.578 235.365 243.985C235.59 244.384 235.894 244.696 236.275 244.921C236.656 245.138 237.085 245.246 237.562 245.246ZM240.136 246V243.946L240.227 242.568L240.097 241.19V236.354H241.02V246H240.136ZM246.373 246.065C245.714 246.065 245.12 245.918 244.592 245.623C244.072 245.32 243.66 244.908 243.357 244.388C243.053 243.859 242.902 243.257 242.902 242.581C242.902 241.896 243.053 241.294 243.357 240.774C243.66 240.254 244.072 239.847 244.592 239.552C245.112 239.257 245.705 239.11 246.373 239.11C247.049 239.11 247.647 239.257 248.167 239.552C248.695 239.847 249.107 240.254 249.402 240.774C249.705 241.294 249.857 241.896 249.857 242.581C249.857 243.257 249.705 243.859 249.402 244.388C249.107 244.908 248.695 245.32 248.167 245.623C247.638 245.918 247.04 246.065 246.373 246.065ZM246.373 245.246C246.867 245.246 247.304 245.138 247.686 244.921C248.067 244.696 248.366 244.384 248.583 243.985C248.808 243.578 248.921 243.11 248.921 242.581C248.921 242.044 248.808 241.576 248.583 241.177C248.366 240.778 248.067 240.471 247.686 240.254C247.304 240.029 246.871 239.916 246.386 239.916C245.9 239.916 245.467 240.029 245.086 240.254C244.704 240.471 244.401 240.778 244.176 241.177C243.95 241.576 243.838 242.044 243.838 242.581C243.838 243.11 243.95 243.578 244.176 243.985C244.401 244.384 244.704 244.696 245.086 244.921C245.467 245.138 245.896 245.246 246.373 245.246ZM253.574 246.065C253.011 246.065 252.478 245.987 251.975 245.831C251.472 245.666 251.078 245.463 250.792 245.22L251.208 244.492C251.485 244.7 251.841 244.882 252.274 245.038C252.707 245.185 253.162 245.259 253.639 245.259C254.289 245.259 254.757 245.159 255.043 244.96C255.329 244.752 255.472 244.479 255.472 244.141C255.472 243.89 255.39 243.695 255.225 243.556C255.069 243.409 254.861 243.3 254.601 243.231C254.341 243.153 254.051 243.088 253.73 243.036C253.409 242.984 253.089 242.923 252.768 242.854C252.456 242.785 252.17 242.685 251.91 242.555C251.65 242.416 251.438 242.23 251.273 241.996C251.117 241.762 251.039 241.45 251.039 241.06C251.039 240.687 251.143 240.354 251.351 240.059C251.559 239.764 251.862 239.535 252.261 239.37C252.668 239.197 253.162 239.11 253.743 239.11C254.185 239.11 254.627 239.171 255.069 239.292C255.511 239.405 255.875 239.556 256.161 239.747L255.758 240.488C255.455 240.28 255.13 240.133 254.783 240.046C254.436 239.951 254.09 239.903 253.743 239.903C253.128 239.903 252.673 240.011 252.378 240.228C252.092 240.436 251.949 240.705 251.949 241.034C251.949 241.294 252.027 241.498 252.183 241.645C252.348 241.792 252.56 241.909 252.82 241.996C253.089 242.074 253.379 242.139 253.691 242.191C254.012 242.243 254.328 242.308 254.64 242.386C254.961 242.455 255.251 242.555 255.511 242.685C255.78 242.806 255.992 242.984 256.148 243.218C256.313 243.443 256.395 243.742 256.395 244.115C256.395 244.514 256.282 244.86 256.057 245.155C255.84 245.441 255.52 245.666 255.095 245.831C254.679 245.987 254.172 246.065 253.574 246.065Z" fill="black"/><path d="M14.775 20L22.575 2.5H26.575L34.4 20H30.15L23.75 4.55H25.35L18.925 20H14.775ZM18.675 16.25L19.75 13.175H28.75L29.85 16.25H18.675ZM35.9406 20V1.45H39.8406V20H35.9406ZM49.1352 20.2C48.0185 20.2 47.0185 19.9833 46.1352 19.55C45.2685 19.1167 44.5935 18.4583 44.1102 17.575C43.6268 16.675 43.3852 15.5333 43.3852 14.15V6.55H47.2852V13.575C47.2852 14.6917 47.5185 15.5167 47.9852 16.05C48.4685 16.5667 49.1435 16.825 50.0102 16.825C50.6102 16.825 51.1435 16.7 51.6102 16.45C52.0768 16.1833 52.4435 15.7833 52.7102 15.25C52.9768 14.7 53.1102 14.0167 53.1102 13.2V6.55H57.0102V20H53.3102V16.3L53.9852 17.375C53.5352 18.3083 52.8685 19.0167 51.9852 19.5C51.1185 19.9667 50.1685 20.2 49.1352 20.2ZM66.9482 25.05C65.6816 25.05 64.4566 24.8917 63.2732 24.575C62.1066 24.275 61.1316 23.8167 60.3482 23.2L61.8982 20.4C62.4649 20.8667 63.1816 21.2333 64.0482 21.5C64.9316 21.7833 65.7982 21.925 66.6482 21.925C68.0316 21.925 69.0316 21.6167 69.6482 21C70.2816 20.3833 70.5982 19.4667 70.5982 18.25V16.225L70.8482 12.85L70.7982 9.45V6.55H74.4982V17.75C74.4982 20.25 73.8482 22.0917 72.5482 23.275C71.2482 24.4583 69.3816 25.05 66.9482 25.05ZM66.3482 19.35C65.0982 19.35 63.9649 19.0833 62.9482 18.55C61.9482 18 61.1399 17.2417 60.5232 16.275C59.9232 15.2917 59.6232 14.15 59.6232 12.85C59.6232 11.5333 59.9232 10.3917 60.5232 9.425C61.1399 8.44167 61.9482 7.68333 62.9482 7.15C63.9649 6.61667 65.0982 6.35 66.3482 6.35C67.4816 6.35 68.4816 6.58333 69.3482 7.05C70.2149 7.5 70.8899 8.20833 71.3732 9.175C71.8566 10.125 72.0982 11.35 72.0982 12.85C72.0982 14.3333 71.8566 15.5583 71.3732 16.525C70.8899 17.475 70.2149 18.1833 69.3482 18.65C68.4816 19.1167 67.4816 19.35 66.3482 19.35ZM67.1232 16.15C67.8066 16.15 68.4149 16.0167 68.9482 15.75C69.4816 15.4667 69.8982 15.075 70.1982 14.575C70.4982 14.075 70.6482 13.5 70.6482 12.85C70.6482 12.1833 70.4982 11.6083 70.1982 11.125C69.8982 10.625 69.4816 10.2417 68.9482 9.975C68.4149 9.69167 67.8066 9.55 67.1232 9.55C66.4399 9.55 65.8316 9.69167 65.2982 9.975C64.7649 10.2417 64.3399 10.625 64.0232 11.125C63.7232 11.6083 63.5732 12.1833 63.5732 12.85C63.5732 13.5 63.7232 14.075 64.0232 14.575C64.3399 15.075 64.7649 15.4667 65.2982 15.75C65.8316 16.0167 66.4399 16.15 67.1232 16.15ZM83.8031 20.2C82.6865 20.2 81.6865 19.9833 80.8031 19.55C79.9365 19.1167 79.2615 18.4583 78.7781 17.575C78.2948 16.675 78.0531 15.5333 78.0531 14.15V6.55H81.9531V13.575C81.9531 14.6917 82.1865 15.5167 82.6531 16.05C83.1365 16.5667 83.8115 16.825 84.6781 16.825C85.2781 16.825 85.8115 16.7 86.2781 16.45C86.7448 16.1833 87.1115 15.7833 87.3781 15.25C87.6448 14.7 87.7781 14.0167 87.7781 13.2V6.55H91.6781V20H87.9781V16.3L88.6531 17.375C88.2031 18.3083 87.5365 19.0167 86.6531 19.5C85.7865 19.9667 84.8365 20.2 83.8031 20.2ZM101.966 20.2C100.433 20.2 99.0829 19.9 97.9162 19.3C96.7662 18.7 95.8745 17.8833 95.2412 16.85C94.6079 15.8 94.2912 14.6083 94.2912 13.275C94.2912 11.925 94.5995 10.7333 95.2162 9.7C95.8495 8.65 96.7079 7.83333 97.7912 7.25C98.8745 6.65 100.1 6.35 101.466 6.35C102.783 6.35 103.966 6.63333 105.016 7.2C106.083 7.75 106.925 8.55 107.541 9.6C108.158 10.6333 108.466 11.875 108.466 13.325C108.466 13.475 108.458 13.65 108.441 13.85C108.425 14.0333 108.408 14.2083 108.391 14.375H97.4662V12.1H106.341L104.841 12.775C104.841 12.075 104.7 11.4667 104.416 10.95C104.133 10.4333 103.741 10.0333 103.241 9.75C102.741 9.45 102.158 9.3 101.491 9.3C100.825 9.3 100.233 9.45 99.7162 9.75C99.2162 10.0333 98.8245 10.4417 98.5412 10.975C98.2579 11.4917 98.1162 12.1083 98.1162 12.825V13.425C98.1162 14.1583 98.2745 14.8083 98.5912 15.375C98.9245 15.925 99.3829 16.35 99.9662 16.65C100.566 16.9333 101.266 17.075 102.066 17.075C102.783 17.075 103.408 16.9667 103.941 16.75C104.491 16.5333 104.991 16.2083 105.441 15.775L107.516 18.025C106.9 18.725 106.125 19.2667 105.191 19.65C104.258 20.0167 103.183 20.2 101.966 20.2ZM99.1162 4.825L102.491 1.225H106.691L102.166 4.825H99.1162ZM111.063 20V6.55H114.963V20H111.063ZM113.013 4.675C112.296 4.675 111.713 4.46667 111.263 4.05C110.813 3.63333 110.588 3.11667 110.588 2.5C110.588 1.88333 110.813 1.36667 111.263 0.949999C111.713 0.533332 112.296 0.324998 113.013 0.324998C113.729 0.324998 114.313 0.524999 114.763 0.925C115.213 1.30833 115.438 1.80833 115.438 2.425C115.438 3.075 115.213 3.61667 114.763 4.05C114.329 4.46667 113.746 4.675 113.013 4.675ZM123.107 20.2C121.957 20.2 120.849 20.0667 119.782 19.8C118.732 19.5167 117.899 19.1667 117.282 18.75L118.582 15.95C119.199 16.3333 119.924 16.65 120.757 16.9C121.607 17.1333 122.441 17.25 123.257 17.25C124.157 17.25 124.791 17.1417 125.157 16.925C125.541 16.7083 125.732 16.4083 125.732 16.025C125.732 15.7083 125.582 15.475 125.282 15.325C124.999 15.1583 124.616 15.0333 124.132 14.95C123.649 14.8667 123.116 14.7833 122.532 14.7C121.966 14.6167 121.391 14.5083 120.807 14.375C120.224 14.225 119.691 14.0083 119.207 13.725C118.724 13.4417 118.332 13.0583 118.032 12.575C117.749 12.0917 117.607 11.4667 117.607 10.7C117.607 9.85 117.849 9.1 118.332 8.45C118.832 7.8 119.549 7.29167 120.482 6.925C121.416 6.54167 122.532 6.35 123.832 6.35C124.749 6.35 125.682 6.45 126.632 6.65C127.582 6.85 128.374 7.14167 129.007 7.525L127.707 10.3C127.057 9.91667 126.399 9.65833 125.732 9.525C125.082 9.375 124.449 9.3 123.832 9.3C122.966 9.3 122.332 9.41667 121.932 9.65C121.532 9.88333 121.332 10.1833 121.332 10.55C121.332 10.8833 121.474 11.1333 121.757 11.3C122.057 11.4667 122.449 11.6 122.932 11.7C123.416 11.8 123.941 11.8917 124.507 11.975C125.091 12.0417 125.674 12.15 126.257 12.3C126.841 12.45 127.366 12.6667 127.832 12.95C128.316 13.2167 128.707 13.5917 129.007 14.075C129.307 14.5417 129.457 15.1583 129.457 15.925C129.457 16.7583 129.207 17.5 128.707 18.15C128.207 18.7833 127.482 19.2833 126.532 19.65C125.599 20.0167 124.457 20.2 123.107 20.2ZM142.094 24.85C141.094 23.3333 140.319 21.5833 139.769 19.6C139.235 17.6 138.969 15.45 138.969 13.15C138.969 10.85 139.235 8.7 139.769 6.7C140.319 4.68333 141.094 2.93333 142.094 1.45H145.819C144.769 3.33333 144.002 5.23333 143.519 7.15C143.035 9.05 142.794 11.05 142.794 13.15C142.794 15.25 143.035 17.2583 143.519 19.175C144.002 21.075 144.769 22.9667 145.819 24.85H142.094ZM165.104 6.35C166.171 6.35 167.112 6.56667 167.929 7C168.762 7.41667 169.412 8.06667 169.879 8.95C170.362 9.81667 170.604 10.9333 170.604 12.3V20H166.704V12.9C166.704 11.8167 166.479 11.0167 166.029 10.5C165.579 9.98333 164.946 9.725 164.129 9.725C163.562 9.725 163.054 9.85833 162.604 10.125C162.154 10.375 161.804 10.7583 161.554 11.275C161.304 11.7917 161.179 12.45 161.179 13.25V20H157.279V12.9C157.279 11.8167 157.054 11.0167 156.604 10.5C156.171 9.98333 155.546 9.725 154.729 9.725C154.162 9.725 153.654 9.85833 153.204 10.125C152.754 10.375 152.404 10.7583 152.154 11.275C151.904 11.7917 151.779 12.45 151.779 13.25V20H147.879V6.55H151.604V10.225L150.904 9.15C151.371 8.23333 152.029 7.54167 152.879 7.075C153.746 6.59167 154.729 6.35 155.829 6.35C157.062 6.35 158.137 6.66667 159.054 7.3C159.987 7.91667 160.604 8.86667 160.904 10.15L159.529 9.775C159.979 8.725 160.696 7.89167 161.679 7.275C162.679 6.65833 163.821 6.35 165.104 6.35ZM180.872 20.2C179.339 20.2 177.989 19.9 176.822 19.3C175.672 18.7 174.781 17.8833 174.147 16.85C173.514 15.8 173.197 14.6083 173.197 13.275C173.197 11.925 173.506 10.7333 174.122 9.7C174.756 8.65 175.614 7.83333 176.697 7.25C177.781 6.65 179.006 6.35 180.372 6.35C181.689 6.35 182.872 6.63333 183.922 7.2C184.989 7.75 185.831 8.55 186.447 9.6C187.064 10.6333 187.372 11.875 187.372 13.325C187.372 13.475 187.364 13.65 187.347 13.85C187.331 14.0333 187.314 14.2083 187.297 14.375H176.372V12.1H185.247L183.747 12.775C183.747 12.075 183.606 11.4667 183.322 10.95C183.039 10.4333 182.647 10.0333 182.147 9.75C181.647 9.45 181.064 9.3 180.397 9.3C179.731 9.3 179.139 9.45 178.622 9.75C178.122 10.0333 177.731 10.4417 177.447 10.975C177.164 11.4917 177.022 12.1083 177.022 12.825V13.425C177.022 14.1583 177.181 14.8083 177.497 15.375C177.831 15.925 178.289 16.35 178.872 16.65C179.472 16.9333 180.172 17.075 180.972 17.075C181.689 17.075 182.314 16.9667 182.847 16.75C183.397 16.5333 183.897 16.2083 184.347 15.775L186.422 18.025C185.806 18.725 185.031 19.2667 184.097 19.65C183.164 20.0167 182.089 20.2 180.872 20.2ZM198.144 6.35C199.211 6.35 200.161 6.56667 200.994 7C201.844 7.41667 202.511 8.06667 202.994 8.95C203.477 9.81667 203.719 10.9333 203.719 12.3V20H199.819V12.9C199.819 11.8167 199.577 11.0167 199.094 10.5C198.627 9.98333 197.961 9.725 197.094 9.725C196.477 9.725 195.919 9.85833 195.419 10.125C194.936 10.375 194.552 10.7667 194.269 11.3C194.002 11.8333 193.869 12.5167 193.869 13.35V20H189.969V6.55H193.694V10.275L192.994 9.15C193.477 8.25 194.169 7.55833 195.069 7.075C195.969 6.59167 196.994 6.35 198.144 6.35ZM211.779 20.2C210.629 20.2 209.521 20.0667 208.454 19.8C207.404 19.5167 206.571 19.1667 205.954 18.75L207.254 15.95C207.871 16.3333 208.596 16.65 209.429 16.9C210.279 17.1333 211.112 17.25 211.929 17.25C212.829 17.25 213.462 17.1417 213.829 16.925C214.212 16.7083 214.404 16.4083 214.404 16.025C214.404 15.7083 214.254 15.475 213.954 15.325C213.671 15.1583 213.287 15.0333 212.804 14.95C212.321 14.8667 211.787 14.7833 211.204 14.7C210.637 14.6167 210.062 14.5083 209.479 14.375C208.896 14.225 208.362 14.0083 207.879 13.725C207.396 13.4417 207.004 13.0583 206.704 12.575C206.421 12.0917 206.279 11.4667 206.279 10.7C206.279 9.85 206.521 9.1 207.004 8.45C207.504 7.8 208.221 7.29167 209.154 6.925C210.087 6.54167 211.204 6.35 212.504 6.35C213.421 6.35 214.354 6.45 215.304 6.65C216.254 6.85 217.046 7.14167 217.679 7.525L216.379 10.3C215.729 9.91667 215.071 9.65833 214.404 9.525C213.754 9.375 213.121 9.3 212.504 9.3C211.637 9.3 211.004 9.41667 210.604 9.65C210.204 9.88333 210.004 10.1833 210.004 10.55C210.004 10.8833 210.146 11.1333 210.429 11.3C210.729 11.4667 211.121 11.6 211.604 11.7C212.087 11.8 212.612 11.8917 213.179 11.975C213.762 12.0417 214.346 12.15 214.929 12.3C215.512 12.45 216.037 12.6667 216.504 12.95C216.987 13.2167 217.379 13.5917 217.679 14.075C217.979 14.5417 218.129 15.1583 218.129 15.925C218.129 16.7583 217.879 17.5 217.379 18.15C216.879 18.7833 216.154 19.2833 215.204 19.65C214.271 20.0167 213.129 20.2 211.779 20.2ZM228.785 20V17.375L228.535 16.8V12.1C228.535 11.2667 228.277 10.6167 227.76 10.15C227.26 9.68333 226.485 9.45 225.435 9.45C224.719 9.45 224.01 9.56667 223.31 9.8C222.627 10.0167 222.044 10.3167 221.56 10.7L220.16 7.975C220.894 7.45833 221.777 7.05833 222.81 6.775C223.844 6.49167 224.894 6.35 225.96 6.35C228.01 6.35 229.602 6.83333 230.735 7.8C231.869 8.76667 232.435 10.275 232.435 12.325V20H228.785ZM224.685 20.2C223.635 20.2 222.735 20.025 221.985 19.675C221.235 19.3083 220.66 18.8167 220.26 18.2C219.86 17.5833 219.66 16.8917 219.66 16.125C219.66 15.325 219.852 14.625 220.235 14.025C220.635 13.425 221.26 12.9583 222.11 12.625C222.96 12.275 224.069 12.1 225.435 12.1H229.01V14.375H225.86C224.944 14.375 224.31 14.525 223.96 14.825C223.627 15.125 223.46 15.5 223.46 15.95C223.46 16.45 223.652 16.85 224.035 17.15C224.435 17.4333 224.977 17.575 225.66 17.575C226.31 17.575 226.894 17.425 227.41 17.125C227.927 16.8083 228.302 16.35 228.535 15.75L229.135 17.55C228.852 18.4167 228.335 19.075 227.585 19.525C226.835 19.975 225.869 20.2 224.685 20.2ZM235.965 20V1.45H239.865V20H235.965ZM245.66 24.85H241.935C243.018 22.9667 243.793 21.075 244.26 19.175C244.743 17.2583 244.985 15.25 244.985 13.15C244.985 11.05 244.743 9.05 244.26 7.15C243.793 5.23333 243.018 3.33333 241.935 1.45H245.66C246.693 2.93333 247.476 4.68333 248.01 6.7C248.543 8.7 248.81 10.85 248.81 13.15C248.81 15.45 248.543 17.6 248.01 19.6C247.476 21.5833 246.693 23.3333 245.66 24.85Z" fill="black"/></svg>