<svg width="20" height="20" viewBox="0 0 28 28" fill="none" xmlns="http://www.w3.org/2000/svg">
<g clip-path="url(#clip0_63_614)">
<path d="M12.8333 0H3.5C2.57174 0 1.6815 0.368749 1.02513 1.02513C0.368749 1.6815 0 2.57174 0 3.5L0 28H16.3333V3.5C16.3333 2.57174 15.9646 1.6815 15.3082 1.02513C14.6518 0.368749 13.7616 0 12.8333 0ZM7 22.1667H3.5V19.8333H7V22.1667ZM7 17.5H3.5V15.1667H7V17.5ZM7 12.8333H3.5V10.5H7V12.8333ZM7 8.16667H3.5V5.83333H7V8.16667ZM12.8333 22.1667H9.33333V19.8333H12.8333V22.1667ZM12.8333 17.5H9.33333V15.1667H12.8333V17.5ZM12.8333 12.8333H9.33333V10.5H12.8333V12.8333ZM12.8333 8.16667H9.33333V5.83333H12.8333V8.16667ZM24.5 5.83333H18.6667V28H28V9.33333C28 8.40508 27.6313 7.51484 26.9749 6.85846C26.3185 6.20208 25.4283 5.83333 24.5 5.83333ZM24.5 22.1667H22.1667V19.8333H24.5V22.1667ZM24.5 17.5H22.1667V15.1667H24.5V17.5ZM24.5 12.8333H22.1667V10.5H24.5V12.8333Z" fill="black"/>
</g>
<defs>
<clipPath id="clip0_63_614">
<rect width="28" height="28" fill="white"/>
</clipPath>
</defs>
</svg>
