<svg width="20" height="20" viewBox="0 0 20 20" fill="none" xmlns="http://www.w3.org/2000/svg">
<g clip-path="url(#clip0_223_8653)"><path d="M1.66667 16.6667H13.3333V20H1.66667C0.745833 20 0 19.2542 0 18.3333C0 17.4125 0.745833 16.6667 1.66667 16.6667ZM8.33333 11.6667H20V15H8.33333C7.4125 15 6.66667 14.2542 6.66667 13.3333C6.66667 12.4125 7.4125 11.6667 8.33333 11.6667ZM9.16667 0H18.3333C19.2542 0 20 0.745833 20 1.66667V10H8.33333C7.71833 9.99917 7.12417 10.2258 6.66667 10.6375V2.5C6.66667 1.11917 7.78583 0 9.16667 0ZM5 13.3333V5H2.5C1.11917 5 0 6.11917 0 7.5V15.6375C0.4575 15.2258 1.05167 14.9992 1.66667 15H5.44583C5.1625 14.51 5 13.9408 5 13.3333Z" fill="#D9D9D9"/></g><defs><clipPath id="clip0_223_8653"><rect width="20" height="20" fill="white"/></clipPath></defs>
</svg>
