<svg width="20" height="20" viewBox="0 0 20 20" fill="none" xmlns="http://www.w3.org/2000/svg">
<path d="M15.8333 2.5H4.16667C1.86583 2.5 0 4.36583 0 6.66667V13.3333C0 15.6342 1.86583 17.5 4.16667 17.5H15.8333C18.1342 17.5 20 15.6342 20 13.3333V6.66667C20 4.36583 18.1342 2.5 15.8333 2.5ZM5.66833 14.4658C4.0775 14.0917 2.83167 12.7508 2.56083 11.1392C2.17 8.81333 3.70833 6.765 5.83333 6.33333V10.0708C5.83333 10.5125 6.00917 10.9367 6.32167 11.2492L8.9625 13.89C8.05167 14.4933 6.89333 14.7533 5.66833 14.4658ZM10.14 12.7117L7.74333 10.315C7.58667 10.1583 7.49917 9.94667 7.49917 9.72583V6.33417C9.40083 6.72 10.8325 8.40083 10.8325 10.4167C10.8325 11.2658 10.5758 12.0533 10.1392 12.7117H10.14ZM16.6667 14.1667H14.1667C13.7067 14.1667 13.3333 13.7933 13.3333 13.3333C13.3333 12.8733 13.7067 12.5 14.1667 12.5H16.6667C17.1267 12.5 17.5 12.8733 17.5 13.3333C17.5 13.7933 17.1267 14.1667 16.6667 14.1667ZM16.6667 10.8333H14.1667C13.7067 10.8333 13.3333 10.46 13.3333 10C13.3333 9.54 13.7067 9.16667 14.1667 9.16667H16.6667C17.1267 9.16667 17.5 9.54 17.5 10C17.5 10.46 17.1267 10.8333 16.6667 10.8333ZM16.6667 7.5H14.1667C13.7067 7.5 13.3333 7.12667 13.3333 6.66667C13.3333 6.20667 13.7067 5.83333 14.1667 5.83333H16.6667C17.1267 5.83333 17.5 6.20667 17.5 6.66667C17.5 7.12667 17.1267 7.5 16.6667 7.5Z" fill="#9495CB"/>
</svg>
