<svg width="573" height="498" viewBox="0 0 573 498" fill="none" xmlns="http://www.w3.org/2000/svg">
<path d="M275.414 99.74C281.793 93.5319 290.314 91.6473 294.445 95.5303C298.575 99.4133 296.752 107.592 290.37 113.802C287.856 116.316 284.749 118.217 281.309 119.347L253.933 145.325L241.459 132.78L269.771 108.502C270.894 105.193 272.829 102.188 275.414 99.74Z" fill="#FFB6B6"/>
<path d="M187.861 78.2965L216.564 139.19L262.399 115.464L278.803 123.79C278.803 123.79 241.334 183.693 215.679 176.874C190.024 170.055 144.467 108.223 152.675 89.1393C160.883 70.056 187.861 78.2965 187.861 78.2965Z" fill="#896060"/><path d="M320.917 112.67C314.253 106.741 312.051 98.6471 315.998 94.5924C319.944 90.5378 328.543 92.0579 335.208 97.9898C337.904 100.324 339.977 103.243 341.252 106.5L369.153 131.962L356.379 144.228L330.23 117.825C326.74 116.843 323.546 115.075 320.917 112.67Z" fill="#A24F5B"/><path d="M461.46 116.595L407.605 171.425C407.605 171.425 395.512 182.868 375.614 166.366C355.717 149.864 333.596 122.79 333.596 122.79L346.006 109.873L367.989 128.628C367.989 128.628 381.04 133.65 381.947 136.899C382.855 140.149 380.318 141.493 384.395 140.452C388.473 139.41 388.552 137.088 388.808 140.61C389.064 144.133 386.573 148.25 391.284 144.262C395.995 140.275 397.4 142.701 397.4 142.701L431.821 99.0988C431.821 99.0988 454.062 82.2793 460.456 97.3562C466.851 112.433 461.46 116.595 461.46 116.595Z" fill="#C6684A"/><path d="M175.276 484.128L196.205 484.127L206.161 406.926L175.271 406.928L175.276 484.128Z" fill="#FFB6B6"/><path d="M246.982 483.674C247.633 484.724 247.977 488.111 247.977 489.332C247.977 493.083 244.797 496.125 240.874 496.125H176.058C173.382 496.125 171.212 494.05 171.212 491.491V488.91C171.212 488.91 168.006 481.154 174.607 471.595C174.607 471.595 182.812 479.08 195.071 467.356L198.687 461.093L224.857 479.396L239.362 481.103C242.536 481.477 245.349 481.045 246.982 483.674Z" fill="#2F2E41"/><path d="M416.494 127.87H468.362V54.5795H416.494V127.87Z" fill="#2F2E41"/><path d="M456.72 105.523L454.903 84.5312H430.752L425.397 106.771L456.72 105.523Z" fill="#A24F5B"/><path opacity="0.1" d="M456.72 105.523L454.903 84.5312H430.752L425.397 106.771L456.72 105.523Z" fill="black"/><path d="M191.112 82.2043L191.536 55.2092L174.128 44.832L155.199 66.9744L191.112 82.2043Z" fill="#FFB6B6"/><path opacity="0.1" d="M191.113 82.2043L192.24 55.8819L174.128 44.832L180.282 77.4073L191.113 82.2043Z" fill="black"/><path d="M439.025 91.2103C453.605 91.2103 465.425 79.9072 465.425 65.9641C465.425 52.0209 453.605 40.7178 439.025 40.7178C424.444 40.7178 412.625 52.0209 412.625 65.9641C412.625 79.9072 424.444 91.2103 439.025 91.2103Z" fill="#A24F5B"/><path d="M432.365 39.4031C432.365 39.4031 432.365 29.0388 442.429 31.2597C452.492 33.4807 455.589 37.1822 455.589 37.1822C455.589 37.1822 459.46 43.1047 465.653 43.845C471.846 44.5853 477.265 61.6124 476.491 65.3139C475.717 69.0155 471.846 78.6395 477.265 83.0814C482.684 87.5232 490.425 94.186 488.103 100.849C485.78 107.512 478.813 124.539 478.813 124.539C478.813 124.539 498.246 127.255 496.658 138.852C496.658 138.852 487.329 131.942 474.942 131.942C462.556 131.942 464.105 110.452 464.105 110.452C464.105 110.452 463.33 97.1472 461.008 93.4457C458.686 89.7441 461.782 69.0155 450.17 57.9109C438.558 46.8062 432.365 39.4031 432.365 39.4031Z" fill="#2F2E41"/><path d="M435.461 37.1821C435.461 37.1821 420.753 40.1434 415.334 54.2092C409.915 68.2751 412.652 70.8924 412.652 70.8924C412.652 70.8924 411.454 79.3623 404.878 82.3322C398.303 85.3022 403.722 97.8875 403.722 97.8875C403.722 97.8875 402.173 110.473 381.272 114.915C360.37 119.356 407.483 153.419 407.483 153.419C407.483 153.419 404.096 137.342 425.771 136.602C447.447 135.862 421.527 97.8875 421.527 97.8875L419.204 73.4573C419.204 73.4573 423.849 45.3255 437.784 41.624C451.718 37.9224 435.461 37.1821 435.461 37.1821Z" fill="#2F2E41"/><path d="M191.167 63.6097C208.265 63.6097 222.126 50.3546 222.126 34.0036C222.126 17.6526 208.265 4.39746 191.167 4.39746C174.068 4.39746 160.208 17.6526 160.208 34.0036C160.208 50.3546 174.068 63.6097 191.167 63.6097Z" fill="#FFB6B6"/><path d="M233.388 260.71L204.549 448.384H168.365L173.177 341.255L175.709 284.926L168.365 258.113C168.365 258.113 165.017 252.153 162.196 244.929C159.017 236.776 156.506 227.002 160.234 222.367C161.605 220.659 165.172 219.394 170.018 218.453C172.98 217.874 176.426 217.423 180.147 217.074C201.545 215.049 231.982 216.313 231.982 216.313L232.755 240.731L233.184 254.366L233.388 260.71Z" fill="#2F2E41"/><path d="M56.1108 454.227L74.5487 463.698L121.527 400.198L94.3145 386.219L56.1108 454.227Z" fill="#FFB6B6"/><path d="M119.503 486.282C119.557 487.501 118.184 490.641 117.58 491.716C115.723 495.021 111.416 496.261 107.96 494.485L50.8635 465.15C48.5059 463.938 47.6214 461.129 48.8881 458.874L50.1653 456.601C50.1653 456.601 51.1792 448.317 61.7256 442.884C61.7256 442.884 65.2485 453.191 81.8506 448.412L88.1351 444.531L102.13 472.499L114.063 480.568C116.674 482.333 119.366 483.227 119.503 486.282Z" fill="#2F2E41"/><path d="M233.185 254.366L217.879 283.715L173.177 341.255L99.5864 435.987L67.7148 419.614L155.078 278.945L161.887 251.998C161.887 251.998 161.887 249.086 162.197 244.929C162.802 236.702 164.617 223.591 170.019 218.452C170.75 217.753 171.545 217.201 172.41 216.831C174.035 216.132 176.736 216.3 180.148 217.073C194.399 220.329 220.995 234.314 232.756 240.731L233.185 254.366Z" fill="#2F2E41"/><path d="M454.753 486.483L436.758 486.481L428.197 420.104L454.757 420.105L454.753 486.483Z" fill="#A24F5B"/><path d="M393.099 486.093C392.539 486.995 392.243 489.908 392.243 490.957C392.243 494.183 394.978 496.798 398.351 496.798H454.08C456.381 496.798 458.247 495.014 458.247 492.813V490.594C458.247 490.594 461.004 483.926 455.328 475.706C455.328 475.706 448.273 482.142 437.732 472.062L434.624 466.677L412.123 482.414L399.651 483.882C396.922 484.203 394.503 483.832 393.099 486.093Z" fill="#2F2E41"/><path d="M525.644 466.203L509.009 472.766L474.619 414.529L499.171 404.843L525.644 466.203Z" fill="#A24F5B"/><path d="M468.496 488.332C468.338 489.37 469.226 492.171 469.645 493.141C470.931 496.123 474.502 497.542 477.62 496.312L529.136 475.983C531.263 475.144 532.276 472.814 531.398 470.78L530.513 468.729C530.513 468.729 530.402 461.559 521.876 456.031C521.876 456.031 517.923 464.554 504.158 459.081L499.136 455.237L484.613 477.992L473.67 483.898C471.276 485.191 468.891 485.73 468.496 488.332Z" fill="#2F2E41"/><path d="M463.01 258.786L455.666 285.598L457.622 329.107L460.865 401.371L460.956 403.41L461.322 411.535L463.01 449.057H426.827L410.719 344.235L397.987 261.382L399.323 219.193L399.394 216.986C399.394 216.986 464.107 214.296 471.141 223.04C478.176 231.785 463.01 258.786 463.01 258.786Z" fill="#2F2E41"/><path d="M513.353 422.083L507.219 425.117L484.534 436.344L481.214 437.985L461.322 411.536L410.719 344.235L397.987 261.382L399.323 219.193C405.049 217.45 409.628 216.737 411.95 217.773C422.402 222.448 421.903 253.095 421.903 253.095L428.269 280.136L457.622 329.107L513.353 422.083Z" fill="#2F2E41"/><path d="M382.523 430.356C382.057 428.994 378.528 429.594 378.19 428.375C377.852 427.161 381.238 426.142 383.835 422.72C384.304 422.103 387.255 418.214 386.123 416.579C383.978 413.478 369.049 421.2 365.466 416.867C364.68 415.916 364.356 414.283 362.013 411.245C361.081 410.036 360.483 409.453 359.769 409.47C358.755 409.495 358.392 410.707 356.799 412.904C354.41 416.199 353.548 415.785 351.974 418.484C350.805 420.488 350.667 421.769 349.824 421.844C348.632 421.951 348.139 419.456 346.682 419.359C345.195 419.261 343.707 421.726 342.97 423.652C341.586 427.266 342.443 430.029 342.633 432.782C342.839 435.774 342.354 440.154 338.955 445.775L306.89 494.63C313.776 484.67 333.324 457.512 341.199 447.55C343.473 444.675 345.916 441.787 349.676 441.244C353.297 440.721 357.702 442.434 363.851 442.334C364.569 442.322 366.567 442.266 367.053 441.253C367.455 440.415 366.457 439.687 366.82 438.9C367.307 437.844 369.498 438.297 372.483 437.596C374.588 437.101 376.019 436.284 377.249 435.582C377.619 435.37 383.143 432.17 382.523 430.356Z" fill="#2EB96A"/><path d="M298.54 441.763C297.706 441.588 296.996 443.418 296.273 443.225C295.552 443.033 296.006 441.15 294.999 438.944C294.818 438.546 293.673 436.038 292.507 436.098C290.297 436.21 289.953 445.445 286.695 445.877C285.98 445.971 285.049 445.652 282.813 445.875C281.924 445.964 281.452 446.076 281.255 446.416C280.975 446.899 281.493 447.419 282.16 448.801C283.162 450.873 282.701 451.158 283.632 452.676C284.323 453.803 284.941 454.237 284.736 454.654C284.447 455.245 283.024 454.756 282.554 455.412C282.075 456.081 282.911 457.491 283.686 458.393C285.142 460.085 286.807 460.48 288.275 461.185C289.87 461.952 291.978 463.443 293.883 466.661L309.705 495.807C306.58 489.701 298.281 472.69 295.441 466.119C294.621 464.223 293.844 462.243 294.65 460.321C295.426 458.471 297.577 456.897 299.3 453.983C299.501 453.642 300.048 452.688 299.669 452.167C299.355 451.737 298.693 451.995 298.394 451.598C297.993 451.065 298.857 450.167 299.359 448.564C299.712 447.433 299.705 446.526 299.7 445.746C299.698 445.511 299.649 441.995 298.54 441.763Z" fill="#2EB96A"/><path d="M314.325 448.874L314.822 444.483L315.127 444.207C316.538 442.932 317.421 441.58 317.752 440.19C317.805 439.969 317.846 439.745 317.888 439.517C318.053 438.614 318.258 437.492 319.165 436.326C319.673 435.677 321.017 434.209 322.403 434.722C322.777 434.856 323.03 435.087 323.205 435.333C323.249 435.291 323.294 435.248 323.342 435.202C323.941 434.646 324.36 434.442 324.763 434.246C325.073 434.095 325.393 433.939 325.935 433.525C326.173 433.343 326.363 433.18 326.523 433.042C327.009 432.627 327.631 432.141 328.483 432.333C329.387 432.57 329.696 433.393 329.902 433.939C330.269 434.912 330.382 435.581 330.456 436.024C330.483 436.187 330.515 436.369 330.538 436.428C330.736 436.905 333.217 437.028 334.151 437.08C336.25 437.189 338.066 437.283 338.503 438.657C338.816 439.64 338.163 440.713 336.506 441.929C335.989 442.308 335.473 442.569 335.023 442.764C335.3 443.014 335.52 443.354 335.534 443.817C335.564 444.914 334.388 445.755 332.039 446.322C331.455 446.465 330.669 446.654 329.642 446.606C329.158 446.583 328.734 446.512 328.372 446.446C328.318 446.643 328.219 446.848 328.041 447.042C327.518 447.614 326.674 447.76 325.527 447.437C324.262 447.1 323.262 446.641 322.379 446.238C321.609 445.887 320.944 445.587 320.386 445.505C319.349 445.366 318.382 445.978 317.225 446.793L314.325 448.874Z" fill="#2EB96A"/><path d="M322.602 423.864L318.034 424.517L317.678 424.305C316.03 423.323 314.439 422.849 312.948 422.896C312.711 422.903 312.475 422.922 312.234 422.941C311.279 423.018 310.091 423.113 308.682 422.569C307.896 422.264 306.07 421.393 306.238 419.981C306.278 419.601 306.449 419.309 306.653 419.084C306.599 419.054 306.544 419.023 306.485 418.99C305.771 418.578 305.458 418.242 305.158 417.918C304.926 417.67 304.688 417.413 304.131 417.017C303.887 416.844 303.674 416.709 303.494 416.596C302.951 416.251 302.301 415.799 302.28 414.962C302.289 414.067 303.044 413.571 303.544 413.243C304.435 412.657 305.083 412.383 305.513 412.201C305.67 412.135 305.847 412.06 305.901 412.023C306.332 411.719 305.828 409.392 305.643 408.516C305.221 406.546 304.855 404.843 306.135 404.09C307.05 403.551 308.3 403.883 309.951 405.108C310.465 405.489 310.86 405.9 311.171 406.267C311.354 405.948 311.642 405.657 312.107 405.528C313.209 405.221 314.358 406.096 315.528 408.125C315.82 408.629 316.21 409.308 316.423 410.271C316.522 410.724 316.558 411.134 316.583 411.486C316.796 411.485 317.028 411.525 317.27 411.64C317.981 411.979 318.343 412.723 318.307 413.866C318.287 415.122 318.077 416.163 317.893 417.082C317.733 417.884 317.598 418.575 317.656 419.111C317.779 420.106 318.644 420.845 319.762 421.709L322.602 423.864Z" fill="#2EB96A"/><path d="M323.217 410.747L323.715 406.356L324.02 406.08C325.431 404.804 326.314 403.453 326.645 402.062C326.698 401.841 326.738 401.617 326.78 401.39C326.945 400.487 327.15 399.364 328.058 398.199C328.566 397.549 329.91 396.081 331.296 396.594C331.67 396.728 331.922 396.96 332.098 397.206C332.142 397.163 332.187 397.121 332.235 397.075C332.834 396.518 333.252 396.314 333.656 396.118C333.966 395.967 334.286 395.812 334.827 395.397C335.065 395.216 335.255 395.052 335.416 394.915C335.902 394.5 336.524 394.013 337.376 394.206C338.279 394.442 338.589 395.266 338.794 395.811C339.161 396.784 339.274 397.453 339.349 397.897C339.376 398.059 339.407 398.242 339.431 398.301C339.628 398.777 342.11 398.901 343.044 398.952C345.142 399.061 346.959 399.155 347.395 400.53C347.709 401.513 347.056 402.585 345.398 403.802C344.882 404.18 344.366 404.441 343.916 404.636C344.193 404.886 344.413 405.227 344.426 405.69C344.457 406.786 343.281 407.628 340.931 408.195C340.347 408.337 339.562 408.526 338.534 408.478C338.05 408.456 337.626 408.385 337.265 408.318C337.211 408.515 337.112 408.72 336.934 408.915C336.411 409.487 335.566 409.633 334.42 409.31C333.154 408.973 332.154 408.514 331.272 408.111C330.501 407.76 329.837 407.459 329.279 407.377C328.242 407.239 327.275 407.851 326.117 408.666L323.217 410.747Z" fill="#2EB96A"/><path d="M308.406 494.88L307.599 494.117L306.476 494.004C306.481 493.903 306.474 493.667 306.466 493.298C306.423 491.278 306.289 485.13 307.184 475.684C307.809 469.09 308.853 462.397 310.288 455.787C311.726 449.167 313.217 444.241 314.416 440.282C315.32 437.296 316.232 434.463 317.123 431.704C319.501 424.333 321.746 417.371 323.136 409.429C323.448 407.656 324.094 403.966 322.771 399.61C322.003 397.084 320.689 394.706 318.863 392.544L320.63 391.18C322.645 393.568 324.098 396.201 324.951 399.006C326.417 403.836 325.713 407.857 325.375 409.789C323.96 417.871 321.693 424.901 319.292 432.343C318.405 435.092 317.496 437.912 316.595 440.886C315.408 444.808 313.93 449.691 312.511 456.226C311.092 462.757 310.061 469.369 309.443 475.879C308.56 485.206 308.692 491.263 308.736 493.252C308.758 494.315 308.763 494.537 308.406 494.88Z" fill="#2EB96A"/><path d="M314.016 395.043C313.925 395.024 313.834 395.002 313.742 394.976C311.879 394.477 310.384 393.024 309.298 390.66C308.79 389.549 308.67 388.379 308.431 386.046C308.393 385.686 308.227 383.865 308.431 381.453C308.564 379.877 308.741 379.243 309.19 378.746C309.688 378.192 310.359 377.875 311.068 377.716C311.087 377.507 311.159 377.303 311.301 377.11C311.884 376.307 312.861 376.637 313.391 376.809C313.658 376.9 313.99 377.017 314.364 377.077C314.953 377.174 315.304 377.076 315.835 376.928C316.344 376.787 316.977 376.612 317.851 376.626C319.576 376.649 320.853 377.39 321.274 377.634C323.491 378.909 324.257 380.942 325.143 383.296C325.319 383.767 325.903 385.473 326.039 387.669C326.138 389.253 325.92 389.902 325.672 390.366C325.163 391.319 324.384 391.761 322.452 392.691C320.433 393.665 319.42 394.153 318.59 394.403C316.657 394.983 315.444 395.348 314.016 395.043Z" fill="#2EB96A"/><path d="M573 496.972C573 497.408 572.63 497.761 572.174 497.761H0V496.182H572.174C572.63 496.182 573 496.536 573 496.972Z" fill="#1D0404"/><path d="M159.179 61.2632L194.35 77.4072C194.35 77.4072 231.63 183.016 231.63 188.398C231.63 193.779 242.181 197.142 235.851 203.196C229.52 209.25 247.634 214.377 237.874 219.213C228.113 224.049 167.227 250.5 160.456 248.115C141.784 241.536 161.248 217.362 161.248 217.362C161.248 217.362 147.221 206.56 149.331 201.178C151.442 195.797 136.67 92.8786 136.67 92.8786L159.179 61.2632Z" fill="#896060"/><path d="M189.277 41.0946L193.259 48.7106C193.259 48.7106 197.241 35.0019 203.612 31.9555C209.983 28.9092 210.779 24.3396 210.779 24.3396C210.779 24.3396 218.743 34.2403 224.318 31.9555C229.893 29.6708 232.282 28.1476 225.911 19.0085C219.54 9.86939 221.132 14.4389 221.132 14.4389C221.132 14.4389 215.558 6.82302 216.354 9.10779C217.15 11.3926 211.576 3.01505 211.576 5.29983C211.576 7.5846 207.594 0.730271 207.594 3.01505C207.594 5.29983 190.869 -2.31609 193.259 0.73028C195.648 3.77665 178.923 -5.36245 170.959 6.82302C162.996 19.0085 151.953 16.755 155.881 24.3553C159.81 31.9555 158.217 52.5185 158.217 52.5185H169.201C169.201 52.5185 180.516 31.9555 189.277 41.0946Z" fill="#2F2E41"/><path d="M423.661 105.659L424.305 105.485L456.018 96.9146L481.341 129.875L464.459 198.488L470.79 226.067C470.79 226.067 419.441 213.286 399.042 224.049C399.042 224.049 397.635 217.915 399.042 214.928C400.449 211.941 402.559 199.51 400.449 193.954C398.338 188.398 404.669 162.163 404.669 162.163C404.669 162.163 402.559 144.674 411.703 135.929C420.847 127.185 423.661 105.659 423.661 105.659Z" fill="#C6684A"/><path d="M394.86 229.552L283.425 176.593C282.87 176.329 282.386 175.966 281.985 175.515L264.597 155.918C263.444 154.618 263.195 152.784 263.962 151.246L296.565 85.8325C297.136 84.6862 298.199 83.8398 299.482 83.51C300.766 83.1809 302.129 83.4039 303.225 84.1222L381.812 135.674C383.426 136.732 384.147 138.65 383.606 140.448L367.65 193.547C367.214 195 367.77 196.584 369.034 197.491L400.598 220.129C402.298 221.349 402.886 223.572 401.995 225.417L400.997 227.486C400.479 228.559 399.551 229.366 398.385 229.759C397.891 229.926 397.382 230.009 396.874 230.009C396.184 230.008 395.498 229.856 394.86 229.552Z" fill="#C6684A"/><path d="M393.971 216.663L362.95 191.983C362.683 191.768 362.472 191.505 362.324 191.216C362.043 190.671 361.987 190.019 362.198 189.42L379.874 139.959C380.332 138.68 379.839 137.254 378.671 136.488L305.024 88.2707C304.272 87.7729 303.329 87.6182 302.443 87.8402C301.55 88.0622 300.811 88.6407 300.403 89.4277L269.355 149.719C268.883 150.627 268.918 151.67 269.439 152.537C269.502 152.659 269.58 152.773 269.671 152.881L285.287 172.59C285.589 172.966 285.983 173.276 286.426 173.484L390.573 221.708C391.009 221.91 391.481 222.011 391.952 222.011C392.768 222.011 393.584 221.708 394.189 221.123C394.259 221.049 394.329 220.982 394.4 220.901C394.892 220.329 395.145 219.596 395.11 218.849C395.068 218.002 394.653 217.208 393.971 216.663Z" fill="#F2F2F2"/><path d="M281.571 146.02C281.829 146.02 282.077 145.884 282.2 145.649L307.446 97.687C307.62 97.3549 307.481 96.9506 307.134 96.7838C306.786 96.6159 306.364 96.7503 306.189 97.082L280.944 145.044C280.769 145.377 280.909 145.781 281.256 145.948C281.358 145.997 281.465 146.02 281.571 146.02Z" fill="#C6684A"/><path d="M294.937 154.092C295.194 154.092 295.442 153.956 295.566 153.721L320.811 105.759C320.986 105.427 320.846 105.022 320.499 104.856C320.151 104.687 319.729 104.822 319.554 105.154L294.309 153.116C294.134 153.448 294.274 153.853 294.621 154.02C294.723 154.069 294.831 154.092 294.937 154.092Z" fill="#C6684A"/><path d="M306.191 160.818C306.449 160.818 306.696 160.683 306.82 160.448L332.065 112.485C332.24 112.153 332.1 111.749 331.753 111.582C331.405 111.414 330.984 111.549 330.809 111.88L305.564 159.843C305.389 160.175 305.529 160.579 305.875 160.746C305.977 160.795 306.085 160.818 306.191 160.818Z" fill="#C6684A"/><path d="M266.347 154.321C275.075 151.855 283.481 154.163 285.122 159.476C286.762 164.788 281.016 171.092 272.284 173.558C268.81 174.589 265.128 174.809 261.547 174.2L224.426 184.202L219.889 167.443L256.965 159.362C259.627 156.99 262.844 155.261 266.347 154.321Z" fill="#FFB6B6"/><path d="M200.689 94.9284L194.871 161.491L246.987 162.027L257.101 176.92C257.101 176.92 193.934 211.897 174.966 194.025C155.999 176.153 147.56 100.946 164.423 88.0731C181.287 75.1999 200.689 94.9284 200.689 94.9284Z" fill="#896060"/><path d="M371.412 215.11C362.336 214.457 355.332 209.449 355.768 203.925C356.204 198.402 363.914 194.456 372.993 195.111C376.623 195.325 380.147 196.367 383.27 198.151L421.688 201.385L419.717 218.593L382.053 213.578C378.685 214.894 375.036 215.42 371.412 215.11Z" fill="#A24F5B"/><path d="M483.767 134.273L477.489 209.258C477.489 209.258 475.512 225.417 449.195 224.404C422.878 223.391 387.923 215.447 387.923 215.447L389.186 197.947L418.602 199.475C418.602 199.475 432.076 195.607 434.906 197.604C437.736 199.601 436.632 202.165 439.138 198.917C441.643 195.67 440.189 193.808 442.688 196.407C445.188 199.006 445.93 203.71 447.007 197.782C448.083 191.854 450.765 192.91 450.765 192.91L449.191 138.3C449.191 138.3 455.586 111.882 470.424 119.843C485.261 127.804 483.767 134.273 483.767 134.273Z" fill="#C6684A"/></svg>