<svg width="525" height="291" viewBox="0 0 525 291" fill="none" xmlns="http://www.w3.org/2000/svg">
<path d="M227.075 24V6.5H231.125V20.7H239.9V24H227.075ZM241.888 24V10.55H245.788V24H241.888ZM243.838 8.675C243.121 8.675 242.538 8.46667 242.088 8.05C241.638 7.63333 241.413 7.11667 241.413 6.5C241.413 5.88333 241.638 5.36667 242.088 4.95C242.538 4.53333 243.121 4.325 243.838 4.325C244.555 4.325 245.138 4.525 245.588 4.925C246.038 5.30833 246.263 5.80833 246.263 6.425C246.263 7.075 246.038 7.61667 245.588 8.05C245.155 8.46667 244.571 8.675 243.838 8.675ZM253.057 24L247.407 10.55H251.432L256.132 22.125H254.132L259.007 10.55H262.757L257.082 24H253.057ZM264.349 24V10.55H268.074V14.35L267.549 13.25C267.949 12.3 268.59 11.5833 269.474 11.1C270.357 10.6 271.432 10.35 272.699 10.35V13.95C272.532 13.9333 272.382 13.925 272.249 13.925C272.115 13.9083 271.974 13.9 271.824 13.9C270.757 13.9 269.89 14.2083 269.224 14.825C268.574 15.425 268.249 16.3667 268.249 17.65V24H264.349ZM281.32 24.2C279.887 24.2 278.612 23.9 277.495 23.3C276.395 22.7 275.52 21.8833 274.87 20.85C274.237 19.8 273.92 18.6083 273.92 17.275C273.92 15.925 274.237 14.7333 274.87 13.7C275.52 12.65 276.395 11.8333 277.495 11.25C278.612 10.65 279.887 10.35 281.32 10.35C282.737 10.35 284.003 10.65 285.12 11.25C286.237 11.8333 287.112 12.6417 287.745 13.675C288.378 14.7083 288.695 15.9083 288.695 17.275C288.695 18.6083 288.378 19.8 287.745 20.85C287.112 21.8833 286.237 22.7 285.12 23.3C284.003 23.9 282.737 24.2 281.32 24.2ZM281.32 21C281.97 21 282.553 20.85 283.07 20.55C283.587 20.25 283.995 19.825 284.295 19.275C284.595 18.7083 284.745 18.0417 284.745 17.275C284.745 16.4917 284.595 15.825 284.295 15.275C283.995 14.725 283.587 14.3 283.07 14C282.553 13.7 281.97 13.55 281.32 13.55C280.67 13.55 280.087 13.7 279.57 14C279.053 14.3 278.637 14.725 278.32 15.275C278.02 15.825 277.87 16.4917 277.87 17.275C277.87 18.0417 278.02 18.7083 278.32 19.275C278.637 19.825 279.053 20.25 279.57 20.55C280.087 20.85 280.67 21 281.32 21ZM295.827 24.2C294.677 24.2 293.569 24.0667 292.502 23.8C291.452 23.5167 290.619 23.1667 290.002 22.75L291.302 19.95C291.919 20.3333 292.644 20.65 293.477 20.9C294.327 21.1333 295.16 21.25 295.977 21.25C296.877 21.25 297.51 21.1417 297.877 20.925C298.26 20.7083 298.452 20.4083 298.452 20.025C298.452 19.7083 298.302 19.475 298.002 19.325C297.719 19.1583 297.335 19.0333 296.852 18.95C296.369 18.8667 295.835 18.7833 295.252 18.7C294.685 18.6167 294.11 18.5083 293.527 18.375C292.944 18.225 292.41 18.0083 291.927 17.725C291.444 17.4417 291.052 17.0583 290.752 16.575C290.469 16.0917 290.327 15.4667 290.327 14.7C290.327 13.85 290.569 13.1 291.052 12.45C291.552 11.8 292.269 11.2917 293.202 10.925C294.135 10.5417 295.252 10.35 296.552 10.35C297.469 10.35 298.402 10.45 299.352 10.65C300.302 10.85 301.094 11.1417 301.727 11.525L300.427 14.3C299.777 13.9167 299.119 13.6583 298.452 13.525C297.802 13.375 297.169 13.3 296.552 13.3C295.685 13.3 295.052 13.4167 294.652 13.65C294.252 13.8833 294.052 14.1833 294.052 14.55C294.052 14.8833 294.194 15.1333 294.477 15.3C294.777 15.4667 295.169 15.6 295.652 15.7C296.135 15.8 296.66 15.8917 297.227 15.975C297.81 16.0417 298.394 16.15 298.977 16.3C299.56 16.45 300.085 16.6667 300.552 16.95C301.035 17.2167 301.427 17.5917 301.727 18.075C302.027 18.5417 302.177 19.1583 302.177 19.925C302.177 20.7583 301.927 21.5 301.427 22.15C300.927 22.7833 300.202 23.2833 299.252 23.65C298.319 24.0167 297.177 24.2 295.827 24.2ZM328.888 10.35C329.955 10.35 330.897 10.5667 331.713 11C332.547 11.4167 333.197 12.0667 333.663 12.95C334.147 13.8167 334.388 14.9333 334.388 16.3V24H330.488V16.9C330.488 15.8167 330.263 15.0167 329.813 14.5C329.363 13.9833 328.73 13.725 327.913 13.725C327.347 13.725 326.838 13.8583 326.388 14.125C325.938 14.375 325.588 14.7583 325.338 15.275C325.088 15.7917 324.963 16.45 324.963 17.25V24H321.063V16.9C321.063 15.8167 320.838 15.0167 320.388 14.5C319.955 13.9833 319.33 13.725 318.513 13.725C317.947 13.725 317.438 13.8583 316.988 14.125C316.538 14.375 316.188 14.7583 315.938 15.275C315.688 15.7917 315.563 16.45 315.563 17.25V24H311.663V10.55H315.388V14.225L314.688 13.15C315.155 12.2333 315.813 11.5417 316.663 11.075C317.53 10.5917 318.513 10.35 319.613 10.35C320.847 10.35 321.922 10.6667 322.838 11.3C323.772 11.9167 324.388 12.8667 324.688 14.15L323.313 13.775C323.763 12.725 324.48 11.8917 325.463 11.275C326.463 10.6583 327.605 10.35 328.888 10.35ZM346.134 24V21.375L345.884 20.8V16.1C345.884 15.2667 345.626 14.6167 345.109 14.15C344.609 13.6833 343.834 13.45 342.784 13.45C342.067 13.45 341.359 13.5667 340.659 13.8C339.976 14.0167 339.392 14.3167 338.909 14.7L337.509 11.975C338.242 11.4583 339.126 11.0583 340.159 10.775C341.192 10.4917 342.242 10.35 343.309 10.35C345.359 10.35 346.951 10.8333 348.084 11.8C349.217 12.7667 349.784 14.275 349.784 16.325V24H346.134ZM342.034 24.2C340.984 24.2 340.084 24.025 339.334 23.675C338.584 23.3083 338.009 22.8167 337.609 22.2C337.209 21.5833 337.009 20.8917 337.009 20.125C337.009 19.325 337.201 18.625 337.584 18.025C337.984 17.425 338.609 16.9583 339.459 16.625C340.309 16.275 341.417 16.1 342.784 16.1H346.359V18.375H343.209C342.292 18.375 341.659 18.525 341.309 18.825C340.976 19.125 340.809 19.5 340.809 19.95C340.809 20.45 341.001 20.85 341.384 21.15C341.784 21.4333 342.326 21.575 343.009 21.575C343.659 21.575 344.242 21.425 344.759 21.125C345.276 20.8083 345.651 20.35 345.884 19.75L346.484 21.55C346.201 22.4167 345.684 23.075 344.934 23.525C344.184 23.975 343.217 24.2 342.034 24.2ZM353.314 24V10.55H357.214V24H353.314ZM355.264 8.675C354.547 8.675 353.964 8.46667 353.514 8.05C353.064 7.63333 352.839 7.11667 352.839 6.5C352.839 5.88333 353.064 5.36667 353.514 4.95C353.964 4.53333 354.547 4.325 355.264 4.325C355.98 4.325 356.564 4.525 357.014 4.925C357.464 5.30833 357.689 5.80833 357.689 6.425C357.689 7.075 357.464 7.61667 357.014 8.05C356.58 8.46667 355.997 8.675 355.264 8.675ZM365.358 24.2C364.208 24.2 363.1 24.0667 362.033 23.8C360.983 23.5167 360.15 23.1667 359.533 22.75L360.833 19.95C361.45 20.3333 362.175 20.65 363.008 20.9C363.858 21.1333 364.692 21.25 365.508 21.25C366.408 21.25 367.042 21.1417 367.408 20.925C367.792 20.7083 367.983 20.4083 367.983 20.025C367.983 19.7083 367.833 19.475 367.533 19.325C367.25 19.1583 366.867 19.0333 366.383 18.95C365.9 18.8667 365.367 18.7833 364.783 18.7C364.217 18.6167 363.642 18.5083 363.058 18.375C362.475 18.225 361.942 18.0083 361.458 17.725C360.975 17.4417 360.583 17.0583 360.283 16.575C360 16.0917 359.858 15.4667 359.858 14.7C359.858 13.85 360.1 13.1 360.583 12.45C361.083 11.8 361.8 11.2917 362.733 10.925C363.667 10.5417 364.783 10.35 366.083 10.35C367 10.35 367.933 10.45 368.883 10.65C369.833 10.85 370.625 11.1417 371.258 11.525L369.958 14.3C369.308 13.9167 368.65 13.6583 367.983 13.525C367.333 13.375 366.7 13.3 366.083 13.3C365.217 13.3 364.583 13.4167 364.183 13.65C363.783 13.8833 363.583 14.1833 363.583 14.55C363.583 14.8833 363.725 15.1333 364.008 15.3C364.308 15.4667 364.7 15.6 365.183 15.7C365.667 15.8 366.192 15.8917 366.758 15.975C367.342 16.0417 367.925 16.15 368.508 16.3C369.092 16.45 369.617 16.6667 370.083 16.95C370.567 17.2167 370.958 17.5917 371.258 18.075C371.558 18.5417 371.708 19.1583 371.708 19.925C371.708 20.7583 371.458 21.5 370.958 22.15C370.458 22.7833 369.733 23.2833 368.783 23.65C367.85 24.0167 366.708 24.2 365.358 24.2ZM389.445 24V21.375L389.195 20.8V16.1C389.195 15.2667 388.936 14.6167 388.42 14.15C387.92 13.6833 387.145 13.45 386.095 13.45C385.378 13.45 384.67 13.5667 383.97 13.8C383.286 14.0167 382.703 14.3167 382.22 14.7L380.82 11.975C381.553 11.4583 382.436 11.0583 383.47 10.775C384.503 10.4917 385.553 10.35 386.62 10.35C388.67 10.35 390.261 10.8333 391.395 11.8C392.528 12.7667 393.095 14.275 393.095 16.325V24H389.445ZM385.345 24.2C384.295 24.2 383.395 24.025 382.645 23.675C381.895 23.3083 381.32 22.8167 380.92 22.2C380.52 21.5833 380.32 20.8917 380.32 20.125C380.32 19.325 380.511 18.625 380.895 18.025C381.295 17.425 381.92 16.9583 382.77 16.625C383.62 16.275 384.728 16.1 386.095 16.1H389.67V18.375H386.52C385.603 18.375 384.97 18.525 384.62 18.825C384.286 19.125 384.12 19.5 384.12 19.95C384.12 20.45 384.311 20.85 384.695 21.15C385.095 21.4333 385.636 21.575 386.32 21.575C386.97 21.575 387.553 21.425 388.07 21.125C388.586 20.8083 388.961 20.35 389.195 19.75L389.795 21.55C389.511 22.4167 388.995 23.075 388.245 23.525C387.495 23.975 386.528 24.2 385.345 24.2ZM396.624 24V5.45H400.524V24H396.624ZM409.819 24.2C408.702 24.2 407.702 23.9833 406.819 23.55C405.952 23.1167 405.277 22.4583 404.794 21.575C404.31 20.675 404.069 19.5333 404.069 18.15V10.55H407.969V17.575C407.969 18.6917 408.202 19.5167 408.669 20.05C409.152 20.5667 409.827 20.825 410.694 20.825C411.294 20.825 411.827 20.7 412.294 20.45C412.76 20.1833 413.127 19.7833 413.394 19.25C413.66 18.7 413.794 18.0167 413.794 17.2V10.55H417.694V24H413.994V20.3L414.669 21.375C414.219 22.3083 413.552 23.0167 412.669 23.5C411.802 23.9667 410.852 24.2 409.819 24.2ZM427.632 29.05C426.365 29.05 425.14 28.8917 423.957 28.575C422.79 28.275 421.815 27.8167 421.032 27.2L422.582 24.4C423.149 24.8667 423.865 25.2333 424.732 25.5C425.615 25.7833 426.482 25.925 427.332 25.925C428.715 25.925 429.715 25.6167 430.332 25C430.965 24.3833 431.282 23.4667 431.282 22.25V20.225L431.532 16.85L431.482 13.45V10.55H435.182V21.75C435.182 24.25 434.532 26.0917 433.232 27.275C431.932 28.4583 430.065 29.05 427.632 29.05ZM427.032 23.35C425.782 23.35 424.649 23.0833 423.632 22.55C422.632 22 421.824 21.2417 421.207 20.275C420.607 19.2917 420.307 18.15 420.307 16.85C420.307 15.5333 420.607 14.3917 421.207 13.425C421.824 12.4417 422.632 11.6833 423.632 11.15C424.649 10.6167 425.782 10.35 427.032 10.35C428.165 10.35 429.165 10.5833 430.032 11.05C430.899 11.5 431.574 12.2083 432.057 13.175C432.54 14.125 432.782 15.35 432.782 16.85C432.782 18.3333 432.54 19.5583 432.057 20.525C431.574 21.475 430.899 22.1833 430.032 22.65C429.165 23.1167 428.165 23.35 427.032 23.35ZM427.807 20.15C428.49 20.15 429.099 20.0167 429.632 19.75C430.165 19.4667 430.582 19.075 430.882 18.575C431.182 18.075 431.332 17.5 431.332 16.85C431.332 16.1833 431.182 15.6083 430.882 15.125C430.582 14.625 430.165 14.2417 429.632 13.975C429.099 13.6917 428.49 13.55 427.807 13.55C427.124 13.55 426.515 13.6917 425.982 13.975C425.449 14.2417 425.024 14.625 424.707 15.125C424.407 15.6083 424.257 16.1833 424.257 16.85C424.257 17.5 424.407 18.075 424.707 18.575C425.024 19.075 425.449 19.4667 425.982 19.75C426.515 20.0167 427.124 20.15 427.807 20.15ZM447.062 24V21.375L446.812 20.8V16.1C446.812 15.2667 446.553 14.6167 446.037 14.15C445.537 13.6833 444.762 13.45 443.712 13.45C442.995 13.45 442.287 13.5667 441.587 13.8C440.903 14.0167 440.32 14.3167 439.837 14.7L438.437 11.975C439.17 11.4583 440.053 11.0583 441.087 10.775C442.12 10.4917 443.17 10.35 444.237 10.35C446.287 10.35 447.878 10.8333 449.012 11.8C450.145 12.7667 450.712 14.275 450.712 16.325V24H447.062ZM442.962 24.2C441.912 24.2 441.012 24.025 440.262 23.675C439.512 23.3083 438.937 22.8167 438.537 22.2C438.137 21.5833 437.937 20.8917 437.937 20.125C437.937 19.325 438.128 18.625 438.512 18.025C438.912 17.425 439.537 16.9583 440.387 16.625C441.237 16.275 442.345 16.1 443.712 16.1H447.287V18.375H444.137C443.22 18.375 442.587 18.525 442.237 18.825C441.903 19.125 441.737 19.5 441.737 19.95C441.737 20.45 441.928 20.85 442.312 21.15C442.712 21.4333 443.253 21.575 443.937 21.575C444.587 21.575 445.17 21.425 445.687 21.125C446.203 20.8083 446.578 20.35 446.812 19.75L447.412 21.55C447.128 22.4167 446.612 23.075 445.862 23.525C445.112 23.975 444.145 24.2 442.962 24.2ZM460.114 24.2C458.847 24.2 457.706 23.9167 456.689 23.35C455.672 22.7667 454.864 21.9583 454.264 20.925C453.681 19.8917 453.389 18.675 453.389 17.275C453.389 15.8583 453.681 14.6333 454.264 13.6C454.864 12.5667 455.672 11.7667 456.689 11.2C457.706 10.6333 458.847 10.35 460.114 10.35C461.247 10.35 462.239 10.6 463.089 11.1C463.939 11.6 464.597 12.3583 465.064 13.375C465.531 14.3917 465.764 15.6917 465.764 17.275C465.764 18.8417 465.539 20.1417 465.089 21.175C464.639 22.1917 463.989 22.95 463.139 23.45C462.306 23.95 461.297 24.2 460.114 24.2ZM460.789 21C461.422 21 461.997 20.85 462.514 20.55C463.031 20.25 463.439 19.825 463.739 19.275C464.056 18.7083 464.214 18.0417 464.214 17.275C464.214 16.4917 464.056 15.825 463.739 15.275C463.439 14.725 463.031 14.3 462.514 14C461.997 13.7 461.422 13.55 460.789 13.55C460.139 13.55 459.556 13.7 459.039 14C458.522 14.3 458.106 14.725 457.789 15.275C457.489 15.825 457.339 16.4917 457.339 17.275C457.339 18.0417 457.489 18.7083 457.789 19.275C458.106 19.825 458.522 20.25 459.039 20.55C459.556 20.85 460.139 21 460.789 21ZM464.314 24V21.25L464.389 17.25L464.139 13.275V5.45H468.039V24H464.314ZM478.049 24.2C476.615 24.2 475.34 23.9 474.224 23.3C473.124 22.7 472.249 21.8833 471.599 20.85C470.965 19.8 470.649 18.6083 470.649 17.275C470.649 15.925 470.965 14.7333 471.599 13.7C472.249 12.65 473.124 11.8333 474.224 11.25C475.34 10.65 476.615 10.35 478.049 10.35C479.465 10.35 480.732 10.65 481.849 11.25C482.965 11.8333 483.84 12.6417 484.474 13.675C485.107 14.7083 485.424 15.9083 485.424 17.275C485.424 18.6083 485.107 19.8 484.474 20.85C483.84 21.8833 482.965 22.7 481.849 23.3C480.732 23.9 479.465 24.2 478.049 24.2ZM478.049 21C478.699 21 479.282 20.85 479.799 20.55C480.315 20.25 480.724 19.825 481.024 19.275C481.324 18.7083 481.474 18.0417 481.474 17.275C481.474 16.4917 481.324 15.825 481.024 15.275C480.724 14.725 480.315 14.3 479.799 14C479.282 13.7 478.699 13.55 478.049 13.55C477.399 13.55 476.815 13.7 476.299 14C475.782 14.3 475.365 14.725 475.049 15.275C474.749 15.825 474.599 16.4917 474.599 17.275C474.599 18.0417 474.749 18.7083 475.049 19.275C475.365 19.825 475.782 20.25 476.299 20.55C476.815 20.85 477.399 21 478.049 21ZM492.555 24.2C491.405 24.2 490.297 24.0667 489.23 23.8C488.18 23.5167 487.347 23.1667 486.73 22.75L488.03 19.95C488.647 20.3333 489.372 20.65 490.205 20.9C491.055 21.1333 491.889 21.25 492.705 21.25C493.605 21.25 494.239 21.1417 494.605 20.925C494.989 20.7083 495.18 20.4083 495.18 20.025C495.18 19.7083 495.03 19.475 494.73 19.325C494.447 19.1583 494.064 19.0333 493.58 18.95C493.097 18.8667 492.564 18.7833 491.98 18.7C491.414 18.6167 490.839 18.5083 490.255 18.375C489.672 18.225 489.139 18.0083 488.655 17.725C488.172 17.4417 487.78 17.0583 487.48 16.575C487.197 16.0917 487.055 15.4667 487.055 14.7C487.055 13.85 487.297 13.1 487.78 12.45C488.28 11.8 488.997 11.2917 489.93 10.925C490.864 10.5417 491.98 10.35 493.28 10.35C494.197 10.35 495.13 10.45 496.08 10.65C497.03 10.85 497.822 11.1417 498.455 11.525L497.155 14.3C496.505 13.9167 495.847 13.6583 495.18 13.525C494.53 13.375 493.897 13.3 493.28 13.3C492.414 13.3 491.78 13.4167 491.38 13.65C490.98 13.8833 490.78 14.1833 490.78 14.55C490.78 14.8833 490.922 15.1333 491.205 15.3C491.505 15.4667 491.897 15.6 492.38 15.7C492.864 15.8 493.389 15.8917 493.955 15.975C494.539 16.0417 495.122 16.15 495.705 16.3C496.289 16.45 496.814 16.6667 497.28 16.95C497.764 17.2167 498.155 17.5917 498.455 18.075C498.755 18.5417 498.905 19.1583 498.905 19.925C498.905 20.7583 498.655 21.5 498.155 22.15C497.655 22.7833 496.93 23.2833 495.98 23.65C495.047 24.0167 493.905 24.2 492.555 24.2Z" fill="black"/>
<path d="M326.845 53.7217C317.816 57.7441 309.571 63.1734 302.455 69.7816L335.404 101.361C338.758 98.2463 342.645 95.6869 346.902 93.7907L326.845 53.7217Z" fill="#18F514"/>
<path d="M303.33 68.9801C294.902 76.5942 288.147 85.6997 283.449 95.7769C278.752 105.854 276.204 116.705 275.951 127.711L322.91 128.67C323.029 123.481 324.23 118.366 326.445 113.616C328.659 108.865 331.844 104.573 335.817 100.984L303.33 68.9801Z" fill="#2C5CD0"/>
<path d="M286.719 169.559C279.037 156.227 275.336 141.178 276.009 126.017L322.937 127.871C322.62 135.018 324.365 142.112 327.986 148.397L286.719 169.559Z" fill="#00926F"/>
<path d="M453.538 129.524C453.538 118.529 451.243 107.641 446.783 97.4827C442.322 87.3243 435.785 78.0942 427.544 70.3193C419.303 62.5444 409.519 56.3771 398.751 52.1693C387.983 47.9616 376.443 45.7959 364.788 45.7959L364.788 90.0545C370.282 90.0545 375.722 91.0754 380.798 93.059C385.874 95.0425 390.486 97.9498 394.371 101.615C398.256 105.28 401.338 109.631 403.44 114.42C405.543 119.208 406.625 124.341 406.625 129.524H453.538Z" fill="#44BEF2"/>
<path d="M453.538 129.524C453.538 115.42 449.762 101.544 442.559 89.185C435.356 76.8257 424.961 66.3833 412.337 58.8267C399.714 51.2702 385.272 46.8446 370.351 45.9605C355.43 45.0765 340.515 47.7627 326.988 53.7698L346.969 93.8134C353.345 90.9817 360.377 89.7154 367.41 90.1321C374.444 90.5489 381.252 92.6351 387.203 96.1973C393.154 99.7594 398.054 104.682 401.449 110.508C404.845 116.334 406.625 122.875 406.625 129.524H453.538Z" fill="#009037"/>
<path d="M453.538 129.524C453.538 148.323 446.832 166.575 434.5 181.342C422.168 196.108 404.927 206.529 385.554 210.928C366.18 215.327 345.801 213.446 327.698 205.59C309.595 197.734 294.821 184.359 285.755 167.618L327.532 147.482C331.805 155.373 338.77 161.678 347.304 165.382C355.838 169.085 365.444 169.971 374.577 167.898C383.71 165.824 391.837 160.912 397.65 153.951C403.464 146.99 406.625 138.386 406.625 129.524H453.538Z" fill="#5AE4A8"/>
<path d="M326.846 53.7218C317.817 57.7442 309.571 63.1735 302.455 69.7816L335.404 101.361C338.759 98.2463 342.646 95.6869 346.902 93.7907L326.846 53.7218Z" fill="#18F514"/>
<path d="M303.33 68.9801C289.349 81.6115 280.123 98.2047 277.054 116.236C273.986 134.268 277.243 152.752 286.331 168.877L327.803 148.075C323.519 140.474 321.984 131.76 323.43 123.26C324.877 114.76 329.226 106.938 335.817 100.984L303.33 68.9801Z" fill="#2C5CD0"/>
<path d="M286.719 169.56C279.038 156.228 275.336 141.179 276.009 126.017L322.938 127.872C322.62 135.019 324.365 142.113 327.987 148.398L286.719 169.56Z" fill="#00926F"/>
<path d="M453.538 129.524C453.538 148.323 446.833 166.575 434.5 181.341C422.168 196.108 404.928 206.529 385.554 210.928C366.181 215.327 345.802 213.446 327.699 205.59C309.595 197.734 294.821 184.359 285.755 167.618L327.532 147.482C331.806 155.373 338.77 161.678 347.304 165.382C355.838 169.085 365.444 169.971 374.577 167.898C383.71 165.824 391.837 160.912 397.651 153.951C403.464 146.99 406.625 138.386 406.625 129.524H453.538Z" fill="#5AE4A8"/>
<path d="M326.846 53.7218C317.817 57.7442 309.571 63.1735 302.455 69.7816L335.404 101.361C338.759 98.2463 342.646 95.6869 346.902 93.7907L326.846 53.7218Z" fill="#18F514"/>
<path d="M453.538 129.524C453.538 148.323 446.833 166.575 434.5 181.341C422.168 196.108 404.928 206.529 385.554 210.928C366.181 215.327 345.802 213.446 327.699 205.59C309.595 197.734 294.821 184.359 285.755 167.618L327.532 147.482C331.806 155.373 338.77 161.678 347.304 165.382C355.838 169.085 365.444 169.971 374.577 167.898C383.71 165.824 391.837 160.912 397.651 153.951C403.464 146.99 406.625 138.386 406.625 129.524H453.538Z" fill="#00926F"/>
<path d="M2.482 104.404V95.3043H3.444V103.572H8.54V104.404H2.482ZM9.94227 104.404V97.5793H10.8653V104.404H9.94227ZM10.4103 96.0713C10.2196 96.0713 10.0593 96.0063 9.92927 95.8763C9.79927 95.7463 9.73427 95.5903 9.73427 95.4083C9.73427 95.2263 9.79927 95.0746 9.92927 94.9533C10.0593 94.8233 10.2196 94.7583 10.4103 94.7583C10.6009 94.7583 10.7613 94.819 10.8913 94.9403C11.0213 95.0616 11.0863 95.2133 11.0863 95.3953C11.0863 95.586 11.0213 95.7463 10.8913 95.8763C10.7699 96.0063 10.6096 96.0713 10.4103 96.0713ZM15.1885 104.404L12.1595 97.5793H13.1215L15.9035 103.91H15.4485L18.2695 97.5793H19.1795L16.1375 104.404H15.1885ZM20.4794 104.404V97.5793H21.3634V99.4383L21.2724 99.1133C21.463 98.5933 21.7837 98.199 22.2344 97.9303C22.685 97.653 23.244 97.5143 23.9114 97.5143V98.4113C23.8767 98.4113 23.842 98.4113 23.8074 98.4113C23.7727 98.4026 23.738 98.3983 23.7034 98.3983C22.984 98.3983 22.4207 98.6193 22.0134 99.0613C21.606 99.4946 21.4024 100.114 21.4024 100.92V104.404H20.4794ZM28.3141 104.469C27.6555 104.469 27.0618 104.322 26.5331 104.027C26.0131 103.724 25.6015 103.312 25.2981 102.792C24.9948 102.264 24.8431 101.661 24.8431 100.985C24.8431 100.301 24.9948 99.6983 25.2981 99.1783C25.6015 98.6583 26.0131 98.251 26.5331 97.9563C27.0531 97.6616 27.6468 97.5143 28.3141 97.5143C28.9901 97.5143 29.5881 97.6616 30.1081 97.9563C30.6368 98.251 31.0485 98.6583 31.3431 99.1783C31.6465 99.6983 31.7981 100.301 31.7981 100.985C31.7981 101.661 31.6465 102.264 31.3431 102.792C31.0485 103.312 30.6368 103.724 30.1081 104.027C29.5795 104.322 28.9815 104.469 28.3141 104.469ZM28.3141 103.65C28.8081 103.65 29.2458 103.542 29.6271 103.325C30.0085 103.1 30.3075 102.788 30.5241 102.389C30.7495 101.982 30.8621 101.514 30.8621 100.985C30.8621 100.448 30.7495 99.98 30.5241 99.5813C30.3075 99.1826 30.0085 98.875 29.6271 98.6583C29.2458 98.433 28.8125 98.3203 28.3271 98.3203C27.8418 98.3203 27.4085 98.433 27.0271 98.6583C26.6458 98.875 26.3425 99.1826 26.1171 99.5813C25.8918 99.98 25.7791 100.448 25.7791 100.985C25.7791 101.514 25.8918 101.982 26.1171 102.389C26.3425 102.788 26.6458 103.1 27.0271 103.325C27.4085 103.542 27.8375 103.65 28.3141 103.65ZM36.3049 104.404V103.741L40.0879 100.036C40.4345 99.6983 40.6945 99.4036 40.8679 99.1523C41.0412 98.8923 41.1582 98.6496 41.2189 98.4243C41.2795 98.199 41.3099 97.9866 41.3099 97.7873C41.3099 97.2586 41.1279 96.8426 40.7639 96.5393C40.4085 96.236 39.8799 96.0843 39.1779 96.0843C38.6405 96.0843 38.1639 96.1666 37.7479 96.3313C37.3405 96.496 36.9895 96.7516 36.6949 97.0983L36.0319 96.5263C36.3872 96.1103 36.8422 95.7896 37.3969 95.5643C37.9515 95.339 38.5712 95.2263 39.2559 95.2263C39.8712 95.2263 40.4042 95.326 40.8549 95.5253C41.3055 95.716 41.6522 95.9976 41.8949 96.3703C42.1462 96.743 42.2719 97.1806 42.2719 97.6833C42.2719 97.978 42.2285 98.2683 42.1419 98.5543C42.0639 98.8403 41.9165 99.1436 41.6999 99.4643C41.4919 99.7763 41.1842 100.132 40.7769 100.53L37.3059 103.936L37.0459 103.572H42.6879V104.404H36.3049Z" fill="black"/>
<path d="M2.482 147.651V138.551H3.444V146.819H8.54V147.651H2.482ZM9.94227 147.651V140.826H10.8653V147.651H9.94227ZM10.4103 139.318C10.2196 139.318 10.0593 139.253 9.92927 139.123C9.79927 138.993 9.73427 138.837 9.73427 138.655C9.73427 138.473 9.79927 138.321 9.92927 138.2C10.0593 138.07 10.2196 138.005 10.4103 138.005C10.6009 138.005 10.7613 138.066 10.8913 138.187C11.0213 138.308 11.0863 138.46 11.0863 138.642C11.0863 138.833 11.0213 138.993 10.8913 139.123C10.7699 139.253 10.6096 139.318 10.4103 139.318ZM15.1885 147.651L12.1595 140.826H13.1215L15.9035 147.157H15.4485L18.2695 140.826H19.1795L16.1375 147.651H15.1885ZM20.4794 147.651V140.826H21.3634V142.685L21.2724 142.36C21.463 141.84 21.7837 141.446 22.2344 141.177C22.685 140.9 23.244 140.761 23.9114 140.761V141.658C23.8767 141.658 23.842 141.658 23.8074 141.658C23.7727 141.649 23.738 141.645 23.7034 141.645C22.984 141.645 22.4207 141.866 22.0134 142.308C21.606 142.741 21.4024 143.361 21.4024 144.167V147.651H20.4794ZM28.3141 147.716C27.6555 147.716 27.0618 147.569 26.5331 147.274C26.0131 146.971 25.6015 146.559 25.2981 146.039C24.9948 145.51 24.8431 144.908 24.8431 144.232C24.8431 143.547 24.9948 142.945 25.2981 142.425C25.6015 141.905 26.0131 141.498 26.5331 141.203C27.0531 140.908 27.6468 140.761 28.3141 140.761C28.9901 140.761 29.5881 140.908 30.1081 141.203C30.6368 141.498 31.0485 141.905 31.3431 142.425C31.6465 142.945 31.7981 143.547 31.7981 144.232C31.7981 144.908 31.6465 145.51 31.3431 146.039C31.0485 146.559 30.6368 146.971 30.1081 147.274C29.5795 147.569 28.9815 147.716 28.3141 147.716ZM28.3141 146.897C28.8081 146.897 29.2458 146.789 29.6271 146.572C30.0085 146.347 30.3075 146.035 30.5241 145.636C30.7495 145.229 30.8621 144.761 30.8621 144.232C30.8621 143.695 30.7495 143.227 30.5241 142.828C30.3075 142.429 30.0085 142.122 29.6271 141.905C29.2458 141.68 28.8125 141.567 28.3271 141.567C27.8418 141.567 27.4085 141.68 27.0271 141.905C26.6458 142.122 26.3425 142.429 26.1171 142.828C25.8918 143.227 25.7791 143.695 25.7791 144.232C25.7791 144.761 25.8918 145.229 26.1171 145.636C26.3425 146.035 26.6458 146.347 27.0271 146.572C27.4085 146.789 27.8375 146.897 28.3141 146.897ZM39.1909 147.729C38.5322 147.729 37.9082 147.625 37.3189 147.417C36.7382 147.2 36.2702 146.914 35.9149 146.559L36.3699 145.818C36.6645 146.121 37.0589 146.373 37.5529 146.572C38.0555 146.771 38.6015 146.871 39.1909 146.871C39.9449 146.871 40.5212 146.706 40.9199 146.377C41.3272 146.048 41.5309 145.606 41.5309 145.051C41.5309 144.496 41.3315 144.054 40.9329 143.725C40.5429 143.396 39.9232 143.231 39.0739 143.231H38.4239V142.542L41.2319 139.019L41.3619 139.383H36.2919V138.551H42.1419V139.214L39.3339 142.737L38.8789 142.438H39.2299C40.3219 142.438 41.1365 142.681 41.6739 143.166C42.2199 143.651 42.4929 144.275 42.4929 145.038C42.4929 145.549 42.3715 146.009 42.1289 146.416C41.8862 146.823 41.5179 147.144 41.0239 147.378C40.5385 147.612 39.9275 147.729 39.1909 147.729Z" fill="black"/>
<path d="M2.482 190.897V181.797H3.444V190.065H8.54V190.897H2.482ZM9.94227 190.897V184.072H10.8653V190.897H9.94227ZM10.4103 182.564C10.2196 182.564 10.0593 182.499 9.92927 182.369C9.79927 182.239 9.73427 182.083 9.73427 181.901C9.73427 181.719 9.79927 181.568 9.92927 181.446C10.0593 181.316 10.2196 181.251 10.4103 181.251C10.6009 181.251 10.7613 181.312 10.8913 181.433C11.0213 181.555 11.0863 181.706 11.0863 181.888C11.0863 182.079 11.0213 182.239 10.8913 182.369C10.7699 182.499 10.6096 182.564 10.4103 182.564ZM15.1885 190.897L12.1595 184.072H13.1215L15.9035 190.403H15.4485L18.2695 184.072H19.1795L16.1375 190.897H15.1885ZM20.4794 190.897V184.072H21.3634V185.931L21.2724 185.606C21.463 185.086 21.7837 184.692 22.2344 184.423C22.685 184.146 23.244 184.007 23.9114 184.007V184.904C23.8767 184.904 23.842 184.904 23.8074 184.904C23.7727 184.896 23.738 184.891 23.7034 184.891C22.984 184.891 22.4207 185.112 22.0134 185.554C21.606 185.988 21.4024 186.607 21.4024 187.413V190.897H20.4794ZM28.3141 190.962C27.6555 190.962 27.0618 190.815 26.5331 190.52C26.0131 190.217 25.6015 189.805 25.2981 189.285C24.9948 188.757 24.8431 188.154 24.8431 187.478C24.8431 186.794 24.9948 186.191 25.2981 185.671C25.6015 185.151 26.0131 184.744 26.5331 184.449C27.0531 184.155 27.6468 184.007 28.3141 184.007C28.9901 184.007 29.5881 184.155 30.1081 184.449C30.6368 184.744 31.0485 185.151 31.3431 185.671C31.6465 186.191 31.7981 186.794 31.7981 187.478C31.7981 188.154 31.6465 188.757 31.3431 189.285C31.0485 189.805 30.6368 190.217 30.1081 190.52C29.5795 190.815 28.9815 190.962 28.3141 190.962ZM28.3141 190.143C28.8081 190.143 29.2458 190.035 29.6271 189.818C30.0085 189.593 30.3075 189.281 30.5241 188.882C30.7495 188.475 30.8621 188.007 30.8621 187.478C30.8621 186.941 30.7495 186.473 30.5241 186.074C30.3075 185.676 30.0085 185.368 29.6271 185.151C29.2458 184.926 28.8125 184.813 28.3271 184.813C27.8418 184.813 27.4085 184.926 27.0271 185.151C26.6458 185.368 26.3425 185.676 26.1171 186.074C25.8918 186.473 25.7791 186.941 25.7791 187.478C25.7791 188.007 25.8918 188.475 26.1171 188.882C26.3425 189.281 26.6458 189.593 27.0271 189.818C27.4085 190.035 27.8375 190.143 28.3141 190.143ZM36.3179 188.505V187.829L41.1409 181.797H42.1809L37.3969 187.829L36.8899 187.673H44.2089V188.505H36.3179ZM41.4529 190.897V188.505L41.4789 187.673V185.567H42.3889V190.897H41.4529Z" fill="black"/>
<path d="M2.482 234.144V225.044H3.444V233.312H8.54V234.144H2.482ZM9.94227 234.144V227.319H10.8653V234.144H9.94227ZM10.4103 225.811C10.2196 225.811 10.0593 225.746 9.92927 225.616C9.79927 225.486 9.73427 225.33 9.73427 225.148C9.73427 224.966 9.79927 224.814 9.92927 224.693C10.0593 224.563 10.2196 224.498 10.4103 224.498C10.6009 224.498 10.7613 224.559 10.8913 224.68C11.0213 224.801 11.0863 224.953 11.0863 225.135C11.0863 225.326 11.0213 225.486 10.8913 225.616C10.7699 225.746 10.6096 225.811 10.4103 225.811ZM15.1885 234.144L12.1595 227.319H13.1215L15.9035 233.65H15.4485L18.2695 227.319H19.1795L16.1375 234.144H15.1885ZM20.4794 234.144V227.319H21.3634V229.178L21.2724 228.853C21.463 228.333 21.7837 227.939 22.2344 227.67C22.685 227.393 23.244 227.254 23.9114 227.254V228.151C23.8767 228.151 23.842 228.151 23.8074 228.151C23.7727 228.142 23.738 228.138 23.7034 228.138C22.984 228.138 22.4207 228.359 22.0134 228.801C21.606 229.234 21.4024 229.854 21.4024 230.66V234.144H20.4794ZM28.3141 234.209C27.6555 234.209 27.0618 234.062 26.5331 233.767C26.0131 233.464 25.6015 233.052 25.2981 232.532C24.9948 232.003 24.8431 231.401 24.8431 230.725C24.8431 230.04 24.9948 229.438 25.2981 228.918C25.6015 228.398 26.0131 227.991 26.5331 227.696C27.0531 227.401 27.6468 227.254 28.3141 227.254C28.9901 227.254 29.5881 227.401 30.1081 227.696C30.6368 227.991 31.0485 228.398 31.3431 228.918C31.6465 229.438 31.7981 230.04 31.7981 230.725C31.7981 231.401 31.6465 232.003 31.3431 232.532C31.0485 233.052 30.6368 233.464 30.1081 233.767C29.5795 234.062 28.9815 234.209 28.3141 234.209ZM28.3141 233.39C28.8081 233.39 29.2458 233.282 29.6271 233.065C30.0085 232.84 30.3075 232.528 30.5241 232.129C30.7495 231.722 30.8621 231.254 30.8621 230.725C30.8621 230.188 30.7495 229.72 30.5241 229.321C30.3075 228.922 30.0085 228.615 29.6271 228.398C29.2458 228.173 28.8125 228.06 28.3271 228.06C27.8418 228.06 27.4085 228.173 27.0271 228.398C26.6458 228.615 26.3425 228.922 26.1171 229.321C25.8918 229.72 25.7791 230.188 25.7791 230.725C25.7791 231.254 25.8918 231.722 26.1171 232.129C26.3425 232.528 26.6458 232.84 27.0271 233.065C27.4085 233.282 27.8375 233.39 28.3141 233.39ZM39.3469 234.222C38.6969 234.222 38.0772 234.118 37.4879 233.91C36.8985 233.693 36.4305 233.407 36.0839 233.052L36.5389 232.311C36.8249 232.614 37.2149 232.866 37.7089 233.065C38.2115 233.264 38.7532 233.364 39.3339 233.364C40.1052 233.364 40.6902 233.195 41.0889 232.857C41.4962 232.51 41.6999 232.06 41.6999 231.505C41.6999 231.115 41.6045 230.781 41.4139 230.504C41.2319 230.218 40.9199 229.997 40.4779 229.841C40.0359 229.685 39.4292 229.607 38.6579 229.607H36.7209L37.1889 225.044H42.1679V225.876H37.5659L38.0469 225.421L37.6439 229.243L37.1629 228.775H38.8659C39.7845 228.775 40.5212 228.888 41.0759 229.113C41.6305 229.338 42.0292 229.655 42.2719 230.062C42.5232 230.461 42.6489 230.929 42.6489 231.466C42.6489 231.977 42.5275 232.445 42.2849 232.87C42.0422 233.286 41.6782 233.615 41.1929 233.858C40.7075 234.101 40.0922 234.222 39.3469 234.222Z" fill="black"/>
<path d="M1.482 64.1753V55.0753H2.444V63.3433H7.54V64.1753H1.482ZM8.94227 64.1753V57.3503H9.86527V64.1753H8.94227ZM9.41027 55.8423C9.21961 55.8423 9.05927 55.7773 8.92927 55.6473C8.79927 55.5173 8.73427 55.3613 8.73427 55.1793C8.73427 54.9973 8.79927 54.8456 8.92927 54.7243C9.05927 54.5943 9.21961 54.5293 9.41027 54.5293C9.60094 54.5293 9.76127 54.59 9.89127 54.7113C10.0213 54.8326 10.0863 54.9843 10.0863 55.1663C10.0863 55.357 10.0213 55.5173 9.89127 55.6473C9.76994 55.7773 9.60961 55.8423 9.41027 55.8423ZM14.1885 64.1753L11.1595 57.3503H12.1215L14.9035 63.6813H14.4485L17.2695 57.3503H18.1795L15.1375 64.1753H14.1885ZM19.4794 64.1753V57.3503H20.3634V59.2093L20.2724 58.8843C20.463 58.3643 20.7837 57.97 21.2344 57.7013C21.685 57.424 22.244 57.2853 22.9114 57.2853V58.1823C22.8767 58.1823 22.842 58.1823 22.8074 58.1823C22.7727 58.1736 22.738 58.1693 22.7034 58.1693C21.984 58.1693 21.4207 58.3903 21.0134 58.8323C20.606 59.2656 20.4024 59.8853 20.4024 60.6913V64.1753H19.4794ZM27.3141 64.2403C26.6555 64.2403 26.0618 64.093 25.5331 63.7983C25.0131 63.495 24.6015 63.0833 24.2981 62.5633C23.9948 62.0346 23.8431 61.4323 23.8431 60.7563C23.8431 60.0716 23.9948 59.4693 24.2981 58.9493C24.6015 58.4293 25.0131 58.022 25.5331 57.7273C26.0531 57.4326 26.6468 57.2853 27.3141 57.2853C27.9901 57.2853 28.5881 57.4326 29.1081 57.7273C29.6368 58.022 30.0485 58.4293 30.3431 58.9493C30.6465 59.4693 30.7981 60.0716 30.7981 60.7563C30.7981 61.4323 30.6465 62.0346 30.3431 62.5633C30.0485 63.0833 29.6368 63.495 29.1081 63.7983C28.5795 64.093 27.9815 64.2403 27.3141 64.2403ZM27.3141 63.4213C27.8081 63.4213 28.2458 63.313 28.6271 63.0963C29.0085 62.871 29.3075 62.559 29.5241 62.1603C29.7495 61.753 29.8621 61.285 29.8621 60.7563C29.8621 60.219 29.7495 59.751 29.5241 59.3523C29.3075 58.9536 29.0085 58.646 28.6271 58.4293C28.2458 58.204 27.8125 58.0913 27.3271 58.0913C26.8418 58.0913 26.4085 58.204 26.0271 58.4293C25.6458 58.646 25.3425 58.9536 25.1171 59.3523C24.8918 59.751 24.7791 60.219 24.7791 60.7563C24.7791 61.285 24.8918 61.753 25.1171 62.1603C25.3425 62.559 25.6458 62.871 26.0271 63.0963C26.4085 63.313 26.8375 63.4213 27.3141 63.4213ZM37.0599 64.1753V55.4653L37.4759 55.9073H34.9149V55.0753H37.9959V64.1753H37.0599Z" fill="black"/>
<rect x="8.5" y="30.5547" width="29" height="14.086" fill="#009037" stroke="black"/>
<rect x="7.5" y="157.277" width="29" height="14.086" fill="#009037" stroke="black"/>
<path d="M8.5 200.523H37.5V214.609H8.5V200.523Z" fill="#00926F" stroke="black"/>
<rect x="8.5" y="114.031" width="29" height="14.086" fill="#2C5CD0" stroke="black"/>
<path d="M8.5 70.7842H37.5V84.8702H8.5V70.7842Z" fill="#18F514" stroke="black"/>
</svg>
