<svg width="20" height="20" viewBox="0 0 20 20" fill="none" xmlns="http://www.w3.org/2000/svg"><g clip-path="url(#clip0_224_135730)"><path d="M14.7779 6.88326H12.5964C12.2597 5.39598 10.8196 4.32797 9.14821 4.32605H7.74079C6.06941 4.32797 4.6293 5.39598 4.29264 6.88326H2.11117C1.72252 6.88326 1.40747 7.16948 1.40747 7.52255C1.40747 7.87563 1.72252 8.16188 2.11117 8.16188H2.81486V16.4728C2.8172 18.2373 4.39114 19.6673 6.3334 19.6694H10.5556C12.4979 19.6673 14.0718 18.2373 14.0742 16.4728V8.16188H14.7779C15.1665 8.16188 15.4816 7.87566 15.4816 7.52258C15.4816 7.16951 15.1665 6.88326 14.7779 6.88326ZM7.74082 15.1942C7.74082 15.5473 7.42577 15.8335 7.03713 15.8335C6.64845 15.8335 6.3334 15.5473 6.3334 15.1942V11.3584C6.3334 11.0053 6.64845 10.7191 7.03709 10.7191C7.42574 10.7191 7.74079 11.0053 7.74079 11.3584V15.1942H7.74082ZM10.5556 15.1942C10.5556 15.5473 10.2406 15.8335 9.85194 15.8335C9.46329 15.8335 9.14824 15.5473 9.14824 15.1942V11.3584C9.14824 11.0053 9.46329 10.7191 9.85194 10.7191C10.2406 10.7191 10.5556 11.0053 10.5556 11.3584V15.1942ZM5.75004 6.88326C6.04935 6.11756 6.84643 5.60563 7.74082 5.60464H9.14824C10.0426 5.60563 10.8397 6.11756 11.139 6.88326H5.75004Z" fill="#912F13"/></g><defs><clipPath id="clip0_224_135730"><rect width="16.8889" height="15.3433" fill="white" transform="translate(0 4.32605)"/></clipPath></defs></svg>
