<svg width="1031" height="370" viewBox="0 0 1031 370" fill="none" xmlns="http://www.w3.org/2000/svg">
<rect x="550.5" y="349.5" width="43" height="15.0917" fill="#912F13" stroke="black"/>
<rect x="326.5" y="349.5" width="44" height="15.0917" fill="#220127" stroke="black"/>
<path d="M59.6521 138.967H1031" stroke="#B0B0B0"/>
<path d="M59.6521 210.042H1031" stroke="#B0B0B0"/>
<path d="M59.6521 282.178H1031" stroke="#B0B0B0"/>
<path d="M97.936 116.16V305.516" stroke="#B0B0B0"/>
<path d="M231.485 116.16V305.516" stroke="#B0B0B0"/>
<path d="M364.144 116.16V305.516" stroke="#B0B0B0"/>
<path d="M496.803 116.16V305.516" stroke="#B0B0B0"/>
<path d="M630.352 116.16V305.516" stroke="#B0B0B0"/>
<path d="M763.902 116.16V305.516" stroke="#B0B0B0"/>
<path d="M897.451 116.16V305.516" stroke="#B0B0B0"/>
<path d="M15.0928 282.929V284.229C15.0928 284.929 15.0303 285.519 14.9053 285.999C14.7803 286.479 14.6006 286.866 14.3662 287.159C14.1318 287.452 13.8486 287.665 13.5166 287.798C13.1885 287.927 12.8174 287.991 12.4033 287.991C12.0752 287.991 11.7725 287.95 11.4951 287.868C11.2178 287.786 10.9678 287.655 10.7451 287.476C10.5264 287.292 10.3389 287.054 10.1826 286.761C10.0264 286.468 9.90723 286.112 9.8252 285.694C9.74316 285.276 9.70215 284.788 9.70215 284.229V282.929C9.70215 282.229 9.76465 281.644 9.88965 281.171C10.0186 280.698 10.2002 280.319 10.4346 280.034C10.6689 279.745 10.9502 279.538 11.2783 279.413C11.6104 279.288 11.9814 279.226 12.3916 279.226C12.7236 279.226 13.0283 279.267 13.3057 279.349C13.5869 279.427 13.8369 279.554 14.0557 279.729C14.2744 279.901 14.46 280.132 14.6123 280.421C14.7686 280.706 14.8877 281.056 14.9697 281.47C15.0518 281.884 15.0928 282.37 15.0928 282.929ZM14.0029 284.405V282.747C14.0029 282.364 13.9795 282.028 13.9326 281.739C13.8896 281.446 13.8252 281.196 13.7393 280.989C13.6533 280.782 13.5439 280.614 13.4111 280.485C13.2822 280.356 13.1318 280.263 12.96 280.204C12.792 280.142 12.6025 280.11 12.3916 280.11C12.1338 280.11 11.9053 280.159 11.7061 280.257C11.5068 280.351 11.3389 280.501 11.2021 280.708C11.0693 280.915 10.9678 281.187 10.8975 281.522C10.8271 281.858 10.792 282.267 10.792 282.747V284.405C10.792 284.788 10.8135 285.126 10.8564 285.419C10.9033 285.712 10.9717 285.966 11.0615 286.181C11.1514 286.392 11.2607 286.565 11.3896 286.702C11.5186 286.839 11.667 286.94 11.835 287.007C12.0068 287.069 12.1963 287.101 12.4033 287.101C12.6689 287.101 12.9014 287.05 13.1006 286.948C13.2998 286.847 13.4658 286.688 13.5986 286.474C13.7354 286.255 13.8369 285.976 13.9033 285.636C13.9697 285.292 14.0029 284.882 14.0029 284.405Z" fill="#474747"/>
<path d="M6.84961 212.867V213.758H0.685547V213.119L4.50586 207.207H5.39062L4.44141 208.918L1.91602 212.867H6.84961ZM5.66016 207.207V215.738H4.57617V207.207H5.66016ZM13.1895 210.793V212.094C13.1895 212.793 13.127 213.383 13.002 213.863C12.877 214.344 12.6973 214.73 12.4629 215.023C12.2285 215.316 11.9453 215.529 11.6133 215.662C11.2852 215.791 10.9141 215.855 10.5 215.855C10.1719 215.855 9.86914 215.814 9.5918 215.732C9.31445 215.65 9.06445 215.52 8.8418 215.34C8.62305 215.156 8.43555 214.918 8.2793 214.625C8.12305 214.332 8.00391 213.977 7.92188 213.559C7.83984 213.141 7.79883 212.652 7.79883 212.094V210.793C7.79883 210.094 7.86133 209.508 7.98633 209.035C8.11523 208.562 8.29688 208.184 8.53125 207.898C8.76562 207.609 9.04688 207.402 9.375 207.277C9.70703 207.152 10.0781 207.09 10.4883 207.09C10.8203 207.09 11.125 207.131 11.4023 207.213C11.6836 207.291 11.9336 207.418 12.1523 207.594C12.3711 207.766 12.5566 207.996 12.709 208.285C12.8652 208.57 12.9844 208.92 13.0664 209.334C13.1484 209.748 13.1895 210.234 13.1895 210.793ZM12.0996 212.27V210.611C12.0996 210.229 12.0762 209.893 12.0293 209.604C11.9863 209.311 11.9219 209.061 11.8359 208.854C11.75 208.646 11.6406 208.479 11.5078 208.35C11.3789 208.221 11.2285 208.127 11.0566 208.068C10.8887 208.006 10.6992 207.975 10.4883 207.975C10.2305 207.975 10.002 208.023 9.80273 208.121C9.60352 208.215 9.43555 208.365 9.29883 208.572C9.16602 208.779 9.06445 209.051 8.99414 209.387C8.92383 209.723 8.88867 210.131 8.88867 210.611V212.27C8.88867 212.652 8.91016 212.99 8.95312 213.283C9 213.576 9.06836 213.83 9.1582 214.045C9.24805 214.256 9.35742 214.43 9.48633 214.566C9.61523 214.703 9.76367 214.805 9.93164 214.871C10.1035 214.934 10.293 214.965 10.5 214.965C10.7656 214.965 10.998 214.914 11.1973 214.812C11.3965 214.711 11.5625 214.553 11.6953 214.338C11.832 214.119 11.9336 213.84 12 213.5C12.0664 213.156 12.0996 212.746 12.0996 212.27ZM19.9395 210.793V212.094C19.9395 212.793 19.877 213.383 19.752 213.863C19.627 214.344 19.4473 214.73 19.2129 215.023C18.9785 215.316 18.6953 215.529 18.3633 215.662C18.0352 215.791 17.6641 215.855 17.25 215.855C16.9219 215.855 16.6191 215.814 16.3418 215.732C16.0645 215.65 15.8145 215.52 15.5918 215.34C15.373 215.156 15.1855 214.918 15.0293 214.625C14.873 214.332 14.7539 213.977 14.6719 213.559C14.5898 213.141 14.5488 212.652 14.5488 212.094V210.793C14.5488 210.094 14.6113 209.508 14.7363 209.035C14.8652 208.562 15.0469 208.184 15.2812 207.898C15.5156 207.609 15.7969 207.402 16.125 207.277C16.457 207.152 16.8281 207.09 17.2383 207.09C17.5703 207.09 17.875 207.131 18.1523 207.213C18.4336 207.291 18.6836 207.418 18.9023 207.594C19.1211 207.766 19.3066 207.996 19.459 208.285C19.6152 208.57 19.7344 208.92 19.8164 209.334C19.8984 209.748 19.9395 210.234 19.9395 210.793ZM18.8496 212.27V210.611C18.8496 210.229 18.8262 209.893 18.7793 209.604C18.7363 209.311 18.6719 209.061 18.5859 208.854C18.5 208.646 18.3906 208.479 18.2578 208.35C18.1289 208.221 17.9785 208.127 17.8066 208.068C17.6387 208.006 17.4492 207.975 17.2383 207.975C16.9805 207.975 16.752 208.023 16.5527 208.121C16.3535 208.215 16.1855 208.365 16.0488 208.572C15.916 208.779 15.8145 209.051 15.7441 209.387C15.6738 209.723 15.6387 210.131 15.6387 210.611V212.27C15.6387 212.652 15.6602 212.99 15.7031 213.283C15.75 213.576 15.8184 213.83 15.9082 214.045C15.998 214.256 16.1074 214.43 16.2363 214.566C16.3652 214.703 16.5137 214.805 16.6816 214.871C16.8535 214.934 17.043 214.965 17.25 214.965C17.5156 214.965 17.748 214.914 17.9473 214.812C18.1465 214.711 18.3125 214.553 18.4453 214.338C18.582 214.119 18.6836 213.84 18.75 213.5C18.8164 213.156 18.8496 212.746 18.8496 212.27Z" fill="#474747"/>
<path d="M6.46289 142.355C6.46289 142.875 6.3418 143.316 6.09961 143.679C5.86133 144.039 5.53711 144.312 5.12695 144.5C4.7207 144.687 4.26172 144.781 3.75 144.781C3.23828 144.781 2.77734 144.687 2.36719 144.5C1.95703 144.312 1.63281 144.039 1.39453 143.679C1.15625 143.316 1.03711 142.875 1.03711 142.355C1.03711 142.015 1.10156 141.705 1.23047 141.423C1.36328 141.138 1.54883 140.89 1.78711 140.679C2.0293 140.468 2.31445 140.306 2.64258 140.193C2.97461 140.076 3.33984 140.017 3.73828 140.017C4.26172 140.017 4.72852 140.119 5.13867 140.322C5.54883 140.521 5.87109 140.796 6.10547 141.148C6.34375 141.5 6.46289 141.902 6.46289 142.355ZM5.37305 142.332C5.37305 142.015 5.30469 141.736 5.16797 141.494C5.03125 141.248 4.83984 141.056 4.59375 140.919C4.34766 140.783 4.0625 140.714 3.73828 140.714C3.40625 140.714 3.11914 140.783 2.87695 140.919C2.63867 141.056 2.45312 141.248 2.32031 141.494C2.1875 141.736 2.12109 142.015 2.12109 142.332C2.12109 142.66 2.18555 142.941 2.31445 143.175C2.44727 143.406 2.63477 143.583 2.87695 143.708C3.12305 143.83 3.41406 143.89 3.75 143.89C4.08594 143.89 4.375 143.83 4.61719 143.708C4.85938 143.583 5.04492 143.406 5.17383 143.175C5.30664 142.941 5.37305 142.66 5.37305 142.332ZM6.26367 138.353C6.26367 138.767 6.1543 139.14 5.93555 139.472C5.7168 139.804 5.41797 140.066 5.03906 140.257C4.66016 140.449 4.23047 140.544 3.75 140.544C3.26172 140.544 2.82617 140.449 2.44336 140.257C2.06445 140.066 1.76758 139.804 1.55273 139.472C1.33789 139.14 1.23047 138.767 1.23047 138.353C1.23047 137.857 1.33789 137.435 1.55273 137.087C1.77148 136.74 2.07031 136.474 2.44922 136.291C2.82812 136.107 3.25977 136.015 3.74414 136.015C4.23242 136.015 4.66602 136.107 5.04492 136.291C5.42383 136.474 5.7207 136.74 5.93555 137.087C6.1543 137.435 6.26367 137.857 6.26367 138.353ZM5.17969 138.371C5.17969 138.085 5.11914 137.833 4.99805 137.615C4.87695 137.396 4.70898 137.224 4.49414 137.099C4.2793 136.97 4.0293 136.906 3.74414 136.906C3.45898 136.906 3.20898 136.966 2.99414 137.087C2.7832 137.205 2.61719 137.373 2.49609 137.591C2.37891 137.81 2.32031 138.07 2.32031 138.371C2.32031 138.664 2.37891 138.919 2.49609 139.138C2.61719 139.357 2.78516 139.527 3 139.648C3.21484 139.769 3.46484 139.83 3.75 139.83C4.03516 139.83 4.2832 139.769 4.49414 139.648C4.70898 139.527 4.87695 139.357 4.99805 139.138C5.11914 138.919 5.17969 138.664 5.17969 138.371ZM13.1895 139.718V141.019C13.1895 141.718 13.127 142.308 13.002 142.789C12.877 143.269 12.6973 143.656 12.4629 143.949C12.2285 144.242 11.9453 144.455 11.6133 144.587C11.2852 144.716 10.9141 144.781 10.5 144.781C10.1719 144.781 9.86914 144.74 9.5918 144.658C9.31445 144.576 9.06445 144.445 8.8418 144.265C8.62305 144.082 8.43555 143.843 8.2793 143.55C8.12305 143.257 8.00391 142.902 7.92188 142.484C7.83984 142.066 7.79883 141.578 7.79883 141.019V139.718C7.79883 139.019 7.86133 138.433 7.98633 137.96C8.11523 137.488 8.29688 137.109 8.53125 136.824C8.76562 136.535 9.04688 136.328 9.375 136.203C9.70703 136.078 10.0781 136.015 10.4883 136.015C10.8203 136.015 11.125 136.056 11.4023 136.138C11.6836 136.216 11.9336 136.343 12.1523 136.519C12.3711 136.691 12.5566 136.921 12.709 137.21C12.8652 137.496 12.9844 137.845 13.0664 138.259C13.1484 138.673 13.1895 139.16 13.1895 139.718ZM12.0996 141.195V139.537C12.0996 139.154 12.0762 138.818 12.0293 138.529C11.9863 138.236 11.9219 137.986 11.8359 137.779C11.75 137.572 11.6406 137.404 11.5078 137.275C11.3789 137.146 11.2285 137.052 11.0566 136.994C10.8887 136.931 10.6992 136.9 10.4883 136.9C10.2305 136.9 10.002 136.949 9.80273 137.046C9.60352 137.14 9.43555 137.291 9.29883 137.498C9.16602 137.705 9.06445 137.976 8.99414 138.312C8.92383 138.648 8.88867 139.056 8.88867 139.537V141.195C8.88867 141.578 8.91016 141.916 8.95312 142.208C9 142.501 9.06836 142.755 9.1582 142.97C9.24805 143.181 9.35742 143.355 9.48633 143.492C9.61523 143.628 9.76367 143.73 9.93164 143.796C10.1035 143.859 10.293 143.89 10.5 143.89C10.7656 143.89 10.998 143.839 11.1973 143.738C11.3965 143.636 11.5625 143.478 11.6953 143.263C11.832 143.044 11.9336 142.765 12 142.425C12.0664 142.082 12.0996 141.671 12.0996 141.195ZM19.9395 139.718V141.019C19.9395 141.718 19.877 142.308 19.752 142.789C19.627 143.269 19.4473 143.656 19.2129 143.949C18.9785 144.242 18.6953 144.455 18.3633 144.587C18.0352 144.716 17.6641 144.781 17.25 144.781C16.9219 144.781 16.6191 144.74 16.3418 144.658C16.0645 144.576 15.8145 144.445 15.5918 144.265C15.373 144.082 15.1855 143.843 15.0293 143.55C14.873 143.257 14.7539 142.902 14.6719 142.484C14.5898 142.066 14.5488 141.578 14.5488 141.019V139.718C14.5488 139.019 14.6113 138.433 14.7363 137.96C14.8652 137.488 15.0469 137.109 15.2812 136.824C15.5156 136.535 15.7969 136.328 16.125 136.203C16.457 136.078 16.8281 136.015 17.2383 136.015C17.5703 136.015 17.875 136.056 18.1523 136.138C18.4336 136.216 18.6836 136.343 18.9023 136.519C19.1211 136.691 19.3066 136.921 19.459 137.21C19.6152 137.496 19.7344 137.845 19.8164 138.259C19.8984 138.673 19.9395 139.16 19.9395 139.718ZM18.8496 141.195V139.537C18.8496 139.154 18.8262 138.818 18.7793 138.529C18.7363 138.236 18.6719 137.986 18.5859 137.779C18.5 137.572 18.3906 137.404 18.2578 137.275C18.1289 137.146 17.9785 137.052 17.8066 136.994C17.6387 136.931 17.4492 136.9 17.2383 136.9C16.9805 136.9 16.752 136.949 16.5527 137.046C16.3535 137.14 16.1855 137.291 16.0488 137.498C15.916 137.705 15.8145 137.976 15.7441 138.312C15.6738 138.648 15.6387 139.056 15.6387 139.537V141.195C15.6387 141.578 15.6602 141.916 15.7031 142.208C15.75 142.501 15.8184 142.755 15.9082 142.97C15.998 143.181 16.1074 143.355 16.2363 143.492C16.3652 143.628 16.5137 143.73 16.6816 143.796C16.8535 143.859 17.043 143.89 17.25 143.89C17.5156 143.89 17.748 143.839 17.9473 143.738C18.1465 143.636 18.3125 143.478 18.4453 143.263C18.582 143.044 18.6836 142.765 18.75 142.425C18.8164 142.082 18.8496 141.671 18.8496 141.195Z" fill="#474747"/>
<rect x="110.002" y="138.766" width="50.6872" height="143.263" fill="#220127"/>
<rect x="245.887" y="192.088" width="50.6872" height="89.9411" fill="#220127"/>
<rect x="168.239" y="249.908" width="48.5303" height="32.1218" fill="#912F13"/>
<rect x="310.594" y="243.483" width="48.5303" height="37.9037" fill="#912F13"/>
<rect x="506.872" y="165.749" width="49.6088" height="118.208" fill="#220127"/>
<rect x="375.301" y="152.9" width="49.6088" height="128.487" fill="#220127"/>
<rect width="49.6088" height="12.2063" transform="translate(434.616 269.823)" fill="#912F13"/>
<rect x="434.616" y="269.823" width="49.6088" height="12.2063" fill="#912F13"/>
<rect x="644.598" y="120.934" width="48.968" height="161.245" fill="#220127"/>
<rect x="775.407" y="178.597" width="48.5303" height="103.432" fill="#220127"/>
<rect x="701.579" y="249.823" width="49.8584" height="32.355" fill="#912F13"/>
<rect x="835.8" y="215.216" width="49.6088" height="66.8134" fill="#912F13"/>
<rect x="911.292" y="142.621" width="48.5303" height="139.409" fill="#220127"/>
<rect x="967.371" y="231.919" width="49.6088" height="50.11" fill="#912F13"/>
<path d="M143.356 322.932C142.923 322.932 142.516 322.837 142.135 322.646C141.761 322.456 141.46 322.184 141.233 321.832L141.706 321.282C141.919 321.59 142.164 321.825 142.443 321.986C142.722 322.148 143.03 322.228 143.367 322.228C144.32 322.228 144.797 321.664 144.797 320.534V315.87H141.981V315.166H145.6V320.501C145.6 321.315 145.409 321.924 145.028 322.327C144.654 322.731 144.097 322.932 143.356 322.932ZM151.496 322.866V321.59L151.463 321.381V319.247C151.463 318.756 151.324 318.378 151.045 318.114C150.774 317.85 150.367 317.718 149.824 317.718C149.45 317.718 149.094 317.781 148.757 317.905C148.42 318.03 148.134 318.195 147.899 318.4L147.547 317.817C147.84 317.568 148.192 317.377 148.603 317.245C149.014 317.106 149.446 317.036 149.901 317.036C150.649 317.036 151.225 317.223 151.628 317.597C152.039 317.964 152.244 318.525 152.244 319.28V322.866H151.496ZM149.505 322.921C149.072 322.921 148.695 322.852 148.372 322.712C148.057 322.566 147.815 322.368 147.646 322.118C147.477 321.862 147.393 321.568 147.393 321.238C147.393 320.938 147.463 320.666 147.602 320.424C147.749 320.175 147.983 319.977 148.306 319.83C148.636 319.676 149.076 319.599 149.626 319.599H151.617V320.182H149.648C149.091 320.182 148.702 320.281 148.482 320.479C148.269 320.677 148.163 320.923 148.163 321.216C148.163 321.546 148.291 321.81 148.548 322.008C148.805 322.206 149.164 322.305 149.626 322.305C150.066 322.305 150.444 322.206 150.759 322.008C151.082 321.803 151.316 321.51 151.463 321.128L151.639 321.667C151.492 322.049 151.236 322.353 150.869 322.58C150.51 322.808 150.055 322.921 149.505 322.921ZM157.313 317.036C157.782 317.036 158.193 317.128 158.545 317.311C158.904 317.487 159.183 317.759 159.381 318.125C159.586 318.492 159.689 318.954 159.689 319.511V322.866H158.908V319.588C158.908 318.98 158.754 318.521 158.446 318.213C158.145 317.898 157.72 317.74 157.17 317.74C156.759 317.74 156.4 317.825 156.092 317.993C155.791 318.155 155.557 318.393 155.388 318.708C155.227 319.016 155.146 319.39 155.146 319.83V322.866H154.365V317.091H155.113V318.675L154.992 318.378C155.175 317.96 155.469 317.634 155.872 317.399C156.275 317.157 156.756 317.036 157.313 317.036ZM164.252 322.921C163.65 322.921 163.122 322.797 162.668 322.547C162.213 322.291 161.857 321.942 161.601 321.502C161.344 321.055 161.216 320.545 161.216 319.973C161.216 319.401 161.337 318.895 161.579 318.455C161.828 318.015 162.165 317.671 162.591 317.421C163.023 317.165 163.507 317.036 164.043 317.036C164.585 317.036 165.066 317.161 165.484 317.41C165.909 317.652 166.243 317.997 166.485 318.444C166.727 318.884 166.848 319.394 166.848 319.973C166.848 320.01 166.844 320.05 166.837 320.094C166.837 320.131 166.837 320.171 166.837 320.215H161.81V319.632H166.419L166.111 319.863C166.111 319.445 166.019 319.075 165.836 318.752C165.66 318.422 165.418 318.166 165.11 317.982C164.802 317.799 164.446 317.707 164.043 317.707C163.647 317.707 163.291 317.799 162.976 317.982C162.66 318.166 162.415 318.422 162.239 318.752C162.063 319.082 161.975 319.46 161.975 319.885V320.006C161.975 320.446 162.07 320.835 162.261 321.172C162.459 321.502 162.73 321.763 163.075 321.953C163.427 322.137 163.826 322.228 164.274 322.228C164.626 322.228 164.952 322.166 165.253 322.041C165.561 321.917 165.825 321.726 166.045 321.469L166.485 321.975C166.228 322.283 165.905 322.518 165.517 322.679C165.135 322.841 164.714 322.921 164.252 322.921ZM168.437 322.866V317.091H169.218V322.866H168.437ZM168.833 315.815C168.672 315.815 168.536 315.76 168.426 315.65C168.316 315.54 168.261 315.408 168.261 315.254C168.261 315.1 168.316 314.972 168.426 314.869C168.536 314.759 168.672 314.704 168.833 314.704C168.995 314.704 169.13 314.756 169.24 314.858C169.35 314.961 169.405 315.089 169.405 315.243C169.405 315.405 169.35 315.54 169.24 315.65C169.138 315.76 169.002 315.815 168.833 315.815ZM171.391 322.866V317.091H172.139V318.664L172.062 318.389C172.224 317.949 172.495 317.616 172.876 317.388C173.258 317.154 173.731 317.036 174.295 317.036V317.795C174.266 317.795 174.237 317.795 174.207 317.795C174.178 317.788 174.149 317.784 174.119 317.784C173.511 317.784 173.034 317.971 172.689 318.345C172.345 318.712 172.172 319.236 172.172 319.918V322.866H171.391ZM178.021 322.921C177.464 322.921 176.961 322.797 176.514 322.547C176.074 322.291 175.726 321.942 175.469 321.502C175.212 321.055 175.084 320.545 175.084 319.973C175.084 319.394 175.212 318.884 175.469 318.444C175.726 318.004 176.074 317.66 176.514 317.41C176.954 317.161 177.456 317.036 178.021 317.036C178.593 317.036 179.099 317.161 179.539 317.41C179.986 317.66 180.335 318.004 180.584 318.444C180.841 318.884 180.969 319.394 180.969 319.973C180.969 320.545 180.841 321.055 180.584 321.502C180.335 321.942 179.986 322.291 179.539 322.547C179.092 322.797 178.586 322.921 178.021 322.921ZM178.021 322.228C178.439 322.228 178.809 322.137 179.132 321.953C179.455 321.763 179.708 321.499 179.891 321.161C180.082 320.817 180.177 320.421 180.177 319.973C180.177 319.519 180.082 319.123 179.891 318.785C179.708 318.448 179.455 318.188 179.132 318.004C178.809 317.814 178.443 317.718 178.032 317.718C177.621 317.718 177.255 317.814 176.932 318.004C176.609 318.188 176.353 318.448 176.162 318.785C175.971 319.123 175.876 319.519 175.876 319.973C175.876 320.421 175.971 320.817 176.162 321.161C176.353 321.499 176.609 321.763 176.932 321.953C177.255 322.137 177.618 322.228 178.021 322.228Z" fill="black"/>
<path d="M276.985 318.895H281.055V319.599H276.985V318.895ZM277.073 322.866H276.259V315.166H281.539V315.87H277.073V322.866ZM285.315 322.921C284.713 322.921 284.185 322.797 283.731 322.547C283.276 322.291 282.92 321.942 282.664 321.502C282.407 321.055 282.279 320.545 282.279 319.973C282.279 319.401 282.4 318.895 282.642 318.455C282.891 318.015 283.228 317.671 283.654 317.421C284.086 317.165 284.57 317.036 285.106 317.036C285.648 317.036 286.129 317.161 286.547 317.41C286.972 317.652 287.306 317.997 287.548 318.444C287.79 318.884 287.911 319.394 287.911 319.973C287.911 320.01 287.907 320.05 287.9 320.094C287.9 320.131 287.9 320.171 287.9 320.215H282.873V319.632H287.482L287.174 319.863C287.174 319.445 287.082 319.075 286.899 318.752C286.723 318.422 286.481 318.166 286.173 317.982C285.865 317.799 285.509 317.707 285.106 317.707C284.71 317.707 284.354 317.799 284.039 317.982C283.723 318.166 283.478 318.422 283.302 318.752C283.126 319.082 283.038 319.46 283.038 319.885V320.006C283.038 320.446 283.133 320.835 283.324 321.172C283.522 321.502 283.793 321.763 284.138 321.953C284.49 322.137 284.889 322.228 285.337 322.228C285.689 322.228 286.015 322.166 286.316 322.041C286.624 321.917 286.888 321.726 287.108 321.469L287.548 321.975C287.291 322.283 286.968 322.518 286.58 322.679C286.198 322.841 285.777 322.921 285.315 322.921ZM290.878 322.866L288.315 317.091H289.129L291.483 322.448H291.098L293.485 317.091H294.255L291.681 322.866H290.878ZM297.647 322.921C297.045 322.921 296.517 322.797 296.063 322.547C295.608 322.291 295.252 321.942 294.996 321.502C294.739 321.055 294.611 320.545 294.611 319.973C294.611 319.401 294.732 318.895 294.974 318.455C295.223 318.015 295.56 317.671 295.986 317.421C296.418 317.165 296.902 317.036 297.438 317.036C297.98 317.036 298.461 317.161 298.879 317.41C299.304 317.652 299.638 317.997 299.88 318.444C300.122 318.884 300.243 319.394 300.243 319.973C300.243 320.01 300.239 320.05 300.232 320.094C300.232 320.131 300.232 320.171 300.232 320.215H295.205V319.632H299.814L299.506 319.863C299.506 319.445 299.414 319.075 299.231 318.752C299.055 318.422 298.813 318.166 298.505 317.982C298.197 317.799 297.841 317.707 297.438 317.707C297.042 317.707 296.686 317.799 296.371 317.982C296.055 318.166 295.81 318.422 295.634 318.752C295.458 319.082 295.37 319.46 295.37 319.885V320.006C295.37 320.446 295.465 320.835 295.656 321.172C295.854 321.502 296.125 321.763 296.47 321.953C296.822 322.137 297.221 322.228 297.669 322.228C298.021 322.228 298.347 322.166 298.648 322.041C298.956 321.917 299.22 321.726 299.44 321.469L299.88 321.975C299.623 322.283 299.3 322.518 298.912 322.679C298.53 322.841 298.109 322.921 297.647 322.921ZM301.832 322.866V317.091H302.58V318.664L302.503 318.389C302.665 317.949 302.936 317.616 303.317 317.388C303.699 317.154 304.172 317.036 304.736 317.036V317.795C304.707 317.795 304.678 317.795 304.648 317.795C304.619 317.788 304.59 317.784 304.56 317.784C303.952 317.784 303.475 317.971 303.13 318.345C302.786 318.712 302.613 319.236 302.613 319.918V322.866H301.832ZM308.561 322.921C307.959 322.921 307.431 322.797 306.977 322.547C306.522 322.291 306.166 321.942 305.91 321.502C305.653 321.055 305.525 320.545 305.525 319.973C305.525 319.401 305.646 318.895 305.888 318.455C306.137 318.015 306.474 317.671 306.9 317.421C307.332 317.165 307.816 317.036 308.352 317.036C308.894 317.036 309.375 317.161 309.793 317.41C310.218 317.652 310.552 317.997 310.794 318.444C311.036 318.884 311.157 319.394 311.157 319.973C311.157 320.01 311.153 320.05 311.146 320.094C311.146 320.131 311.146 320.171 311.146 320.215H306.119V319.632H310.728L310.42 319.863C310.42 319.445 310.328 319.075 310.145 318.752C309.969 318.422 309.727 318.166 309.419 317.982C309.111 317.799 308.755 317.707 308.352 317.707C307.956 317.707 307.6 317.799 307.285 317.982C306.969 318.166 306.724 318.422 306.548 318.752C306.372 319.082 306.284 319.46 306.284 319.885V320.006C306.284 320.446 306.379 320.835 306.57 321.172C306.768 321.502 307.039 321.763 307.384 321.953C307.736 322.137 308.135 322.228 308.583 322.228C308.935 322.228 309.261 322.166 309.562 322.041C309.87 321.917 310.134 321.726 310.354 321.469L310.794 321.975C310.537 322.283 310.214 322.518 309.826 322.679C309.444 322.841 309.023 322.921 308.561 322.921ZM312.746 322.866V317.091H313.527V322.866H312.746ZM313.142 315.815C312.981 315.815 312.845 315.76 312.735 315.65C312.625 315.54 312.57 315.408 312.57 315.254C312.57 315.1 312.625 314.972 312.735 314.869C312.845 314.759 312.981 314.704 313.142 314.704C313.304 314.704 313.439 314.756 313.549 314.858C313.659 314.961 313.714 315.089 313.714 315.243C313.714 315.405 313.659 315.54 313.549 315.65C313.447 315.76 313.311 315.815 313.142 315.815ZM315.701 322.866V317.091H316.449V318.664L316.372 318.389C316.533 317.949 316.804 317.616 317.186 317.388C317.567 317.154 318.04 317.036 318.605 317.036V317.795C318.575 317.795 318.546 317.795 318.517 317.795C318.487 317.788 318.458 317.784 318.429 317.784C317.82 317.784 317.343 317.971 316.999 318.345C316.654 318.712 316.482 319.236 316.482 319.918V322.866H315.701ZM322.33 322.921C321.773 322.921 321.27 322.797 320.823 322.547C320.383 322.291 320.035 321.942 319.778 321.502C319.521 321.055 319.393 320.545 319.393 319.973C319.393 319.394 319.521 318.884 319.778 318.444C320.035 318.004 320.383 317.66 320.823 317.41C321.263 317.161 321.765 317.036 322.33 317.036C322.902 317.036 323.408 317.161 323.848 317.41C324.295 317.66 324.644 318.004 324.893 318.444C325.15 318.884 325.278 319.394 325.278 319.973C325.278 320.545 325.15 321.055 324.893 321.502C324.644 321.942 324.295 322.291 323.848 322.547C323.401 322.797 322.895 322.921 322.33 322.921ZM322.33 322.228C322.748 322.228 323.118 322.137 323.441 321.953C323.764 321.763 324.017 321.499 324.2 321.161C324.391 320.817 324.486 320.421 324.486 319.973C324.486 319.519 324.391 319.123 324.2 318.785C324.017 318.448 323.764 318.188 323.441 318.004C323.118 317.814 322.752 317.718 322.341 317.718C321.93 317.718 321.564 317.814 321.241 318.004C320.918 318.188 320.662 318.448 320.471 318.785C320.28 319.123 320.185 319.519 320.185 319.973C320.185 320.421 320.28 320.817 320.471 321.161C320.662 321.499 320.918 321.763 321.241 321.953C321.564 322.137 321.927 322.228 322.33 322.228Z" fill="black"/>
<path d="M418.615 322.224V314.524H419.286L422.806 320.53H422.454L425.941 314.524H426.612V322.224H425.831V315.745H426.018L422.806 321.245H422.421L419.187 315.745H419.396V322.224H418.615ZM432.575 322.224V320.948L432.542 320.739V318.605C432.542 318.114 432.402 317.736 432.124 317.472C431.852 317.208 431.445 317.076 430.903 317.076C430.529 317.076 430.173 317.138 429.836 317.263C429.498 317.388 429.212 317.553 428.978 317.758L428.626 317.175C428.919 316.926 429.271 316.735 429.682 316.603C430.092 316.464 430.525 316.394 430.98 316.394C431.728 316.394 432.303 316.581 432.707 316.955C433.117 317.322 433.323 317.883 433.323 318.638V322.224H432.575ZM430.584 322.279C430.151 322.279 429.773 322.209 429.451 322.07C429.135 321.923 428.893 321.725 428.725 321.476C428.556 321.219 428.472 320.926 428.472 320.596C428.472 320.295 428.541 320.024 428.681 319.782C428.827 319.533 429.062 319.335 429.385 319.188C429.715 319.034 430.155 318.957 430.705 318.957H432.696V319.54H430.727C430.169 319.54 429.781 319.639 429.561 319.837C429.348 320.035 429.242 320.281 429.242 320.574C429.242 320.904 429.37 321.168 429.627 321.366C429.883 321.564 430.243 321.663 430.705 321.663C431.145 321.663 431.522 321.564 431.838 321.366C432.16 321.161 432.395 320.867 432.542 320.486L432.718 321.025C432.571 321.406 432.314 321.711 431.948 321.938C431.588 322.165 431.134 322.279 430.584 322.279ZM435.444 322.224V316.449H436.192V318.022L436.115 317.747C436.276 317.307 436.548 316.973 436.929 316.746C437.31 316.511 437.783 316.394 438.348 316.394V317.153C438.319 317.153 438.289 317.153 438.26 317.153C438.231 317.146 438.201 317.142 438.172 317.142C437.563 317.142 437.087 317.329 436.742 317.703C436.397 318.07 436.225 318.594 436.225 319.276V322.224H435.444ZM442.117 322.279C441.545 322.279 441.032 322.154 440.577 321.905C440.13 321.648 439.778 321.3 439.521 320.86C439.265 320.413 439.136 319.903 439.136 319.331C439.136 318.752 439.265 318.242 439.521 317.802C439.778 317.362 440.13 317.017 440.577 316.768C441.032 316.519 441.545 316.394 442.117 316.394C442.609 316.394 443.052 316.489 443.448 316.68C443.844 316.871 444.156 317.157 444.383 317.538L443.8 317.934C443.602 317.641 443.357 317.424 443.063 317.285C442.77 317.146 442.451 317.076 442.106 317.076C441.696 317.076 441.325 317.171 440.995 317.362C440.665 317.545 440.405 317.806 440.214 318.143C440.024 318.48 439.928 318.876 439.928 319.331C439.928 319.786 440.024 320.182 440.214 320.519C440.405 320.856 440.665 321.12 440.995 321.311C441.325 321.494 441.696 321.586 442.106 321.586C442.451 321.586 442.77 321.516 443.063 321.377C443.357 321.238 443.602 321.025 443.8 320.739L444.383 321.135C444.156 321.509 443.844 321.795 443.448 321.993C443.052 322.184 442.609 322.279 442.117 322.279ZM441.655 324.644C441.472 324.644 441.303 324.622 441.149 324.578C441.003 324.534 440.863 324.472 440.731 324.391L440.918 323.973C441.028 324.039 441.142 324.09 441.259 324.127C441.384 324.164 441.512 324.182 441.644 324.182C441.864 324.182 442.033 324.134 442.15 324.039C442.268 323.951 442.326 323.826 442.326 323.665C442.326 323.518 442.268 323.397 442.15 323.302C442.04 323.207 441.872 323.159 441.644 323.159H441.391L441.655 322.158H442.128L441.963 322.796C442.264 322.818 442.495 322.91 442.656 323.071C442.818 323.24 442.898 323.445 442.898 323.687C442.898 323.98 442.781 324.211 442.546 324.38C442.319 324.556 442.022 324.644 441.655 324.644ZM448.175 322.279C447.618 322.279 447.115 322.154 446.668 321.905C446.228 321.648 445.88 321.3 445.623 320.86C445.366 320.413 445.238 319.903 445.238 319.331C445.238 318.752 445.366 318.242 445.623 317.802C445.88 317.362 446.228 317.017 446.668 316.768C447.108 316.519 447.61 316.394 448.175 316.394C448.747 316.394 449.253 316.519 449.693 316.768C450.14 317.017 450.489 317.362 450.738 317.802C450.995 318.242 451.123 318.752 451.123 319.331C451.123 319.903 450.995 320.413 450.738 320.86C450.489 321.3 450.14 321.648 449.693 321.905C449.246 322.154 448.74 322.279 448.175 322.279ZM448.175 321.586C448.593 321.586 448.963 321.494 449.286 321.311C449.609 321.12 449.862 320.856 450.045 320.519C450.236 320.174 450.331 319.778 450.331 319.331C450.331 318.876 450.236 318.48 450.045 318.143C449.862 317.806 449.609 317.545 449.286 317.362C448.963 317.171 448.597 317.076 448.186 317.076C447.775 317.076 447.409 317.171 447.086 317.362C446.763 317.545 446.507 317.806 446.316 318.143C446.125 318.48 446.03 318.876 446.03 319.331C446.03 319.778 446.125 320.174 446.316 320.519C446.507 320.856 446.763 321.12 447.086 321.311C447.409 321.494 447.772 321.586 448.175 321.586Z" fill="black"/>
<path d="M556.503 322.224L560.023 314.524H560.826L564.346 322.224H563.488L560.254 314.997H560.584L557.35 322.224H556.503ZM557.889 320.167L558.131 319.507H562.608L562.85 320.167H557.889ZM568.436 322.279C567.93 322.279 567.475 322.165 567.072 321.938C566.669 321.703 566.35 321.366 566.115 320.926C565.88 320.486 565.763 319.954 565.763 319.331C565.763 318.7 565.88 318.169 566.115 317.736C566.357 317.296 566.68 316.962 567.083 316.735C567.486 316.508 567.937 316.394 568.436 316.394C568.986 316.394 569.477 316.519 569.91 316.768C570.35 317.01 570.695 317.351 570.944 317.791C571.193 318.231 571.318 318.744 571.318 319.331C571.318 319.91 571.193 320.424 570.944 320.871C570.695 321.311 570.35 321.656 569.91 321.905C569.477 322.154 568.986 322.279 568.436 322.279ZM565.455 322.224V314.062H566.236V318.154L566.126 319.32L566.203 320.486V322.224H565.455ZM568.381 321.586C568.792 321.586 569.158 321.494 569.481 321.311C569.804 321.12 570.06 320.856 570.251 320.519C570.442 320.174 570.537 319.778 570.537 319.331C570.537 318.876 570.442 318.48 570.251 318.143C570.06 317.806 569.804 317.545 569.481 317.362C569.158 317.171 568.792 317.076 568.381 317.076C567.97 317.076 567.6 317.171 567.27 317.362C566.947 317.545 566.691 317.806 566.5 318.143C566.317 318.48 566.225 318.876 566.225 319.331C566.225 319.778 566.317 320.174 566.5 320.519C566.691 320.856 566.947 321.12 567.27 321.311C567.6 321.494 567.97 321.586 568.381 321.586ZM572.91 322.224V316.449H573.658V318.022L573.581 317.747C573.742 317.307 574.014 316.973 574.395 316.746C574.776 316.511 575.249 316.394 575.814 316.394V317.153C575.785 317.153 575.755 317.153 575.726 317.153C575.697 317.146 575.667 317.142 575.638 317.142C575.029 317.142 574.553 317.329 574.208 317.703C573.863 318.07 573.691 318.594 573.691 319.276V322.224H572.91ZM577.239 322.224V316.449H578.02V322.224H577.239ZM577.635 315.173C577.474 315.173 577.338 315.118 577.228 315.008C577.118 314.898 577.063 314.766 577.063 314.612C577.063 314.458 577.118 314.33 577.228 314.227C577.338 314.117 577.474 314.062 577.635 314.062C577.796 314.062 577.932 314.113 578.042 314.216C578.152 314.319 578.207 314.447 578.207 314.601C578.207 314.762 578.152 314.898 578.042 315.008C577.939 315.118 577.804 315.173 577.635 315.173ZM580.193 322.224V314.062H580.974V322.224H580.193Z" fill="black"/>
<path d="M690.385 321.582V313.882H691.056L694.576 319.888H694.224L697.711 313.882H698.382V321.582H697.601V315.103H697.788L694.576 320.603H694.191L690.957 315.103H691.166V321.582H690.385ZM704.345 321.582V320.306L704.312 320.097V317.963C704.312 317.471 704.172 317.094 703.894 316.83C703.622 316.566 703.215 316.434 702.673 316.434C702.299 316.434 701.943 316.496 701.606 316.621C701.268 316.745 700.982 316.91 700.748 317.116L700.396 316.533C700.689 316.283 701.041 316.093 701.452 315.961C701.862 315.821 702.295 315.752 702.75 315.752C703.498 315.752 704.073 315.939 704.477 316.313C704.887 316.679 705.093 317.24 705.093 317.996V321.582H704.345ZM702.354 321.637C701.921 321.637 701.543 321.567 701.221 321.428C700.905 321.281 700.663 321.083 700.495 320.834C700.326 320.577 700.242 320.284 700.242 319.954C700.242 319.653 700.311 319.382 700.451 319.14C700.597 318.89 700.832 318.692 701.155 318.546C701.485 318.392 701.925 318.315 702.475 318.315H704.466V318.898H702.497C701.939 318.898 701.551 318.997 701.331 319.195C701.118 319.393 701.012 319.638 701.012 319.932C701.012 320.262 701.14 320.526 701.397 320.724C701.653 320.922 702.013 321.021 702.475 321.021C702.915 321.021 703.292 320.922 703.608 320.724C703.93 320.518 704.165 320.225 704.312 319.844L704.488 320.383C704.341 320.764 704.084 321.068 703.718 321.296C703.358 321.523 702.904 321.637 702.354 321.637ZM707.214 321.582V315.807H707.995V321.582H707.214ZM707.61 314.531C707.449 314.531 707.313 314.476 707.203 314.366C707.093 314.256 707.038 314.124 707.038 313.97C707.038 313.816 707.093 313.687 707.203 313.585C707.313 313.475 707.449 313.42 707.61 313.42C707.771 313.42 707.907 313.471 708.017 313.574C708.127 313.676 708.182 313.805 708.182 313.959C708.182 314.12 708.127 314.256 708.017 314.366C707.914 314.476 707.779 314.531 707.61 314.531ZM712.522 321.637C711.965 321.637 711.462 321.512 711.015 321.263C710.575 321.006 710.227 320.658 709.97 320.218C709.713 319.77 709.585 319.261 709.585 318.689C709.585 318.109 709.713 317.6 709.97 317.16C710.227 316.72 710.575 316.375 711.015 316.126C711.455 315.876 711.957 315.752 712.522 315.752C713.094 315.752 713.6 315.876 714.04 316.126C714.487 316.375 714.836 316.72 715.085 317.16C715.342 317.6 715.47 318.109 715.47 318.689C715.47 319.261 715.342 319.77 715.085 320.218C714.836 320.658 714.487 321.006 714.04 321.263C713.593 321.512 713.087 321.637 712.522 321.637ZM712.522 320.944C712.94 320.944 713.31 320.852 713.633 320.669C713.956 320.478 714.209 320.214 714.392 319.877C714.583 319.532 714.678 319.136 714.678 318.689C714.678 318.234 714.583 317.838 714.392 317.501C714.209 317.163 713.956 316.903 713.633 316.72C713.31 316.529 712.944 316.434 712.533 316.434C712.122 316.434 711.756 316.529 711.433 316.72C711.11 316.903 710.854 317.163 710.663 317.501C710.472 317.838 710.377 318.234 710.377 318.689C710.377 319.136 710.472 319.532 710.663 319.877C710.854 320.214 711.11 320.478 711.433 320.669C711.756 320.852 712.119 320.944 712.522 320.944Z" fill="black"/>
<path d="M817.389 321.648C816.956 321.648 816.549 321.552 816.168 321.362C815.794 321.171 815.493 320.9 815.266 320.548L815.739 319.998C815.951 320.306 816.197 320.54 816.476 320.702C816.754 320.863 817.062 320.944 817.4 320.944C818.353 320.944 818.83 320.379 818.83 319.25V314.586H816.014V313.882H819.633V319.217C819.633 320.031 819.442 320.639 819.061 321.043C818.687 321.446 818.129 321.648 817.389 321.648ZM824.296 321.637C823.805 321.637 823.376 321.545 823.009 321.362C822.643 321.178 822.357 320.903 822.151 320.537C821.953 320.17 821.854 319.712 821.854 319.162V315.807H822.635V319.074C822.635 319.69 822.786 320.155 823.086 320.471C823.394 320.779 823.823 320.933 824.373 320.933C824.777 320.933 825.125 320.852 825.418 320.691C825.719 320.522 825.946 320.28 826.1 319.965C826.262 319.649 826.342 319.272 826.342 318.832V315.807H827.123V321.582H826.375V319.998L826.496 320.284C826.313 320.709 826.027 321.043 825.638 321.285C825.257 321.519 824.81 321.637 824.296 321.637ZM832.248 315.752C832.717 315.752 833.128 315.843 833.48 316.027C833.839 316.203 834.118 316.474 834.316 316.841C834.521 317.207 834.624 317.669 834.624 318.227V321.582H833.843V318.304C833.843 317.695 833.689 317.237 833.381 316.929C833.08 316.613 832.655 316.456 832.105 316.456C831.694 316.456 831.335 316.54 831.027 316.709C830.726 316.87 830.492 317.108 830.323 317.424C830.162 317.732 830.081 318.106 830.081 318.546V321.582H829.3V315.807H830.048V317.391L829.927 317.094C830.11 316.676 830.404 316.349 830.807 316.115C831.21 315.873 831.691 315.752 832.248 315.752ZM839.682 315.752C840.151 315.752 840.562 315.843 840.914 316.027C841.273 316.203 841.552 316.474 841.75 316.841C841.955 317.207 842.058 317.669 842.058 318.227V321.582H841.277V318.304C841.277 317.695 841.123 317.237 840.815 316.929C840.514 316.613 840.089 316.456 839.539 316.456C839.128 316.456 838.769 316.54 838.461 316.709C838.16 316.87 837.925 317.108 837.757 317.424C837.595 317.732 837.515 318.106 837.515 318.546V321.582H836.734V313.42H837.515V317.391L837.361 317.094C837.544 316.676 837.837 316.349 838.241 316.115C838.644 315.873 839.124 315.752 839.682 315.752ZM846.521 321.637C845.964 321.637 845.461 321.512 845.014 321.263C844.574 321.006 844.226 320.658 843.969 320.218C843.712 319.77 843.584 319.261 843.584 318.689C843.584 318.109 843.712 317.6 843.969 317.16C844.226 316.72 844.574 316.375 845.014 316.126C845.454 315.876 845.956 315.752 846.521 315.752C847.093 315.752 847.599 315.876 848.039 316.126C848.486 316.375 848.835 316.72 849.084 317.16C849.341 317.6 849.469 318.109 849.469 318.689C849.469 319.261 849.341 319.77 849.084 320.218C848.835 320.658 848.486 321.006 848.039 321.263C847.592 321.512 847.086 321.637 846.521 321.637ZM846.521 320.944C846.939 320.944 847.309 320.852 847.632 320.669C847.955 320.478 848.208 320.214 848.391 319.877C848.582 319.532 848.677 319.136 848.677 318.689C848.677 318.234 848.582 317.838 848.391 317.501C848.208 317.163 847.955 316.903 847.632 316.72C847.309 316.529 846.943 316.434 846.532 316.434C846.121 316.434 845.755 316.529 845.432 316.72C845.109 316.903 844.853 317.163 844.662 317.501C844.471 317.838 844.376 318.234 844.376 318.689C844.376 319.136 844.471 319.532 844.662 319.877C844.853 320.214 845.109 320.478 845.432 320.669C845.755 320.852 846.118 320.944 846.521 320.944Z" fill="black"/>
<path d="M953.274 321.648C952.841 321.648 952.434 321.552 952.053 321.362C951.679 321.171 951.378 320.9 951.151 320.548L951.624 319.998C951.836 320.306 952.082 320.54 952.361 320.702C952.639 320.863 952.947 320.944 953.285 320.944C954.238 320.944 954.715 320.379 954.715 319.25V314.586H951.899V313.882H955.518V319.217C955.518 320.031 955.327 320.639 954.946 321.043C954.572 321.446 954.014 321.648 953.274 321.648ZM960.181 321.637C959.69 321.637 959.261 321.545 958.894 321.362C958.528 321.178 958.242 320.903 958.036 320.537C957.838 320.17 957.739 319.712 957.739 319.162V315.807H958.52V319.074C958.52 319.69 958.671 320.155 958.971 320.471C959.279 320.779 959.708 320.933 960.258 320.933C960.662 320.933 961.01 320.852 961.303 320.691C961.604 320.522 961.831 320.28 961.985 319.965C962.147 319.649 962.227 319.272 962.227 318.832V315.807H963.008V321.582H962.26V319.998L962.381 320.284C962.198 320.709 961.912 321.043 961.523 321.285C961.142 321.519 960.695 321.637 960.181 321.637ZM965.185 321.582V313.42H965.966V321.582H965.185ZM971.087 315.752C971.556 315.752 971.967 315.843 972.319 316.027C972.678 316.203 972.957 316.474 973.155 316.841C973.36 317.207 973.463 317.669 973.463 318.227V321.582H972.682V318.304C972.682 317.695 972.528 317.237 972.22 316.929C971.919 316.613 971.494 316.456 970.944 316.456C970.533 316.456 970.174 316.54 969.866 316.709C969.565 316.87 969.331 317.108 969.162 317.424C969.001 317.732 968.92 318.106 968.92 318.546V321.582H968.139V313.42H968.92V317.391L968.766 317.094C968.949 316.676 969.243 316.349 969.646 316.115C970.049 315.873 970.53 315.752 971.087 315.752ZM977.927 321.637C977.369 321.637 976.867 321.512 976.42 321.263C975.98 321.006 975.631 320.658 975.375 320.218C975.118 319.77 974.99 319.261 974.99 318.689C974.99 318.109 975.118 317.6 975.375 317.16C975.631 316.72 975.98 316.375 976.42 316.126C976.86 315.876 977.362 315.752 977.927 315.752C978.499 315.752 979.005 315.876 979.445 316.126C979.892 316.375 980.24 316.72 980.49 317.16C980.746 317.6 980.875 318.109 980.875 318.689C980.875 319.261 980.746 319.77 980.49 320.218C980.24 320.658 979.892 321.006 979.445 321.263C978.997 321.512 978.491 321.637 977.927 321.637ZM977.927 320.944C978.345 320.944 978.715 320.852 979.038 320.669C979.36 320.478 979.613 320.214 979.797 319.877C979.987 319.532 980.083 319.136 980.083 318.689C980.083 318.234 979.987 317.838 979.797 317.501C979.613 317.163 979.36 316.903 979.038 316.72C978.715 316.529 978.348 316.434 977.938 316.434C977.527 316.434 977.16 316.529 976.838 316.72C976.515 316.903 976.258 317.163 976.068 317.501C975.877 317.838 975.782 318.234 975.782 318.689C975.782 319.136 975.877 319.532 976.068 319.877C976.258 320.214 976.515 320.478 976.838 320.669C977.16 320.852 977.523 320.944 977.927 320.944Z" fill="black"/>
<path d="M337.473 63.1885V45.6885H345.423C347.323 45.6885 348.998 46.0551 350.448 46.7885C351.898 47.5051 353.032 48.5135 353.848 49.8135C354.665 51.1135 355.073 52.6551 355.073 54.4385C355.073 56.2051 354.665 57.7468 353.848 59.0635C353.032 60.3635 351.898 61.3801 350.448 62.1135C348.998 62.8301 347.323 63.1885 345.423 63.1885H337.473ZM341.523 59.8635H345.223C346.39 59.8635 347.398 59.6468 348.248 59.2135C349.115 58.7635 349.782 58.1301 350.248 57.3135C350.732 56.4968 350.973 55.5385 350.973 54.4385C350.973 53.3218 350.732 52.3635 350.248 51.5635C349.782 50.7468 349.115 50.1218 348.248 49.6885C347.398 49.2385 346.39 49.0135 345.223 49.0135H341.523V59.8635ZM364.528 63.3885C362.994 63.3885 361.644 63.0885 360.478 62.4885C359.328 61.8885 358.436 61.0718 357.803 60.0385C357.169 58.9885 356.853 57.7968 356.853 56.4635C356.853 55.1135 357.161 53.9218 357.778 52.8885C358.411 51.8385 359.269 51.0218 360.353 50.4385C361.436 49.8385 362.661 49.5385 364.028 49.5385C365.344 49.5385 366.528 49.8218 367.578 50.3885C368.644 50.9385 369.486 51.7385 370.103 52.7885C370.719 53.8218 371.028 55.0635 371.028 56.5135C371.028 56.6635 371.019 56.8385 371.003 57.0385C370.986 57.2218 370.969 57.3968 370.953 57.5635H360.028V55.2885H368.903L367.403 55.9635C367.403 55.2635 367.261 54.6551 366.978 54.1385C366.694 53.6218 366.303 53.2218 365.803 52.9385C365.303 52.6385 364.719 52.4885 364.053 52.4885C363.386 52.4885 362.794 52.6385 362.278 52.9385C361.778 53.2218 361.386 53.6301 361.103 54.1635C360.819 54.6801 360.678 55.2968 360.678 56.0135V56.6135C360.678 57.3468 360.836 57.9968 361.153 58.5635C361.486 59.1135 361.944 59.5385 362.528 59.8385C363.128 60.1218 363.828 60.2635 364.628 60.2635C365.344 60.2635 365.969 60.1551 366.503 59.9385C367.053 59.7218 367.553 59.3968 368.003 58.9635L370.078 61.2135C369.461 61.9135 368.686 62.4551 367.753 62.8385C366.819 63.2051 365.744 63.3885 364.528 63.3885ZM377.03 63.1885L371.38 49.7385H375.405L380.105 61.3135H378.105L382.98 49.7385H386.73L381.055 63.1885H377.03ZM394.355 63.3885C392.922 63.3885 391.647 63.0885 390.53 62.4885C389.43 61.8885 388.555 61.0718 387.905 60.0385C387.272 58.9885 386.955 57.7968 386.955 56.4635C386.955 55.1135 387.272 53.9218 387.905 52.8885C388.555 51.8385 389.43 51.0218 390.53 50.4385C391.647 49.8385 392.922 49.5385 394.355 49.5385C395.772 49.5385 397.039 49.8385 398.155 50.4385C399.272 51.0218 400.147 51.8301 400.78 52.8635C401.414 53.8968 401.73 55.0968 401.73 56.4635C401.73 57.7968 401.414 58.9885 400.78 60.0385C400.147 61.0718 399.272 61.8885 398.155 62.4885C397.039 63.0885 395.772 63.3885 394.355 63.3885ZM394.355 60.1885C395.005 60.1885 395.589 60.0385 396.105 59.7385C396.622 59.4385 397.03 59.0135 397.33 58.4635C397.63 57.8968 397.78 57.2301 397.78 56.4635C397.78 55.6801 397.63 55.0135 397.33 54.4635C397.03 53.9135 396.622 53.4885 396.105 53.1885C395.589 52.8885 395.005 52.7385 394.355 52.7385C393.705 52.7385 393.122 52.8885 392.605 53.1885C392.089 53.4885 391.672 53.9135 391.355 54.4635C391.055 55.0135 390.905 55.6801 390.905 56.4635C390.905 57.2301 391.055 57.8968 391.355 58.4635C391.672 59.0135 392.089 59.4385 392.605 59.7385C393.122 60.0385 393.705 60.1885 394.355 60.1885ZM404.337 63.1885V44.6385H408.237V63.1885H404.337ZM417.532 63.3885C416.415 63.3885 415.415 63.1718 414.532 62.7385C413.665 62.3051 412.99 61.6468 412.507 60.7635C412.023 59.8635 411.782 58.7218 411.782 57.3385V49.7385H415.682V56.7635C415.682 57.8801 415.915 58.7051 416.382 59.2385C416.865 59.7551 417.54 60.0135 418.407 60.0135C419.007 60.0135 419.54 59.8885 420.007 59.6385C420.473 59.3718 420.84 58.9718 421.107 58.4385C421.373 57.8885 421.507 57.2051 421.507 56.3885V49.7385H425.407V63.1885H421.707V59.4885L422.382 60.5635C421.932 61.4968 421.265 62.2051 420.382 62.6885C419.515 63.1551 418.565 63.3885 417.532 63.3885ZM435.52 63.3885C434.07 63.3885 432.778 63.0968 431.645 62.5135C430.511 61.9135 429.62 61.0885 428.97 60.0385C428.336 58.9885 428.02 57.7968 428.02 56.4635C428.02 55.1135 428.336 53.9218 428.97 52.8885C429.62 51.8385 430.511 51.0218 431.645 50.4385C432.778 49.8385 434.07 49.5385 435.52 49.5385C436.936 49.5385 438.17 49.8385 439.22 50.4385C440.27 51.0218 441.045 51.8635 441.545 52.9635L438.52 54.5885C438.17 53.9551 437.728 53.4885 437.195 53.1885C436.678 52.8885 436.111 52.7385 435.495 52.7385C434.828 52.7385 434.228 52.8885 433.695 53.1885C433.161 53.4885 432.736 53.9135 432.42 54.4635C432.12 55.0135 431.97 55.6801 431.97 56.4635C431.97 57.2468 432.12 57.9135 432.42 58.4635C432.736 59.0135 433.161 59.4385 433.695 59.7385C434.228 60.0385 434.828 60.1885 435.495 60.1885C436.111 60.1885 436.678 60.0468 437.195 59.7635C437.728 59.4635 438.17 58.9885 438.52 58.3385L441.545 59.9885C441.045 61.0718 440.27 61.9135 439.22 62.5135C438.17 63.0968 436.936 63.3885 435.52 63.3885ZM434.095 68.9885C433.661 68.9885 433.236 68.9385 432.82 68.8385C432.42 68.7385 432.07 68.6135 431.77 68.4635L432.37 66.7885C432.62 66.9051 432.878 66.9968 433.145 67.0635C433.411 67.1301 433.695 67.1635 433.995 67.1635C434.461 67.1635 434.795 67.0885 434.995 66.9385C435.195 66.7885 435.295 66.5968 435.295 66.3635C435.295 66.1468 435.195 65.9718 434.995 65.8385C434.811 65.7051 434.503 65.6385 434.07 65.6385H433.22L433.87 62.9885H435.945L435.595 64.4385C436.345 64.5218 436.895 64.7551 437.245 65.1385C437.595 65.5385 437.77 65.9968 437.77 66.5135C437.77 67.2635 437.436 67.8635 436.77 68.3135C436.103 68.7635 435.211 68.9885 434.095 68.9885ZM452.04 63.1885V60.5635L451.79 59.9885V55.2885C451.79 54.4551 451.532 53.8051 451.015 53.3385C450.515 52.8718 449.74 52.6385 448.69 52.6385C447.974 52.6385 447.265 52.7551 446.565 52.9885C445.882 53.2051 445.299 53.5051 444.815 53.8885L443.415 51.1635C444.149 50.6468 445.032 50.2468 446.065 49.9635C447.099 49.6801 448.149 49.5385 449.215 49.5385C451.265 49.5385 452.857 50.0218 453.99 50.9885C455.124 51.9551 455.69 53.4635 455.69 55.5135V63.1885H452.04ZM447.94 63.3885C446.89 63.3885 445.99 63.2135 445.24 62.8635C444.49 62.4968 443.915 62.0051 443.515 61.3885C443.115 60.7718 442.915 60.0801 442.915 59.3135C442.915 58.5135 443.107 57.8135 443.49 57.2135C443.89 56.6135 444.515 56.1468 445.365 55.8135C446.215 55.4635 447.324 55.2885 448.69 55.2885H452.265V57.5635H449.115C448.199 57.5635 447.565 57.7135 447.215 58.0135C446.882 58.3135 446.715 58.6885 446.715 59.1385C446.715 59.6385 446.907 60.0385 447.29 60.3385C447.69 60.6218 448.232 60.7635 448.915 60.7635C449.565 60.7635 450.149 60.6135 450.665 60.3135C451.182 59.9968 451.557 59.5385 451.79 58.9385L452.39 60.7385C452.107 61.6051 451.59 62.2635 450.84 62.7135C450.09 63.1635 449.124 63.3885 447.94 63.3885ZM451.49 48.0885C451.057 48.0885 450.674 48.0135 450.34 47.8635C450.007 47.6968 449.707 47.5135 449.44 47.3135C449.174 47.0968 448.924 46.9135 448.69 46.7635C448.457 46.5968 448.224 46.5135 447.99 46.5135C447.657 46.5135 447.382 46.6385 447.165 46.8885C446.949 47.1218 446.824 47.4635 446.79 47.9135H444.815C444.849 46.7968 445.124 45.9135 445.64 45.2635C446.157 44.5968 446.857 44.2635 447.74 44.2635C448.174 44.2635 448.557 44.3468 448.89 44.5135C449.224 44.6635 449.524 44.8468 449.79 45.0635C450.074 45.2801 450.332 45.4718 450.565 45.6385C450.799 45.7885 451.024 45.8635 451.24 45.8635C451.59 45.8635 451.874 45.7468 452.09 45.5135C452.307 45.2635 452.424 44.9301 452.44 44.5135H454.415C454.399 45.5801 454.124 46.4468 453.59 47.1135C453.074 47.7635 452.374 48.0885 451.49 48.0885ZM465.718 63.3885C464.284 63.3885 463.009 63.0885 461.893 62.4885C460.793 61.8885 459.918 61.0718 459.268 60.0385C458.634 58.9885 458.318 57.7968 458.318 56.4635C458.318 55.1135 458.634 53.9218 459.268 52.8885C459.918 51.8385 460.793 51.0218 461.893 50.4385C463.009 49.8385 464.284 49.5385 465.718 49.5385C467.134 49.5385 468.401 49.8385 469.518 50.4385C470.634 51.0218 471.509 51.8301 472.143 52.8635C472.776 53.8968 473.093 55.0968 473.093 56.4635C473.093 57.7968 472.776 58.9885 472.143 60.0385C471.509 61.0718 470.634 61.8885 469.518 62.4885C468.401 63.0885 467.134 63.3885 465.718 63.3885ZM465.718 60.1885C466.368 60.1885 466.951 60.0385 467.468 59.7385C467.984 59.4385 468.393 59.0135 468.693 58.4635C468.993 57.8968 469.143 57.2301 469.143 56.4635C469.143 55.6801 468.993 55.0135 468.693 54.4635C468.393 53.9135 467.984 53.4885 467.468 53.1885C466.951 52.8885 466.368 52.7385 465.718 52.7385C465.068 52.7385 464.484 52.8885 463.968 53.1885C463.451 53.4885 463.034 53.9135 462.718 54.4635C462.418 55.0135 462.268 55.6801 462.268 56.4635C462.268 57.2301 462.418 57.8968 462.718 58.4635C463.034 59.0135 463.451 59.4385 463.968 59.7385C464.484 60.0385 465.068 60.1885 465.718 60.1885ZM485.929 68.0385C484.929 66.5218 484.154 64.7718 483.604 62.7885C483.071 60.7885 482.804 58.6385 482.804 56.3385C482.804 54.0385 483.071 51.8885 483.604 49.8885C484.154 47.8718 484.929 46.1218 485.929 44.6385H489.654C488.604 46.5218 487.838 48.4218 487.354 50.3385C486.871 52.2385 486.629 54.2385 486.629 56.3385C486.629 58.4385 486.871 60.4468 487.354 62.3635C487.838 64.2635 488.604 66.1551 489.654 68.0385H485.929ZM508.94 49.5385C510.007 49.5385 510.948 49.7551 511.765 50.1885C512.598 50.6051 513.248 51.2551 513.715 52.1385C514.198 53.0051 514.44 54.1218 514.44 55.4885V63.1885H510.54V56.0885C510.54 55.0051 510.315 54.2051 509.865 53.6885C509.415 53.1718 508.782 52.9135 507.965 52.9135C507.398 52.9135 506.89 53.0468 506.44 53.3135C505.99 53.5635 505.64 53.9468 505.39 54.4635C505.14 54.9801 505.015 55.6385 505.015 56.4385V63.1885H501.115V56.0885C501.115 55.0051 500.89 54.2051 500.44 53.6885C500.007 53.1718 499.382 52.9135 498.565 52.9135C497.998 52.9135 497.49 53.0468 497.04 53.3135C496.59 53.5635 496.24 53.9468 495.99 54.4635C495.74 54.9801 495.615 55.6385 495.615 56.4385V63.1885H491.715V49.7385H495.44V53.4135L494.74 52.3385C495.207 51.4218 495.865 50.7301 496.715 50.2635C497.582 49.7801 498.565 49.5385 499.665 49.5385C500.898 49.5385 501.973 49.8551 502.89 50.4885C503.823 51.1051 504.44 52.0551 504.74 53.3385L503.365 52.9635C503.815 51.9135 504.532 51.0801 505.515 50.4635C506.515 49.8468 507.657 49.5385 508.94 49.5385ZM524.708 63.3885C523.175 63.3885 521.825 63.0885 520.658 62.4885C519.508 61.8885 518.617 61.0718 517.983 60.0385C517.35 58.9885 517.033 57.7968 517.033 56.4635C517.033 55.1135 517.342 53.9218 517.958 52.8885C518.592 51.8385 519.45 51.0218 520.533 50.4385C521.617 49.8385 522.842 49.5385 524.208 49.5385C525.525 49.5385 526.708 49.8218 527.758 50.3885C528.825 50.9385 529.667 51.7385 530.283 52.7885C530.9 53.8218 531.208 55.0635 531.208 56.5135C531.208 56.6635 531.2 56.8385 531.183 57.0385C531.167 57.2218 531.15 57.3968 531.133 57.5635H520.208V55.2885H529.083L527.583 55.9635C527.583 55.2635 527.442 54.6551 527.158 54.1385C526.875 53.6218 526.483 53.2218 525.983 52.9385C525.483 52.6385 524.9 52.4885 524.233 52.4885C523.567 52.4885 522.975 52.6385 522.458 52.9385C521.958 53.2218 521.567 53.6301 521.283 54.1635C521 54.6801 520.858 55.2968 520.858 56.0135V56.6135C520.858 57.3468 521.017 57.9968 521.333 58.5635C521.667 59.1135 522.125 59.5385 522.708 59.8385C523.308 60.1218 524.008 60.2635 524.808 60.2635C525.525 60.2635 526.15 60.1551 526.683 59.9385C527.233 59.7218 527.733 59.3968 528.183 58.9635L530.258 61.2135C529.642 61.9135 528.867 62.4551 527.933 62.8385C527 63.2051 525.925 63.3885 524.708 63.3885ZM541.98 49.5385C543.047 49.5385 543.997 49.7551 544.83 50.1885C545.68 50.6051 546.347 51.2551 546.83 52.1385C547.313 53.0051 547.555 54.1218 547.555 55.4885V63.1885H543.655V56.0885C543.655 55.0051 543.413 54.2051 542.93 53.6885C542.463 53.1718 541.797 52.9135 540.93 52.9135C540.313 52.9135 539.755 53.0468 539.255 53.3135C538.772 53.5635 538.388 53.9551 538.105 54.4885C537.838 55.0218 537.705 55.7051 537.705 56.5385V63.1885H533.805V49.7385H537.53V53.4635L536.83 52.3385C537.313 51.4385 538.005 50.7468 538.905 50.2635C539.805 49.7801 540.83 49.5385 541.98 49.5385ZM555.615 63.3885C554.465 63.3885 553.357 63.2551 552.29 62.9885C551.24 62.7051 550.407 62.3551 549.79 61.9385L551.09 59.1385C551.707 59.5218 552.432 59.8385 553.265 60.0885C554.115 60.3218 554.948 60.4385 555.765 60.4385C556.665 60.4385 557.298 60.3301 557.665 60.1135C558.048 59.8968 558.24 59.5968 558.24 59.2135C558.24 58.8968 558.09 58.6635 557.79 58.5135C557.507 58.3468 557.123 58.2218 556.64 58.1385C556.157 58.0551 555.623 57.9718 555.04 57.8885C554.473 57.8051 553.898 57.6968 553.315 57.5635C552.732 57.4135 552.198 57.1968 551.715 56.9135C551.232 56.6301 550.84 56.2468 550.54 55.7635C550.257 55.2801 550.115 54.6551 550.115 53.8885C550.115 53.0385 550.357 52.2885 550.84 51.6385C551.34 50.9885 552.057 50.4801 552.99 50.1135C553.923 49.7301 555.04 49.5385 556.34 49.5385C557.257 49.5385 558.19 49.6385 559.14 49.8385C560.09 50.0385 560.882 50.3301 561.515 50.7135L560.215 53.4885C559.565 53.1051 558.907 52.8468 558.24 52.7135C557.59 52.5635 556.957 52.4885 556.34 52.4885C555.473 52.4885 554.84 52.6051 554.44 52.8385C554.04 53.0718 553.84 53.3718 553.84 53.7385C553.84 54.0718 553.982 54.3218 554.265 54.4885C554.565 54.6551 554.957 54.7885 555.44 54.8885C555.923 54.9885 556.448 55.0801 557.015 55.1635C557.598 55.2301 558.182 55.3385 558.765 55.4885C559.348 55.6385 559.873 55.8551 560.34 56.1385C560.823 56.4051 561.215 56.7801 561.515 57.2635C561.815 57.7301 561.965 58.3468 561.965 59.1135C561.965 59.9468 561.715 60.6885 561.215 61.3385C560.715 61.9718 559.99 62.4718 559.04 62.8385C558.107 63.2051 556.965 63.3885 555.615 63.3885ZM572.621 63.1885V60.5635L572.371 59.9885V55.2885C572.371 54.4551 572.113 53.8051 571.596 53.3385C571.096 52.8718 570.321 52.6385 569.271 52.6385C568.555 52.6385 567.846 52.7551 567.146 52.9885C566.463 53.2051 565.88 53.5051 565.396 53.8885L563.996 51.1635C564.73 50.6468 565.613 50.2468 566.646 49.9635C567.68 49.6801 568.73 49.5385 569.796 49.5385C571.846 49.5385 573.438 50.0218 574.571 50.9885C575.705 51.9551 576.271 53.4635 576.271 55.5135V63.1885H572.621ZM568.521 63.3885C567.471 63.3885 566.571 63.2135 565.821 62.8635C565.071 62.4968 564.496 62.0051 564.096 61.3885C563.696 60.7718 563.496 60.0801 563.496 59.3135C563.496 58.5135 563.688 57.8135 564.071 57.2135C564.471 56.6135 565.096 56.1468 565.946 55.8135C566.796 55.4635 567.905 55.2885 569.271 55.2885H572.846V57.5635H569.696C568.78 57.5635 568.146 57.7135 567.796 58.0135C567.463 58.3135 567.296 58.6885 567.296 59.1385C567.296 59.6385 567.488 60.0385 567.871 60.3385C568.271 60.6218 568.813 60.7635 569.496 60.7635C570.146 60.7635 570.73 60.6135 571.246 60.3135C571.763 59.9968 572.138 59.5385 572.371 58.9385L572.971 60.7385C572.688 61.6051 572.171 62.2635 571.421 62.7135C570.671 63.1635 569.705 63.3885 568.521 63.3885ZM579.801 63.1885V44.6385H583.701V63.1885H579.801ZM589.496 68.0385H585.771C586.854 66.1551 587.629 64.2635 588.096 62.3635C588.579 60.4468 588.821 58.4385 588.821 56.3385C588.821 54.2385 588.579 52.2385 588.096 50.3385C587.629 48.4218 586.854 46.5218 585.771 44.6385H589.496C590.529 46.1218 591.312 47.8718 591.846 49.8885C592.379 51.8885 592.646 54.0385 592.646 56.3385C592.646 58.6385 592.379 60.7885 591.846 62.7885C591.312 64.7718 590.529 66.5218 589.496 68.0385Z" fill="black"/>
<rect x="571.58" y="264.041" width="48.5303" height="19.9155" fill="#912F13"/>
<path d="M376.254 359V351.3H379.389C380.21 351.3 380.929 351.465 381.545 351.795C382.168 352.118 382.652 352.569 382.997 353.148C383.342 353.727 383.514 354.395 383.514 355.15C383.514 355.905 383.342 356.573 382.997 357.152C382.652 357.731 382.168 358.186 381.545 358.516C380.929 358.839 380.21 359 379.389 359H376.254ZM377.068 358.296H379.345C380.027 358.296 380.617 358.164 381.116 357.9C381.622 357.629 382.014 357.258 382.293 356.789C382.572 356.312 382.711 355.766 382.711 355.15C382.711 354.527 382.572 353.98 382.293 353.511C382.014 353.042 381.622 352.675 381.116 352.411C380.617 352.14 380.027 352.004 379.345 352.004H377.068V358.296ZM387.63 359.055C387.029 359.055 386.501 358.93 386.046 358.681C385.591 358.424 385.236 358.076 384.979 357.636C384.722 357.189 384.594 356.679 384.594 356.107C384.594 355.535 384.715 355.029 384.957 354.589C385.206 354.149 385.544 353.804 385.969 353.555C386.402 353.298 386.886 353.17 387.421 353.17C387.964 353.17 388.444 353.295 388.862 353.544C389.287 353.786 389.621 354.131 389.863 354.578C390.105 355.018 390.226 355.528 390.226 356.107C390.226 356.144 390.222 356.184 390.215 356.228C390.215 356.265 390.215 356.305 390.215 356.349H385.188V355.766H389.797L389.489 355.997C389.489 355.579 389.397 355.209 389.214 354.886C389.038 354.556 388.796 354.299 388.488 354.116C388.18 353.933 387.824 353.841 387.421 353.841C387.025 353.841 386.669 353.933 386.354 354.116C386.039 354.299 385.793 354.556 385.617 354.886C385.441 355.216 385.353 355.594 385.353 356.019V356.14C385.353 356.58 385.448 356.969 385.639 357.306C385.837 357.636 386.108 357.896 386.453 358.087C386.805 358.27 387.205 358.362 387.652 358.362C388.004 358.362 388.33 358.3 388.631 358.175C388.939 358.05 389.203 357.86 389.423 357.603L389.863 358.109C389.606 358.417 389.284 358.652 388.895 358.813C388.514 358.974 388.092 359.055 387.63 359.055ZM394.764 353.17C395.233 353.17 395.644 353.262 395.996 353.445C396.355 353.621 396.634 353.892 396.832 354.259C397.037 354.626 397.14 355.088 397.14 355.645V359H396.359V355.722C396.359 355.113 396.205 354.655 395.897 354.347C395.596 354.032 395.171 353.874 394.621 353.874C394.21 353.874 393.851 353.958 393.543 354.127C393.242 354.288 393.007 354.527 392.839 354.842C392.677 355.15 392.597 355.524 392.597 355.964V359H391.816V353.225H392.564V354.809L392.443 354.512C392.626 354.094 392.919 353.768 393.323 353.533C393.726 353.291 394.206 353.17 394.764 353.17ZM401.075 359.055C400.532 359.055 400.114 358.908 399.821 358.615C399.528 358.322 399.381 357.907 399.381 357.372V351.949H400.162V357.328C400.162 357.665 400.246 357.926 400.415 358.109C400.591 358.292 400.84 358.384 401.163 358.384C401.508 358.384 401.794 358.285 402.021 358.087L402.296 358.648C402.142 358.787 401.955 358.89 401.735 358.956C401.522 359.022 401.302 359.055 401.075 359.055ZM398.347 353.874V353.225H401.922V353.874H398.347ZM403.718 359V353.225H404.466V354.798L404.389 354.523C404.55 354.083 404.822 353.749 405.203 353.522C405.584 353.287 406.057 353.17 406.622 353.17V353.929C406.593 353.929 406.563 353.929 406.534 353.929C406.505 353.922 406.475 353.918 406.446 353.918C405.837 353.918 405.361 354.105 405.016 354.479C404.671 354.846 404.499 355.37 404.499 356.052V359H403.718ZM410.347 359.055C409.79 359.055 409.288 358.93 408.84 358.681C408.4 358.424 408.052 358.076 407.795 357.636C407.539 357.189 407.41 356.679 407.41 356.107C407.41 355.528 407.539 355.018 407.795 354.578C408.052 354.138 408.4 353.793 408.84 353.544C409.28 353.295 409.783 353.17 410.347 353.17C410.919 353.17 411.425 353.295 411.865 353.544C412.313 353.793 412.661 354.138 412.91 354.578C413.167 355.018 413.295 355.528 413.295 356.107C413.295 356.679 413.167 357.189 412.91 357.636C412.661 358.076 412.313 358.424 411.865 358.681C411.418 358.93 410.912 359.055 410.347 359.055ZM410.347 358.362C410.765 358.362 411.136 358.27 411.458 358.087C411.781 357.896 412.034 357.632 412.217 357.295C412.408 356.95 412.503 356.554 412.503 356.107C412.503 355.652 412.408 355.256 412.217 354.919C412.034 354.582 411.781 354.321 411.458 354.138C411.136 353.947 410.769 353.852 410.358 353.852C409.948 353.852 409.581 353.947 409.258 354.138C408.936 354.321 408.679 354.582 408.488 354.919C408.298 355.256 408.202 355.652 408.202 356.107C408.202 356.554 408.298 356.95 408.488 357.295C408.679 357.632 408.936 357.896 409.258 358.087C409.581 358.27 409.944 358.362 410.347 358.362ZM420.068 359.055C419.518 359.055 419.023 358.93 418.583 358.681C418.15 358.432 417.809 358.087 417.56 357.647C417.31 357.2 417.186 356.686 417.186 356.107C417.186 355.52 417.31 355.007 417.56 354.567C417.809 354.127 418.15 353.786 418.583 353.544C419.023 353.295 419.518 353.17 420.068 353.17C420.574 353.17 421.025 353.284 421.421 353.511C421.824 353.738 422.143 354.072 422.378 354.512C422.62 354.945 422.741 355.476 422.741 356.107C422.741 356.73 422.623 357.262 422.389 357.702C422.154 358.142 421.835 358.479 421.432 358.714C421.036 358.941 420.581 359.055 420.068 359.055ZM420.123 358.362C420.533 358.362 420.9 358.27 421.223 358.087C421.553 357.896 421.809 357.632 421.993 357.295C422.183 356.95 422.279 356.554 422.279 356.107C422.279 355.652 422.183 355.256 421.993 354.919C421.809 354.582 421.553 354.321 421.223 354.138C420.9 353.947 420.533 353.852 420.123 353.852C419.719 353.852 419.356 353.947 419.034 354.138C418.711 354.321 418.454 354.582 418.264 354.919C418.073 355.256 417.978 355.652 417.978 356.107C417.978 356.554 418.073 356.95 418.264 357.295C418.454 357.632 418.711 357.896 419.034 358.087C419.356 358.27 419.719 358.362 420.123 358.362ZM422.301 359V357.262L422.378 356.096L422.268 354.93V350.838H423.049V359H422.301ZM427.578 359.055C427.02 359.055 426.518 358.93 426.071 358.681C425.631 358.424 425.282 358.076 425.026 357.636C424.769 357.189 424.641 356.679 424.641 356.107C424.641 355.528 424.769 355.018 425.026 354.578C425.282 354.138 425.631 353.793 426.071 353.544C426.511 353.295 427.013 353.17 427.578 353.17C428.15 353.17 428.656 353.295 429.096 353.544C429.543 353.793 429.891 354.138 430.141 354.578C430.397 355.018 430.526 355.528 430.526 356.107C430.526 356.679 430.397 357.189 430.141 357.636C429.891 358.076 429.543 358.424 429.096 358.681C428.648 358.93 428.142 359.055 427.578 359.055ZM427.578 358.362C427.996 358.362 428.366 358.27 428.689 358.087C429.011 357.896 429.264 357.632 429.448 357.295C429.638 356.95 429.734 356.554 429.734 356.107C429.734 355.652 429.638 355.256 429.448 354.919C429.264 354.582 429.011 354.321 428.689 354.138C428.366 353.947 427.999 353.852 427.589 353.852C427.178 353.852 426.811 353.947 426.489 354.138C426.166 354.321 425.909 354.582 425.719 354.919C425.528 355.256 425.433 355.652 425.433 356.107C425.433 356.554 425.528 356.95 425.719 357.295C425.909 357.632 426.166 357.896 426.489 358.087C426.811 358.27 427.174 358.362 427.578 358.362ZM437.98 359.055C437.481 359.055 437.03 358.941 436.627 358.714C436.224 358.479 435.901 358.146 435.659 357.713C435.424 357.273 435.307 356.738 435.307 356.107C435.307 355.476 435.424 354.945 435.659 354.512C435.894 354.072 436.213 353.738 436.616 353.511C437.019 353.284 437.474 353.17 437.98 353.17C438.53 353.17 439.021 353.295 439.454 353.544C439.894 353.786 440.239 354.131 440.488 354.578C440.737 355.018 440.862 355.528 440.862 356.107C440.862 356.694 440.737 357.207 440.488 357.647C440.239 358.087 439.894 358.432 439.454 358.681C439.021 358.93 438.53 359.055 437.98 359.055ZM434.999 361.134V353.225H435.747V354.963L435.67 356.118L435.78 357.284V361.134H434.999ZM437.925 358.362C438.336 358.362 438.702 358.27 439.025 358.087C439.348 357.896 439.604 357.632 439.795 357.295C439.986 356.95 440.081 356.554 440.081 356.107C440.081 355.66 439.986 355.267 439.795 354.93C439.604 354.593 439.348 354.329 439.025 354.138C438.702 353.947 438.336 353.852 437.925 353.852C437.514 353.852 437.144 353.947 436.814 354.138C436.491 354.329 436.235 354.593 436.044 354.93C435.861 355.267 435.769 355.66 435.769 356.107C435.769 356.554 435.861 356.95 436.044 357.295C436.235 357.632 436.491 357.896 436.814 358.087C437.144 358.27 437.514 358.362 437.925 358.362ZM442.454 359V353.225H443.202V354.798L443.125 354.523C443.287 354.083 443.558 353.749 443.939 353.522C444.321 353.287 444.794 353.17 445.358 353.17V353.929C445.329 353.929 445.3 353.929 445.27 353.929C445.241 353.922 445.212 353.918 445.182 353.918C444.574 353.918 444.097 354.105 443.752 354.479C443.408 354.846 443.235 355.37 443.235 356.052V359H442.454ZM449.973 359V357.724L449.94 357.515V355.381C449.94 354.89 449.8 354.512 449.522 354.248C449.25 353.984 448.843 353.852 448.301 353.852C447.927 353.852 447.571 353.914 447.234 354.039C446.896 354.164 446.61 354.329 446.376 354.534L446.024 353.951C446.317 353.702 446.669 353.511 447.08 353.379C447.49 353.24 447.923 353.17 448.378 353.17C449.126 353.17 449.701 353.357 450.105 353.731C450.515 354.098 450.721 354.659 450.721 355.414V359H449.973ZM447.982 359.055C447.549 359.055 447.171 358.985 446.849 358.846C446.533 358.699 446.291 358.501 446.123 358.252C445.954 357.995 445.87 357.702 445.87 357.372C445.87 357.071 445.939 356.8 446.079 356.558C446.225 356.309 446.46 356.111 446.783 355.964C447.113 355.81 447.553 355.733 448.103 355.733H450.094V356.316H448.125C447.567 356.316 447.179 356.415 446.959 356.613C446.746 356.811 446.64 357.057 446.64 357.35C446.64 357.68 446.768 357.944 447.025 358.142C447.281 358.34 447.641 358.439 448.103 358.439C448.543 358.439 448.92 358.34 449.236 358.142C449.558 357.937 449.793 357.643 449.94 357.262L450.116 357.801C449.969 358.182 449.712 358.487 449.346 358.714C448.986 358.941 448.532 359.055 447.982 359.055ZM452.215 359V358.483L456.065 353.61L456.23 353.874H452.281V353.225H456.846V353.731L453.007 358.615L452.809 358.351H456.923V359H452.215ZM460.717 359.055C460.16 359.055 459.658 358.93 459.21 358.681C458.77 358.424 458.422 358.076 458.165 357.636C457.909 357.189 457.78 356.679 457.78 356.107C457.78 355.528 457.909 355.018 458.165 354.578C458.422 354.138 458.77 353.793 459.21 353.544C459.65 353.295 460.153 353.17 460.717 353.17C461.289 353.17 461.795 353.295 462.235 353.544C462.683 353.793 463.031 354.138 463.28 354.578C463.537 355.018 463.665 355.528 463.665 356.107C463.665 356.679 463.537 357.189 463.28 357.636C463.031 358.076 462.683 358.424 462.235 358.681C461.788 358.93 461.282 359.055 460.717 359.055ZM460.717 358.362C461.135 358.362 461.506 358.27 461.828 358.087C462.151 357.896 462.404 357.632 462.587 357.295C462.778 356.95 462.873 356.554 462.873 356.107C462.873 355.652 462.778 355.256 462.587 354.919C462.404 354.582 462.151 354.321 461.828 354.138C461.506 353.947 461.139 353.852 460.728 353.852C460.318 353.852 459.951 353.947 459.628 354.138C459.306 354.321 459.049 354.582 458.858 354.919C458.668 355.256 458.572 355.652 458.572 356.107C458.572 356.554 458.668 356.95 458.858 357.295C459.049 357.632 459.306 357.896 459.628 358.087C459.951 358.27 460.314 358.362 460.717 358.362Z" fill="black"/>
<path d="M602.98 357.029H607.05V357.733H602.98V357.029ZM603.068 361H602.254V353.3H607.534V354.004H603.068V361ZM611.211 361.055C610.653 361.055 610.151 360.93 609.704 360.681C609.264 360.424 608.915 360.076 608.659 359.636C608.402 359.189 608.274 358.679 608.274 358.107C608.274 357.528 608.402 357.018 608.659 356.578C608.915 356.138 609.264 355.793 609.704 355.544C610.144 355.295 610.646 355.17 611.211 355.17C611.783 355.17 612.289 355.295 612.729 355.544C613.176 355.793 613.524 356.138 613.774 356.578C614.03 357.018 614.159 357.528 614.159 358.107C614.159 358.679 614.03 359.189 613.774 359.636C613.524 360.076 613.176 360.424 612.729 360.681C612.281 360.93 611.775 361.055 611.211 361.055ZM611.211 360.362C611.629 360.362 611.999 360.27 612.322 360.087C612.644 359.896 612.897 359.632 613.081 359.295C613.271 358.95 613.367 358.554 613.367 358.107C613.367 357.652 613.271 357.256 613.081 356.919C612.897 356.582 612.644 356.321 612.322 356.138C611.999 355.947 611.632 355.852 611.222 355.852C610.811 355.852 610.444 355.947 610.122 356.138C609.799 356.321 609.542 356.582 609.352 356.919C609.161 357.256 609.066 357.652 609.066 358.107C609.066 358.554 609.161 358.95 609.352 359.295C609.542 359.632 609.799 359.896 610.122 360.087C610.444 360.27 610.807 360.362 611.211 360.362ZM615.753 361V355.225H616.501V356.798L616.424 356.523C616.585 356.083 616.857 355.749 617.238 355.522C617.619 355.287 618.092 355.17 618.657 355.17V355.929C618.628 355.929 618.598 355.929 618.569 355.929C618.54 355.922 618.51 355.918 618.481 355.918C617.872 355.918 617.396 356.105 617.051 356.479C616.706 356.846 616.534 357.37 616.534 358.052V361H615.753ZM623.271 361V359.724L623.238 359.515V357.381C623.238 356.89 623.099 356.512 622.82 356.248C622.549 355.984 622.142 355.852 621.599 355.852C621.225 355.852 620.87 355.914 620.532 356.039C620.195 356.164 619.909 356.329 619.674 356.534L619.322 355.951C619.616 355.702 619.968 355.511 620.378 355.379C620.789 355.24 621.222 355.17 621.676 355.17C622.424 355.17 623 355.357 623.403 355.731C623.814 356.098 624.019 356.659 624.019 357.414V361H623.271ZM621.28 361.055C620.848 361.055 620.47 360.985 620.147 360.846C619.832 360.699 619.59 360.501 619.421 360.252C619.253 359.995 619.168 359.702 619.168 359.372C619.168 359.071 619.238 358.8 619.377 358.558C619.524 358.309 619.759 358.111 620.081 357.964C620.411 357.81 620.851 357.733 621.401 357.733H623.392V358.316H621.423C620.866 358.316 620.477 358.415 620.257 358.613C620.045 358.811 619.938 359.057 619.938 359.35C619.938 359.68 620.067 359.944 620.323 360.142C620.58 360.34 620.939 360.439 621.401 360.439C621.841 360.439 622.219 360.34 622.534 360.142C622.857 359.937 623.092 359.643 623.238 359.262L623.414 359.801C623.268 360.182 623.011 360.487 622.644 360.714C622.285 360.941 621.83 361.055 621.28 361.055ZM631.319 361.055C630.769 361.055 630.274 360.93 629.834 360.681C629.401 360.432 629.06 360.087 628.811 359.647C628.561 359.2 628.437 358.686 628.437 358.107C628.437 357.52 628.561 357.007 628.811 356.567C629.06 356.127 629.401 355.786 629.834 355.544C630.274 355.295 630.769 355.17 631.319 355.17C631.825 355.17 632.276 355.284 632.672 355.511C633.075 355.738 633.394 356.072 633.629 356.512C633.871 356.945 633.992 357.476 633.992 358.107C633.992 358.73 633.874 359.262 633.64 359.702C633.405 360.142 633.086 360.479 632.683 360.714C632.287 360.941 631.832 361.055 631.319 361.055ZM631.374 360.362C631.784 360.362 632.151 360.27 632.474 360.087C632.804 359.896 633.06 359.632 633.244 359.295C633.434 358.95 633.53 358.554 633.53 358.107C633.53 357.652 633.434 357.256 633.244 356.919C633.06 356.582 632.804 356.321 632.474 356.138C632.151 355.947 631.784 355.852 631.374 355.852C630.97 355.852 630.607 355.947 630.285 356.138C629.962 356.321 629.705 356.582 629.515 356.919C629.324 357.256 629.229 357.652 629.229 358.107C629.229 358.554 629.324 358.95 629.515 359.295C629.705 359.632 629.962 359.896 630.285 360.087C630.607 360.27 630.97 360.362 631.374 360.362ZM633.552 361V359.262L633.629 358.096L633.519 356.93V352.838H634.3V361H633.552ZM638.829 361.055C638.271 361.055 637.769 360.93 637.322 360.681C636.882 360.424 636.533 360.076 636.277 359.636C636.02 359.189 635.892 358.679 635.892 358.107C635.892 357.528 636.02 357.018 636.277 356.578C636.533 356.138 636.882 355.793 637.322 355.544C637.762 355.295 638.264 355.17 638.829 355.17C639.401 355.17 639.907 355.295 640.347 355.544C640.794 355.793 641.142 356.138 641.392 356.578C641.648 357.018 641.777 357.528 641.777 358.107C641.777 358.679 641.648 359.189 641.392 359.636C641.142 360.076 640.794 360.424 640.347 360.681C639.899 360.93 639.393 361.055 638.829 361.055ZM638.829 360.362C639.247 360.362 639.617 360.27 639.94 360.087C640.262 359.896 640.515 359.632 640.699 359.295C640.889 358.95 640.985 358.554 640.985 358.107C640.985 357.652 640.889 357.256 640.699 356.919C640.515 356.582 640.262 356.321 639.94 356.138C639.617 355.947 639.25 355.852 638.84 355.852C638.429 355.852 638.062 355.947 637.74 356.138C637.417 356.321 637.16 356.582 636.97 356.919C636.779 357.256 636.684 357.652 636.684 358.107C636.684 358.554 636.779 358.95 636.97 359.295C637.16 359.632 637.417 359.896 637.74 360.087C638.062 360.27 638.425 360.362 638.829 360.362ZM649.231 361.055C648.732 361.055 648.281 360.941 647.878 360.714C647.475 360.479 647.152 360.146 646.91 359.713C646.675 359.273 646.558 358.738 646.558 358.107C646.558 357.476 646.675 356.945 646.91 356.512C647.145 356.072 647.464 355.738 647.867 355.511C648.27 355.284 648.725 355.17 649.231 355.17C649.781 355.17 650.272 355.295 650.705 355.544C651.145 355.786 651.49 356.131 651.739 356.578C651.988 357.018 652.113 357.528 652.113 358.107C652.113 358.694 651.988 359.207 651.739 359.647C651.49 360.087 651.145 360.432 650.705 360.681C650.272 360.93 649.781 361.055 649.231 361.055ZM646.25 363.134V355.225H646.998V356.963L646.921 358.118L647.031 359.284V363.134H646.25ZM649.176 360.362C649.587 360.362 649.953 360.27 650.276 360.087C650.599 359.896 650.855 359.632 651.046 359.295C651.237 358.95 651.332 358.554 651.332 358.107C651.332 357.66 651.237 357.267 651.046 356.93C650.855 356.593 650.599 356.329 650.276 356.138C649.953 355.947 649.587 355.852 649.176 355.852C648.765 355.852 648.395 355.947 648.065 356.138C647.742 356.329 647.486 356.593 647.295 356.93C647.112 357.267 647.02 357.66 647.02 358.107C647.02 358.554 647.112 358.95 647.295 359.295C647.486 359.632 647.742 359.896 648.065 360.087C648.395 360.27 648.765 360.362 649.176 360.362ZM653.705 361V355.225H654.453V356.798L654.376 356.523C654.538 356.083 654.809 355.749 655.19 355.522C655.572 355.287 656.045 355.17 656.609 355.17V355.929C656.58 355.929 656.551 355.929 656.521 355.929C656.492 355.922 656.463 355.918 656.433 355.918C655.825 355.918 655.348 356.105 655.003 356.479C654.659 356.846 654.486 357.37 654.486 358.052V361H653.705ZM661.224 361V359.724L661.191 359.515V357.381C661.191 356.89 661.051 356.512 660.773 356.248C660.501 355.984 660.094 355.852 659.552 355.852C659.178 355.852 658.822 355.914 658.485 356.039C658.147 356.164 657.861 356.329 657.627 356.534L657.275 355.951C657.568 355.702 657.92 355.511 658.331 355.379C658.741 355.24 659.174 355.17 659.629 355.17C660.377 355.17 660.952 355.357 661.356 355.731C661.766 356.098 661.972 356.659 661.972 357.414V361H661.224ZM659.233 361.055C658.8 361.055 658.422 360.985 658.1 360.846C657.784 360.699 657.542 360.501 657.374 360.252C657.205 359.995 657.121 359.702 657.121 359.372C657.121 359.071 657.19 358.8 657.33 358.558C657.476 358.309 657.711 358.111 658.034 357.964C658.364 357.81 658.804 357.733 659.354 357.733H661.345V358.316H659.376C658.818 358.316 658.43 358.415 658.21 358.613C657.997 358.811 657.891 359.057 657.891 359.35C657.891 359.68 658.019 359.944 658.276 360.142C658.532 360.34 658.892 360.439 659.354 360.439C659.794 360.439 660.171 360.34 660.487 360.142C660.809 359.937 661.044 359.643 661.191 359.262L661.367 359.801C661.22 360.182 660.963 360.487 660.597 360.714C660.237 360.941 659.783 361.055 659.233 361.055ZM663.466 361V360.483L667.316 355.61L667.481 355.874H663.532V355.225H668.097V355.731L664.258 360.615L664.06 360.351H668.174V361H663.466ZM671.968 361.055C671.411 361.055 670.909 360.93 670.461 360.681C670.021 360.424 669.673 360.076 669.416 359.636C669.16 359.189 669.031 358.679 669.031 358.107C669.031 357.528 669.16 357.018 669.416 356.578C669.673 356.138 670.021 355.793 670.461 355.544C670.901 355.295 671.404 355.17 671.968 355.17C672.54 355.17 673.046 355.295 673.486 355.544C673.934 355.793 674.282 356.138 674.531 356.578C674.788 357.018 674.916 357.528 674.916 358.107C674.916 358.679 674.788 359.189 674.531 359.636C674.282 360.076 673.934 360.424 673.486 360.681C673.039 360.93 672.533 361.055 671.968 361.055ZM671.968 360.362C672.386 360.362 672.757 360.27 673.079 360.087C673.402 359.896 673.655 359.632 673.838 359.295C674.029 358.95 674.124 358.554 674.124 358.107C674.124 357.652 674.029 357.256 673.838 356.919C673.655 356.582 673.402 356.321 673.079 356.138C672.757 355.947 672.39 355.852 671.979 355.852C671.569 355.852 671.202 355.947 670.879 356.138C670.557 356.321 670.3 356.582 670.109 356.919C669.919 357.256 669.823 357.652 669.823 358.107C669.823 358.554 669.919 358.95 670.109 359.295C670.3 359.632 670.557 359.896 670.879 360.087C671.202 360.27 671.565 360.362 671.968 360.362Z" fill="black"/>
</svg>
