<svg width="16" height="16" viewBox="0 0 16 16" fill="none" xmlns="http://www.w3.org/2000/svg"><path d="M15.2712 14.0491L12.3679 11.1447C14.5403 8.24171 13.9479 4.12734 11.045 1.95501C8.14198 -0.217316 4.0276 0.375007 1.85528 3.27799C-0.317047 6.18097 0.275275 10.2953 3.17826 12.4677C5.51018 14.2127 8.71302 14.2127 11.045 12.4677L13.9494 15.3721C14.3144 15.7371 14.9062 15.7371 15.2711 15.3721C15.6361 15.0071 15.6361 14.4154 15.2711 14.0504L15.2712 14.0491ZM7.13581 11.9071C4.55578 11.9071 2.46427 9.81558 2.46427 7.23555C2.46427 4.65551 4.55578 2.564 7.13581 2.564C9.71585 2.564 11.8074 4.65551 11.8074 7.23555C11.8046 9.81441 9.71471 11.9043 7.13581 11.9071Z" fill="black"/></svg>