<svg width="16" height="16" viewBox="0 0 16 16" fill="none" xmlns="http://www.w3.org/2000/svg"><g clip-path="url(#clip0_224_135735)"><path d="M0.781333 12.746C0.281202 13.246 0.000151033 13.9242 0 14.6314L0 16H1.36867C2.07585 15.9999 2.75402 15.7188 3.254 15.2187L12.1493 6.32337L9.67667 3.85071L0.781333 12.746Z" fill="black"/><path d="M15.4301 0.569995C15.2677 0.407485 15.0749 0.278565 14.8627 0.190606C14.6505 0.102647 14.4231 0.057373 14.1934 0.057373C13.9637 0.057373 13.7362 0.102647 13.524 0.190606C13.3118 0.278565 13.1191 0.407485 12.9567 0.569995L10.6194 2.908L13.0921 5.38066L15.4301 3.04333C15.5926 2.88099 15.7215 2.68821 15.8094 2.47601C15.8974 2.26382 15.9427 2.03637 15.9427 1.80666C15.9427 1.57696 15.8974 1.34951 15.8094 1.13731C15.7215 0.925114 15.5926 0.732335 15.4301 0.569995Z" fill="black"/></g><defs><clipPath id="clip0_224_135735"><rect width="16" height="16" fill="black"/></clipPath></defs></svg>
