<svg width="20" height="20" viewBox="0 0 30 30" fill="none" xmlns="http://www.w3.org/2000/svg"><g clip-path="url(#clip0_98_2012)"><path d="M26.25 13.75H20C17.9325 13.75 16.25 15.4325 16.25 17.5V26.25C16.25 28.3175 17.9325 30 20 30H26.25C28.3175 30 30 28.3175 30 26.25V17.5C30 15.4325 28.3175 13.75 26.25 13.75ZM25 25H21.25C20.5588 25 20 24.44 20 23.75C20 23.06 20.5588 22.5 21.25 22.5H25C25.6913 22.5 26.25 23.06 26.25 23.75C26.25 24.44 25.6913 25 25 25ZM25 19.9963H21.25C20.5588 19.9963 20 19.4362 20 18.7463C20 18.0562 20.5588 17.4963 21.25 17.4963H25C25.6913 17.4963 26.25 18.0562 26.25 18.7463C26.25 19.4362 25.6913 19.9963 25 19.9963ZM3.75 7.5C3.75 3.36375 7.11375 0 11.25 0C15.3863 0 18.75 3.36375 18.75 7.5C18.75 11.6362 15.3863 15 11.25 15C7.11375 15 3.75 11.6362 3.75 7.5ZM15.0325 30H1.25C0.553752 30 -0.00124789 29.425 2.10733e-06 28.7288C0.0112521 22.535 5.05375 17.5 11.25 17.5C12.11 17.5 12.945 17.6063 13.75 17.79V26.25C13.75 27.6625 14.2388 28.9525 15.0325 30Z" fill="black"/></g><defs><clipPath id="clip0_98_2012"><rect width="30" height="30" fill="white"/></clipPath></defs></svg>
