<svg width="20" height="20" viewBox="0 0 20 20" fill="none" xmlns="http://www.w3.org/2000/svg"><g clip-path="url(#clip0_223_8636)">
<path d="M17.9383 6.90327L11.6141 0.732433C11.0649 0.182433 10.2749 -0.0867336 9.50743 0.0232664L3.76743 0.808266C3.3116 0.870766 2.99243 1.29077 3.05493 1.7466C3.11743 2.20243 3.5366 2.52077 3.9941 2.4591L9.73493 1.6741C9.98993 1.6391 10.2533 1.7266 10.4441 1.91743L16.7691 8.08827C17.6399 8.9591 17.7249 10.3216 17.0383 11.2941C16.8433 10.9049 16.6024 10.5341 16.2791 10.2108L10.0499 4.0341C9.5016 3.48577 8.7191 3.2216 7.94326 3.32493L2.20243 4.10993C1.8241 4.1616 1.5291 4.4641 1.48743 4.8441L0.84993 10.6074C0.766597 11.3666 1.02826 12.1108 1.56993 12.6516L7.74993 18.7791C8.5366 19.5666 9.58243 19.9991 10.6949 19.9991H10.7091C11.8274 19.9958 12.8758 19.5558 13.6616 18.7599L16.3008 16.0866C17.0733 15.3041 17.4616 14.2874 17.4866 13.2633L17.9674 12.7833C19.5716 11.1583 19.5624 8.52327 17.9408 6.90243L17.9383 6.90327ZM4.99993 8.33327C4.53993 8.33327 4.1666 7.95993 4.1666 7.49993C4.1716 6.40993 5.82826 6.41077 5.83326 7.49993C5.83326 7.95993 5.45993 8.33327 4.99993 8.33327Z" fill="#D9D9D9"/></g><defs><clipPath id="clip0_223_8636"><rect width="20" height="20" fill="white"/></clipPath></defs>
</svg>
