<svg width="660" height="421" viewBox="0 0 660 421" fill="none" xmlns="http://www.w3.org/2000/svg">
<g clip-path="url(#clip0_70_825)">
<path d="M140.051 99.1431L165.012 133.248C165.012 133.248 186.294 142.205 211.167 160.189L205.213 169.491C205.213 169.491 164.159 152.666 153.653 145.556L134.468 115.453L140.051 99.1431Z" fill="#A0616A"/>
<path d="M226.093 176.707C228.475 173.218 225.647 167.134 219.776 163.119C213.904 159.103 207.214 158.676 204.832 162.165C202.45 165.654 205.278 171.738 211.149 175.754C217.02 179.769 223.711 180.196 226.093 176.707Z" fill="#A0616A"/>
<path d="M127.851 70.0285L136.019 67.7095C136.019 67.7095 140.774 67.7186 143.457 72.3932C146.14 77.0678 165.133 118.748 164.233 120.362C163.333 121.977 162.076 122.334 163.689 123.235C165.302 124.136 166.779 123.679 165.68 125.029C164.58 126.379 166.1 129.346 166.1 129.346L145.145 144.819L127.851 70.0285Z" fill="#220127"/>
<path d="M96.1579 412.754L106.124 412.753L110.865 374.279L96.1559 374.28L96.1579 412.754Z" fill="#A0616A"/>
<path d="M130.302 412.528C130.612 413.051 130.776 414.739 130.776 415.348C130.776 417.217 129.262 418.733 127.394 418.733H96.5307C95.2564 418.733 94.2233 417.699 94.2233 416.424V415.138C94.2233 415.138 92.6965 411.272 95.8398 406.508C95.8398 406.508 99.7466 410.239 105.584 404.396L107.306 401.274L119.767 410.396L126.674 411.247C128.185 411.433 129.525 411.218 130.302 412.528Z" fill="#2F2E41"/>
<path d="M132.228 403.033L142.056 404.685L153.1 367.529L138.594 365.091L132.228 403.033Z" fill="#A0616A"/>
<path d="M165.937 408.473C166.157 409.04 166.039 410.732 165.938 411.332C165.628 413.176 163.884 414.42 162.042 414.11L131.605 408.992C130.349 408.78 129.501 407.589 129.712 406.331L129.925 405.063C129.925 405.063 129.059 400.998 132.948 396.821C132.948 396.821 136.183 401.148 142.907 396.354L145.122 393.561L155.901 404.623L162.571 406.607C164.031 407.042 165.388 407.052 165.937 408.473Z" fill="#2F2E41"/>
<path d="M152.657 205.616C152.657 205.616 166.046 221.306 166.046 235.688C166.046 250.07 166.373 295.25 166.373 295.25C166.373 295.25 158.535 365.781 156.576 371.664C154.616 377.548 153.636 387.354 153.636 387.354L134.695 382.778C134.695 382.778 132.082 316.424 139.92 300.734L120.979 247.128L114.447 398.794H92.4586C92.4586 398.794 81.1364 319.039 87.0148 298.119C87.0148 298.119 73.9517 218.364 77.2175 213.788C80.4833 209.212 152.657 205.616 152.657 205.616Z" fill="#2F2E41"/>
<path d="M103.997 49.3745L121.632 50.682L127.51 60.488C127.51 60.488 141.227 66.3716 143.186 74.8701C145.146 83.3686 145.799 182.736 145.799 182.736L155.596 197.118L154.943 209.539L76.5644 213.461V201.519L69.3798 187.312C69.3798 187.312 77.2176 73.5626 79.177 72.9089C81.1365 72.2551 96.159 61.7954 96.159 61.7954L103.997 49.3745Z" fill="#220127"/>
<path d="M111.978 46.9416C124.243 46.9416 134.185 36.9902 134.185 24.7147C134.185 12.4391 124.243 2.48779 111.978 2.48779C99.7135 2.48779 89.771 12.4391 89.771 24.7147C89.771 36.9902 99.7135 46.9416 111.978 46.9416Z" fill="#A0616A"/>
<path d="M129.717 6.8373C128.587 3.62964 125.452 1.68362 122.054 1.75942C121.91 1.7626 121.766 1.76126 121.624 1.7554C119.913 1.68539 118.271 1.1005 116.593 0.757385C113.466 0.117838 110.169 0.331958 107.152 1.37053C106.214 1.69337 105.274 2.09933 104.282 2.09944C103.29 2.09958 102.21 1.55516 101.968 0.592336C101.91 1.46406 101.853 2.33574 101.796 3.20741C101.473 2.50189 101.15 1.79633 100.827 1.09078L100.181 3.90445L98.1099 1.55294C98.2951 2.5894 97.6914 3.63404 96.8739 4.2967C96.0565 4.95939 95.0469 5.32595 94.0791 5.73881C89.9023 7.5208 85.9804 10.6758 84.7769 15.0578C84.0165 17.8263 84.4143 20.7646 84.8172 23.6073C85.1733 26.1204 85.5606 28.7203 86.9254 30.8596C87.8003 32.231 89.0614 33.3849 89.5941 34.9223C90.0906 36.3552 89.9025 37.9958 90.609 39.3376C91.3184 40.6854 92.7831 41.4479 94.2165 41.96C95.6499 42.4723 97.1737 42.8345 98.4081 43.7257C99.6424 44.617 101.075 47.1843 103.765 47.0461L104.633 45.4139C105.526 44.6857 102.221 45.263 102.186 44.1107C102.152 42.9584 106.163 42.2465 105.594 41.2438C104.723 39.7062 103.543 38.368 102.561 36.8986C101.412 35.1802 100.509 33.1724 100.905 31.075C101.059 30.2591 101.441 29.4884 102.022 28.8958C103.697 27.1873 105.565 27.9382 107.38 28.1826C108.632 28.3512 110.126 28.1566 110.776 27.0731C111.536 25.8054 110.689 24.1928 110.792 22.7182C110.902 21.1556 112.085 19.8742 113.372 18.9834C114.659 18.0925 116.121 17.4435 117.279 16.3899C118.437 15.3361 119.262 13.69 118.757 12.2073C124.246 9.91993 125.087 9.70359 130.867 11.0985C130.591 9.6517 130.206 8.22621 129.717 6.8373Z" fill="#2F2E41"/>
<path d="M35.965 291.117V223.651C35.965 221.801 36.753 220.029 38.1271 218.791C39.501 217.554 41.3431 216.955 43.1822 217.149C60.2174 214.855 76.2618 215.946 90.8024 222.175C92.4494 222.175 93.7894 223.516 93.7894 225.164V292.866C93.7894 294.514 92.4494 295.856 90.8024 295.856C74.7965 292.099 57.9146 293.077 40.6995 295.856C38.0888 295.856 35.965 293.73 35.965 291.117Z" fill="#366060"/>
<path d="M35.965 297.123V228.943C35.965 225.338 38.8953 222.405 42.4973 222.405C58.7871 218.139 74.8891 218.132 90.8024 222.405C92.4495 222.405 93.7894 223.746 93.7894 225.395V292.404C93.7894 294.05 92.4534 295.39 90.8098 295.394C75.1189 292.661 58.3109 295.322 40.6995 301.861C38.0888 301.861 35.965 299.736 35.965 297.123Z" fill="#529696"/>
<path d="M73.5806 250.581H58.3483C52.8777 250.581 48.4271 246.127 48.4271 240.651C48.4271 235.176 52.8777 230.721 58.3483 230.721H73.5806C79.0516 230.721 83.5022 235.176 83.5022 240.651C83.5022 246.126 79.0516 250.581 73.5806 250.581Z" fill="#E6E6E6"/>
<path d="M87.5415 116.668L86.9592 151.868C86.9592 151.868 85.0983 179.301 80.477 210.172L69.4615 210.876C69.4615 210.876 70.8169 162.673 70.3231 149.99L71.1021 121.819L87.5415 116.668Z" fill="#A0616A"/>
<path d="M76.0099 231.991C80.2296 231.847 83.4545 225.965 83.2129 218.851C82.9714 211.738 79.3548 206.088 75.1351 206.232C70.9154 206.375 67.6905 212.258 67.932 219.371C68.1736 226.484 71.7902 232.134 76.0099 231.991Z" fill="#A0616A"/>
<path d="M87.3703 71.855L78.8849 72.1643C78.8849 72.1643 74.3634 73.6374 73.2482 78.9114C72.1329 84.1854 64.3152 138.766 65.6682 140.025C67.0212 141.284 68.3266 141.237 67.0687 142.591C65.8108 143.945 64.265 143.965 65.7263 144.911C67.1876 145.857 66.6537 149.148 66.6537 149.148L90.1222 147.483L87.3703 71.855Z" fill="#220127"/>
<path d="M647.215 386.34H421.447C420.137 386.34 418.84 386.139 417.591 385.744L417.459 385.691C346.765 350.526 286.155 331.334 232.164 327.017L231.958 326.976C226.617 325.285 223.029 320.382 223.029 314.775V12.8077C223.029 8.68445 224.935 4.9218 228.259 2.48507C231.582 0.0483422 235.741 -0.635407 239.67 0.606905L418.149 57.1104C419.218 57.4489 420.327 57.6202 421.447 57.6202H647.215C654.265 57.6202 660 63.3608 660 70.4166V373.543C660 380.599 654.265 386.34 647.215 386.34ZM418.216 384.001C419.263 384.324 420.35 384.489 421.447 384.489H647.215C653.245 384.489 658.151 379.579 658.151 373.543V70.4166C658.151 64.3813 653.245 59.4712 647.215 59.4712H421.447C420.138 59.4712 418.841 59.271 417.591 58.8756L239.112 2.37209C235.752 1.30738 232.194 1.89397 229.352 3.9782C226.509 6.06289 224.879 9.28098 224.879 12.8077V314.775C224.879 319.537 227.904 323.704 232.418 325.18C286.605 329.533 347.383 348.774 418.216 384.001Z" fill="#3F3D56"/>
<path d="M427.475 372.627C489.033 350.825 557.707 353.328 630.662 370.453C639.821 372.603 648.602 365.701 648.602 356.285V80.374C648.602 73.6738 644.038 67.8155 637.535 66.224C560.573 47.3872 488.687 43.9215 425.335 66.305C420.694 67.9448 415.543 67.0564 411.626 64.0726C358.242 23.3993 303.607 3.00614 247.34 9.06139C239.979 9.85354 234.427 16.1321 234.427 23.5419V302.462C234.427 309.93 240.073 316.175 247.494 316.948C308.057 323.252 363.707 342.359 415.462 371.618C419.127 373.69 423.508 374.033 427.475 372.627Z" fill="#F2F2F2"/>
<path d="M425.499 357.155C421.306 357.155 417.177 356.001 413.538 353.74C370.073 326.722 322.719 310.938 272.792 306.828C261.086 305.863 251.917 295.87 251.917 284.077V45.8335C251.917 33.6056 261.392 23.5862 273.487 23.0235C309.838 21.327 353.975 37.5522 412.383 74.0665C417.323 77.1545 423.331 78.0714 428.867 76.5855C484.375 61.6723 544.545 61.2366 612.819 75.2537C623.419 77.4301 631.112 86.8462 631.112 97.6439V330.192C631.112 337.209 627.959 343.727 622.46 348.074C616.921 352.453 609.794 354.023 602.905 352.382C538.318 336.996 482.858 338.107 433.352 355.783C430.781 356.701 428.127 357.155 425.499 357.155ZM278.677 24.7553C276.956 24.7553 275.259 24.7941 273.573 24.8727C262.467 25.3893 253.767 34.5962 253.767 45.8335V284.077C253.767 294.914 262.19 304.097 272.943 304.982C323.166 309.118 370.797 324.993 414.514 352.167C419.954 355.55 426.594 356.231 432.731 354.04C482.582 336.24 538.387 335.109 603.333 350.581C609.668 352.09 616.221 350.648 621.314 346.622C626.365 342.628 629.263 336.64 629.263 330.192V97.6439C629.263 87.7212 622.191 79.0674 612.447 77.0668C544.462 63.108 484.57 63.5355 429.346 78.3733C423.315 79.992 416.777 78.9956 411.403 75.6365C356.052 41.0328 313.665 24.7553 278.677 24.7553Z" fill="white"/>
<path d="M421.3 77.9682L419.45 77.9854L422.023 356.732L423.873 356.714L421.3 77.9682Z" fill="white"/>
<path d="M269.946 59.5731L269.365 61.3301L398.855 104.214L399.435 102.457L269.946 59.5731Z" fill="#3F3D56"/>
<path d="M269.946 93.8802L269.365 95.6372L398.855 138.521L399.435 136.764L269.946 93.8802Z" fill="#3F3D56"/>
<path d="M269.946 128.187L269.365 129.944L398.855 172.828L399.435 171.071L269.946 128.187Z" fill="#3F3D56"/>
<path d="M269.946 162.494L269.365 164.25L398.855 207.134L399.435 205.377L269.946 162.494Z" fill="#3F3D56"/>
<path d="M607.66 104.316H452.464V106.167H607.66V104.316Z" fill="#3F3D56"/>
<path d="M607.66 136.717H452.464V138.568H607.66V136.717Z" fill="#3F3D56"/>
<path d="M607.66 169.117H452.464V170.968H607.66V169.117Z" fill="#3F3D56"/>
<path d="M607.66 201.519H452.464V203.37H607.66V201.519Z" fill="#3F3D56"/>
<path d="M607.66 233.919H452.464V235.77H607.66V233.919Z" fill="#3F3D56"/>
<path d="M607.66 266.321H452.464V268.172H607.66V266.321Z" fill="#3F3D56"/>
<path d="M50.1734 404.958C48.263 405.078 47.2072 402.702 48.6525 401.318L48.7963 400.745C48.7774 400.7 48.7584 400.654 48.7392 400.608C46.8073 395.997 40.2597 396.029 38.3443 400.647C36.6441 404.745 34.4795 408.85 33.9466 413.184C33.7076 415.097 33.8151 417.045 34.2392 418.923C30.2555 410.213 28.1591 400.702 28.1591 391.138C28.1591 388.734 28.2906 386.331 28.5593 383.934C28.7803 381.974 29.0849 380.025 29.4791 378.094C31.6113 367.657 36.2281 357.715 42.8874 349.412C46.0887 347.661 48.7584 344.923 50.371 341.641C50.9503 340.457 51.4043 339.184 51.6193 337.887C51.255 337.935 50.2456 332.381 50.5204 332.041C50.0126 331.27 49.1039 330.886 48.5494 330.134C45.7916 326.391 41.9921 327.045 40.0086 332.13C35.7714 334.271 35.7304 337.821 38.3304 341.235C39.9844 343.407 40.2117 346.346 41.6631 348.671C41.5137 348.862 41.3584 349.048 41.2091 349.239C38.471 352.754 36.1028 356.532 34.1064 360.501C34.6707 356.09 33.8377 350.776 32.4175 347.35C30.801 343.447 27.771 340.159 25.1027 336.785C21.8977 332.732 15.3255 334.501 14.7608 339.639C14.7554 339.688 14.75 339.738 14.7448 339.788C15.1412 340.012 15.5294 340.249 15.9087 340.501C18.072 341.933 17.3244 345.289 14.7611 345.685L14.703 345.694C14.8464 347.123 15.0913 348.539 15.4496 349.932C12.0265 363.182 19.4167 368.008 29.9688 368.224C30.2017 368.344 30.4287 368.464 30.6617 368.577C29.5925 371.59 28.7384 374.681 28.1054 377.813C27.538 380.581 27.1438 383.378 26.9228 386.188C26.6481 389.733 26.672 393.296 26.9706 396.834L26.9527 396.709C26.1942 392.811 24.0799 389.171 21.01 386.648C16.4368 382.888 9.97567 381.503 5.04197 378.481C2.66703 377.026 -0.376286 378.906 0.0382036 381.662L0.0583807 381.794C0.792993 382.093 1.50968 382.44 2.2025 382.828C2.59883 383.052 2.98709 383.29 3.36637 383.541C5.52971 384.973 4.78205 388.329 2.21875 388.725L2.16066 388.734C2.11886 388.74 2.08301 388.746 2.04127 388.752C3.30147 391.747 5.05736 394.527 7.25525 396.924C9.3956 408.49 18.5884 409.588 28.4219 406.22H28.4279C29.503 410.906 31.0738 415.485 33.0925 419.849H49.7558C49.8156 419.664 49.8693 419.472 49.9231 419.287C48.3822 419.383 46.8293 419.293 45.3123 419.012C46.5486 417.494 47.7849 415.963 49.0212 414.445C49.0511 414.415 49.075 414.385 49.0989 414.355C49.726 413.578 50.3591 412.807 50.9862 412.03L50.9865 412.029C51.0258 409.644 50.7395 407.265 50.1734 404.958Z" fill="#399A48"/>
<path d="M236.549 419.899C236.549 420.51 236.059 421 235.448 421H1.23004C0.61976 421 0.129639 420.51 0.129639 419.899C0.129639 419.288 0.61976 418.797 1.23004 418.797H235.448C236.059 418.797 236.549 419.288 236.549 419.899Z" fill="black"/>
<path d="M614.179 361.35C625.925 361.35 635.447 351.82 635.447 340.063C635.447 328.307 625.925 318.776 614.179 318.776C602.433 318.776 592.911 328.307 592.911 340.063C592.911 351.82 602.433 361.35 614.179 361.35Z" fill="#220127"/>
<path d="M624.139 339.262L610.942 331.635C610.326 331.279 609.555 331.724 609.555 332.437V339.138H605.597C605.086 339.138 604.672 339.552 604.672 340.063C604.672 340.575 605.086 340.989 605.597 340.989H609.555V347.69C609.555 348.403 610.326 348.848 610.942 348.492L624.139 340.865C624.755 340.509 624.755 339.618 624.139 339.262Z" fill="white"/>
<path d="M311.319 280.059C312.147 270.573 316.082 261.511 322.38 254.379C328.515 247.432 336.9 242.666 345.943 240.725C350.991 239.641 356.22 239.43 361.332 240.16C362.556 240.334 362.523 242.279 361.286 242.102C352.586 240.86 343.593 242.378 335.775 246.399C327.762 250.521 321.348 257.224 317.387 265.308C315.121 269.93 313.708 274.976 313.26 280.105C313.151 281.346 311.209 281.308 311.319 280.059Z" fill="white"/>
<path d="M359.179 232.359L374.124 239.74C374.668 240.008 374.757 240.894 374.295 241.276L360.147 252.982C359.19 253.774 357.842 252.374 358.807 251.576L372.955 239.87L373.126 241.407L358.181 234.027C357.058 233.473 358.066 231.81 359.179 232.359Z" fill="white"/>
</g>
<defs>
<clipPath id="clip0_70_825">
<rect width="660" height="421" fill="white"/>
</clipPath>
</defs>
</svg>
