<svg width="868" height="455" viewBox="0 0 868 455" fill="none" xmlns="http://www.w3.org/2000/svg">
<g clip-path="url(#clip0_63_292)">
<path d="M809.205 428.511C808.97 436.706 807.5 444.829 804.838 452.642C804.779 452.823 804.713 453.002 804.649 453.183H788.352C788.369 453.02 788.386 452.839 788.404 452.642C789.49 440.977 783.282 370.826 775.791 358.685C776.448 359.669 810.469 391.445 809.205 428.511Z" fill="#F1F1F1"/>
<path d="M807.982 452.642C807.846 452.823 807.704 453.004 807.559 453.183H795.332C795.425 453.029 795.532 452.847 795.657 452.642C797.676 449.238 803.655 439.061 809.204 428.511C815.165 417.173 820.639 405.406 820.178 401.146C820.321 402.107 824.447 431.39 807.982 452.642Z" fill="#F1F1F1"/>
<path d="M45.1034 434.859C45.278 440.946 46.37 446.979 48.3472 452.781C48.391 452.916 48.4396 453.048 48.487 453.183H60.5911C60.5784 453.062 60.5653 452.928 60.5526 452.781C59.7456 444.117 64.3561 392.017 69.9196 383C69.4322 383.731 44.1649 407.331 45.1034 434.859Z" fill="#F1F1F1"/>
<path d="M46.0117 452.781C46.1129 452.915 46.2182 453.05 46.326 453.183H55.4068C55.338 453.068 55.2582 452.933 55.1657 452.781C53.6657 450.253 49.2257 442.694 45.1043 434.859C40.677 426.438 36.6117 417.699 36.9541 414.536C36.848 415.249 33.783 436.997 46.0117 452.781Z" fill="#F1F1F1"/>
<path d="M636.45 319.159C545.03 282.982 462.322 284.357 384.418 306.438C264.385 286.863 182.19 289.892 129.468 319.159V228.295H636.45V319.159Z" fill="#CBCBCB"/>
<path d="M636.45 294.171C552.226 258.537 468.105 256.236 382.715 294.171C295.256 270.657 210.707 270.903 128.981 294.171V17.9456C215.872 -6.27047 300.395 -5.68854 382.715 17.9456C469.672 -5.60691 554.326 -6.35388 636.45 17.9456V294.171Z" fill="#E5E5E5"/>
<path d="M151.805 52.225L148.972 45.4542C150.082 45.0491 176.615 35.4711 215.555 30.5854C251.555 26.0675 305.192 24.989 356.276 45.5003L353.201 52.1784C303.825 32.3535 251.774 33.3974 216.803 37.7631C178.739 42.5162 152.07 52.1283 151.805 52.225Z" fill="white"/>
<path d="M151.805 77.6666L148.972 70.8958C150.082 70.4907 176.615 60.9127 215.555 56.027C251.555 51.5096 305.192 50.431 356.276 70.9419L353.201 77.62C303.825 57.7951 251.774 58.8381 216.803 63.2047C178.739 67.9578 152.07 77.5699 151.805 77.6666Z" fill="white"/>
<path d="M151.805 103.109L148.972 96.338C150.082 95.9329 176.615 86.3549 215.555 81.4692C251.555 76.9513 305.192 75.8727 356.276 96.3841L353.201 103.062C303.825 83.2373 251.774 84.2803 216.803 88.6469C178.739 93.4 152.07 103.012 151.805 103.109Z" fill="white"/>
<path d="M151.805 128.55L148.972 121.78C150.082 121.374 176.615 111.797 215.555 106.911C251.555 102.394 305.192 101.314 356.276 121.826L353.201 128.504C303.825 108.679 251.774 109.722 216.803 114.089C178.739 118.842 152.07 128.454 151.805 128.55Z" fill="white"/>
<path d="M151.805 153.992L148.972 147.221C150.082 146.816 176.615 137.238 215.555 132.353C251.555 127.835 305.192 126.756 356.276 147.267L353.201 153.946C303.825 134.12 251.774 135.164 216.803 139.53C178.739 144.283 152.07 153.895 151.805 153.992Z" fill="white"/>
<path d="M151.805 179.434L148.972 172.663C150.082 172.258 176.615 162.68 215.555 157.795C251.555 153.278 305.192 152.198 356.276 172.709L353.201 179.388C303.825 159.562 251.774 160.606 216.803 164.972C178.739 169.725 152.07 179.337 151.805 179.434Z" fill="white"/>
<path d="M405.783 233.043L402.949 226.273C404.06 225.868 430.593 216.29 469.532 211.404C505.533 206.887 559.169 205.807 610.254 226.319L607.179 232.997C557.802 213.171 505.752 214.216 470.781 218.582C432.716 223.335 406.047 232.947 405.783 233.043Z" fill="#2C3099"/>
<path d="M403.394 184.216V45.2582L406.125 44.4614C475.355 24.2686 544.248 24.2726 610.891 44.4734L613.582 45.2889V184.031L608.315 182.174C538.963 157.734 471.829 157.719 408.777 182.131L403.394 184.216ZM506.117 156.548C538.701 156.548 571.928 162.219 605.797 173.562V50.5836C542.435 31.9251 476.982 31.9353 411.178 50.6133V173.393C441.414 162.27 473.619 156.556 506.117 156.548Z" fill="white"/>
<path d="M605.958 229.443L606.978 206.317L641.957 141.378C642.943 139.531 644.552 138.038 646.534 137.128C647.749 136.563 649.072 136.229 650.426 136.146C651.78 136.064 653.138 136.234 654.421 136.647C655.906 137.126 657.254 137.918 658.358 138.963C659.461 140.007 660.292 141.276 660.784 142.67C660.995 143.271 661.144 143.891 661.228 144.519C661.476 146.384 661.123 148.275 660.213 149.951L625.187 214.979L605.958 229.443Z" fill="#2C3099"/>
<path d="M650.891 136.582L612.921 207.074L610.026 205.715L646.749 137.536C648.037 136.934 649.451 136.608 650.891 136.582Z" fill="#2C3099"/>
<path d="M660.745 144.577L624.222 212.382L621.327 211.022L659.218 140.676C659.685 141.34 660.056 142.058 660.322 142.812C660.524 143.386 660.665 143.977 660.745 144.577Z" fill="#2C3099"/>
<path d="M657.109 138.526L618.719 209.797L615.824 208.438L654.262 137.077C654.671 137.208 655.071 137.365 655.457 137.547C656.041 137.822 656.594 138.15 657.109 138.526Z" fill="#2C3099"/>
<path d="M610.35 225.557L606.487 228.462L606.811 220.803C608.137 221.233 609.573 223.097 610.35 225.557Z" fill="#2C3099"/>
<path d="M229.334 309.031L224.709 295.932L229.636 252.862C229.771 251.639 230.333 250.492 231.234 249.596C231.785 249.043 232.448 248.597 233.184 248.286C233.921 247.975 234.717 247.804 235.525 247.783C236.461 247.759 237.391 247.937 238.241 248.304C239.091 248.67 239.839 249.215 240.427 249.896C240.68 250.191 240.902 250.507 241.09 250.841C241.647 251.833 241.875 252.957 241.744 254.07L236.81 297.198L229.334 309.031Z" fill="#2C3099"/>
<path d="M233.541 248.438L228.193 295.191L226.273 294.999L231.446 249.781C232.029 249.193 232.745 248.735 233.541 248.438Z" fill="#2C3099"/>
<path d="M240.833 250.968L235.689 295.939L233.769 295.747L239.106 249.091C239.515 249.37 239.883 249.698 240.201 250.066C240.442 250.347 240.654 250.649 240.833 250.968Z" fill="#2C3099"/>
<path d="M237.446 248.305L232.039 295.574L230.119 295.383L235.533 248.054C235.791 248.047 236.049 248.056 236.305 248.082C236.693 248.121 237.075 248.196 237.446 248.305Z" fill="#2C3099"/>
<path d="M230.91 306.004L229.408 308.381L227.868 304.045C228.705 304.025 229.924 304.784 230.91 306.004Z" fill="#2C3099"/>
<path d="M730.249 293.671C729.722 294.531 729.019 295.286 728.179 295.893C727.34 296.499 726.381 296.946 725.357 297.206C723.289 297.732 721.082 297.47 719.221 296.476C717.36 295.483 715.998 293.84 715.435 291.909C714.871 289.978 715.153 287.917 716.217 286.179C716.235 286.15 716.253 286.12 716.271 286.091C716.497 285.737 716.752 285.4 717.032 285.083L710.234 239.837L710.031 238.481L708.65 229.248L708.446 227.917L709.198 227.951L722.37 228.513L725.902 228.661L726.345 237.084L728.85 284.438C730.159 285.607 731.008 287.154 731.262 288.828C731.516 290.503 731.159 292.208 730.249 293.671Z" fill="#FFB8B8"/>
<path d="M710.07 238.891L726.796 237.459C727.663 237.382 728.463 236.988 729.021 236.363C729.578 235.738 729.849 234.932 729.773 234.122L726.675 201.644C726.376 198.516 724.758 195.627 722.178 193.613C719.598 191.598 716.266 190.624 712.916 190.903C709.566 191.182 706.472 192.693 704.315 195.102C702.158 197.511 701.114 200.622 701.413 203.75C701.434 203.974 701.462 204.197 701.497 204.419L706.513 236.275C706.628 237.005 707.02 237.672 707.618 238.154C708.215 238.637 708.979 238.903 709.769 238.904C709.869 238.906 709.97 238.902 710.07 238.891Z" fill="#2C3099"/>
<path d="M722.748 212.654C724.439 208.179 724.518 203.311 722.971 198.791C721.424 194.271 718.337 190.348 714.18 187.618C707.873 183.589 699.242 182.142 689.947 192.475C678.7 205.088 670.677 219.928 666.49 235.869L704.553 241.655C704.553 241.655 717.497 226.88 722.748 212.654Z" fill="#2C3099"/>
<path d="M661.185 445.419H650.332L645.169 406.333H661.186L661.185 445.419Z" fill="#FFB8B8"/>
<path d="M629.405 454.828H663.512V442.523H642.583C639.088 442.523 635.736 443.819 633.264 446.127C630.793 448.435 629.405 451.564 629.405 454.828Z" fill="#2F2E41"/>
<path d="M750.407 436.581L740.104 439.761L722.063 404.163L737.271 399.469L750.407 436.581Z" fill="#FFB8B8"/>
<path d="M723.394 454.828L755.778 444.833L751.642 433.149L731.77 439.283C728.452 440.307 725.705 442.52 724.134 445.435C722.563 448.351 722.297 451.729 723.394 454.828Z" fill="#2F2E41"/>
<path d="M698.853 177.37C710.861 177.37 720.595 168.28 720.595 157.068C720.595 145.856 710.861 136.767 698.853 136.767C686.846 136.767 677.112 145.856 677.112 157.068C677.112 168.28 686.846 177.37 698.853 177.37Z" fill="#FFB8B8"/>
<path d="M679.817 434.539L689.895 372.427C690.003 371.764 690.353 371.156 690.887 370.708C691.421 370.26 692.106 369.999 692.823 369.97C693.54 369.941 694.246 370.145 694.82 370.548C695.394 370.951 695.8 371.527 695.969 372.179L711.317 431.371C711.559 432.278 712.155 433.067 712.988 433.585C713.821 434.103 714.832 434.311 715.821 434.169L758.156 427.816C758.717 427.732 759.252 427.536 759.726 427.243C760.2 426.949 760.601 426.564 760.902 426.114C761.204 425.664 761.398 425.159 761.473 424.632C761.548 424.106 761.501 423.571 761.336 423.063L706.134 253.121C705.977 252.638 705.959 252.125 706.08 251.633L707.918 244.194C708.12 243.388 708.026 242.541 707.653 241.79C707.28 241.039 706.648 240.426 705.858 240.05C698.341 236.468 679.302 229.022 664.934 237.178C664.468 237.444 664.064 237.795 663.748 238.211C663.431 238.627 663.209 239.099 663.094 239.598L619.97 428.856C619.853 429.371 619.854 429.903 619.973 430.417C620.092 430.932 620.327 431.416 620.662 431.84C620.996 432.263 621.423 432.615 621.915 432.873C622.406 433.131 622.95 433.288 623.511 433.335L675.523 437.685C675.641 437.695 675.759 437.7 675.877 437.7C676.829 437.698 677.75 437.379 678.472 436.799C679.194 436.219 679.67 435.417 679.814 434.538L679.817 434.539Z" fill="#2F2E41"/>
<path d="M713.27 142.725C711.631 141.804 710.176 140.624 708.972 139.237C708.377 138.536 707.986 137.704 707.836 136.821C707.685 135.938 707.781 135.033 708.113 134.195C709.212 131.932 712.476 131.219 715.006 131.987C717.535 132.755 719.489 134.609 721.337 136.395C722.965 137.966 724.64 139.612 725.409 141.678C726.179 143.743 725.785 146.363 723.864 147.616C721.978 148.846 719.268 148.343 717.455 147.022C715.743 145.578 714.378 143.812 713.449 141.84L713.27 142.725Z" fill="#2F2E41"/>
<path d="M720.634 136.941C720.754 131.221 727.736 127.119 733.767 128.133C739.798 129.147 744.433 133.948 746.753 139.243C751.655 150.43 747.976 163.196 743.252 174.454C738.529 185.713 732.683 197.135 733.373 209.206C733.839 215.73 736.184 222.016 740.159 227.399C744.135 232.782 749.593 237.063 755.958 239.789C749.153 242.669 741.018 239.694 735.299 235.203C722.598 225.23 717.696 207.475 723.649 193.012C726.585 185.878 731.76 179.774 735.8 173.128C739.84 166.481 742.804 158.648 740.718 151.258C738.631 143.867 729.755 137.885 722.166 140.744L720.634 136.941Z" fill="#2F2E41"/>
<path d="M697.549 166.077C699.445 163.087 701.356 159.16 697.893 156.546C697.14 156.003 696.278 155.607 695.358 155.38C694.438 155.153 693.479 155.1 692.537 155.223C688.632 155.663 684.379 155.844 680.598 154.519C679.18 154.064 677.874 153.347 676.759 152.411C675.644 151.475 674.741 150.339 674.105 149.071C672.157 144.753 674.597 139.506 678.677 136.777C681.173 135.168 684.122 134.283 687.155 134.233C690.188 134.183 693.169 134.97 695.724 136.495C701.009 134.316 707.42 135.285 712.222 138.286C717.023 141.286 720.308 146.091 722.093 151.221C723.737 155.637 724.02 160.396 722.91 164.955C722.016 168.126 720.318 171.05 717.958 173.479C715.598 175.907 712.646 177.769 709.352 178.906C708.069 179.379 706.675 179.528 705.311 179.34C703.947 179.151 702.659 178.631 701.578 177.832C699.82 176.36 698.471 174.512 697.644 172.447C696.923 170.185 696.538 167.675 697.549 166.077Z" fill="#2F2E41"/>
<path d="M633.052 184.192C633.16 184.638 633.231 185.091 633.263 185.548L671.289 206.032L680.531 201.063L690.384 213.108L674.938 223.389C673.69 224.22 672.186 224.65 670.654 224.615C669.122 224.58 667.643 224.082 666.44 223.195L627.225 194.31C625.455 194.922 623.527 195.017 621.698 194.581C619.869 194.145 618.226 193.2 616.986 191.87C615.747 190.541 614.97 188.89 614.76 187.139C614.55 185.387 614.916 183.617 615.809 182.064C616.702 180.512 618.081 179.25 619.761 178.446C621.441 177.643 623.343 177.337 625.215 177.568C627.086 177.799 628.838 178.556 630.237 179.739C631.636 180.923 632.616 182.476 633.046 184.192L633.052 184.192Z" fill="#FFB8B8"/>
<path d="M672.561 207.002L684.851 221.875C685.201 222.298 685.644 222.646 686.15 222.894C686.656 223.142 687.214 223.286 687.785 223.315C688.356 223.345 688.928 223.259 689.46 223.064C689.992 222.868 690.473 222.568 690.87 222.184L704.783 208.693C705.953 207.885 706.941 206.869 707.69 205.703C708.439 204.538 708.935 203.246 709.148 201.901C709.361 200.556 709.288 199.186 708.933 197.867C708.578 196.549 707.948 195.309 707.079 194.219C706.21 193.128 705.119 192.209 703.868 191.513C702.618 190.817 701.233 190.358 699.792 190.162C698.352 189.967 696.884 190.039 695.473 190.374C694.062 190.71 692.736 191.302 691.571 192.116C691.451 192.2 691.332 192.286 691.216 192.374L673.767 201.484C673.267 201.745 672.834 202.104 672.496 202.535C672.158 202.967 671.924 203.461 671.809 203.985C671.695 204.508 671.702 205.049 671.831 205.57C671.961 206.091 672.209 206.579 672.558 207.002H672.561Z" fill="#2C3099"/>
<path d="M202.941 444.15L214.737 444.149L220.35 401.66L202.939 401.661L202.941 444.15Z" fill="#A0616A"/>
<path d="M199.931 440.553L223.164 440.552H223.165C227.092 440.552 230.858 442.009 233.634 444.602C236.411 447.194 237.971 450.711 237.971 454.377V454.826L199.932 454.828L199.931 440.553Z" fill="#2F2E41"/>
<path d="M111.084 439.381L122.749 441.028L135.1 399.799L119.808 397.37L111.084 439.381Z" fill="#A0616A"/>
<path d="M108.684 435.405L131.656 438.647C135.539 439.196 139.03 441.162 141.36 444.113C143.691 447.064 144.67 450.758 144.083 454.384L144.012 454.828L106.4 449.519L108.684 435.405Z" fill="#2F2E41"/>
<path d="M147.458 233.583L160.557 236.788L159.685 256.618L159.577 292.722C160.868 293.555 161.857 294.735 162.414 296.105C162.97 297.474 163.069 298.97 162.696 300.393C162.323 301.816 161.496 303.1 160.324 304.075C159.153 305.049 157.692 305.669 156.135 305.852C154.579 306.034 152.999 305.771 151.606 305.098C150.212 304.424 149.071 303.371 148.333 302.078C147.594 300.785 147.293 299.314 147.47 297.858C147.647 296.402 148.292 295.031 149.322 293.925L145.297 257.689L147.458 233.583Z" fill="#A0616A"/>
<path d="M145.178 210.87C145.25 208.954 145.912 207.097 147.084 205.523C148.256 203.948 149.889 202.722 151.788 201.991C153.565 201.249 155.536 201.007 157.458 201.296C159.38 201.584 161.17 202.391 162.609 203.616C163.642 204.479 164.462 205.541 165.011 206.73C165.56 207.919 165.824 209.205 165.786 210.499C165.82 222.116 163.012 239.048 162.983 239.218L162.939 239.487L143.793 245.507L145.178 210.87Z" fill="#389B48"/>
<path d="M179.411 243.846L208.695 236.768L222.232 279.337L222.713 437.926L200.319 437.795L190.958 309.438L131.298 428.042L107.242 425.347L159.685 298.206C159.685 298.206 156.798 275.743 165.94 264.512L164.015 252.831L179.411 243.846Z" fill="#2F2E41"/>
<path d="M159.666 254.437C159.256 253.972 158.959 253.431 158.794 252.849C158.629 252.268 158.599 251.66 158.708 251.067L145.351 213.648C144.727 211.899 144.661 210.018 145.16 208.235C145.659 206.451 146.703 204.841 148.163 203.6L153.961 198.679L157.891 184.001L180.477 189.157L178.616 196.107L188.837 194.372L210.367 239.147L165.365 255.944L163.148 255.976C162.482 255.977 161.823 255.84 161.221 255.573C160.619 255.307 160.087 254.919 159.666 254.437Z" fill="#389B48"/>
<path d="M191.014 222.844L203.919 219.015L214.534 236.209L235.11 266.776C236.678 266.836 238.189 267.339 239.444 268.219C240.699 269.099 241.638 270.313 242.137 271.702C242.637 273.091 242.673 274.589 242.241 275.998C241.809 277.406 240.929 278.659 239.718 279.59C238.507 280.522 237.021 281.088 235.458 281.214C233.895 281.34 232.327 281.02 230.963 280.296C229.599 279.572 228.502 278.478 227.818 277.16C227.134 275.841 226.895 274.36 227.132 272.911L202.987 244.295L191.014 222.844Z" fill="#A0616A"/>
<path d="M176.085 204.785C175.049 203.13 174.546 201.23 174.635 199.315C174.724 197.399 175.402 195.548 176.589 193.983C177.666 192.469 179.193 191.281 180.983 190.566C182.773 189.85 184.747 189.638 186.664 189.955C188.031 190.168 189.333 190.657 190.477 191.388C191.621 192.119 192.581 193.074 193.289 194.186C199.968 203.987 207.288 219.699 207.361 219.856L207.477 220.106L194.742 234.75L176.085 204.785Z" fill="#399B48"/>
<path d="M174.602 181.271C184.512 181.271 192.547 173.768 192.547 164.514C192.547 155.26 184.512 147.758 174.602 147.758C164.691 147.758 156.656 155.26 156.656 164.514C156.656 173.768 164.691 181.271 174.602 181.271Z" fill="#A0616A"/>
<path d="M142.889 157.446C152.435 157.446 160.174 150.219 160.174 141.305C160.174 132.391 152.435 125.165 142.889 125.165C133.342 125.165 125.603 132.391 125.603 141.305C125.603 150.219 133.342 157.446 142.889 157.446Z" fill="#2F2E41"/>
<path d="M127.979 154.671C130.216 156.181 132.808 157.169 135.538 157.551C138.268 157.934 141.056 157.701 143.67 156.871C146.283 156.041 148.646 154.639 150.56 152.782C152.475 150.925 153.885 148.666 154.673 146.196C154.374 148.41 153.588 150.542 152.363 152.458C151.138 154.373 149.5 156.031 147.555 157.326C145.609 158.621 143.396 159.526 141.057 159.982C138.718 160.439 136.303 160.437 133.965 159.978C131.626 159.519 129.415 158.612 127.471 157.315C125.526 156.018 123.891 154.358 122.669 152.441C121.446 150.524 120.662 148.391 120.367 146.177C120.072 143.963 120.271 141.715 120.953 139.577C120.566 142.45 121.014 145.367 122.25 148.023C123.486 150.679 125.465 152.975 127.979 154.671Z" fill="#2F2E41"/>
<path d="M196.196 154.689C193.178 149.644 192.023 147.537 188.133 144.47C184.692 141.757 180.46 140.96 177.046 143.531C173.008 141.901 168.514 141.532 164.233 142.477C159.952 143.422 156.112 145.632 153.283 148.777C150.454 151.923 148.787 155.837 148.53 159.937C148.272 164.038 149.438 168.107 151.855 171.539C154.271 174.972 157.809 177.585 161.942 178.99C166.076 180.396 170.585 180.519 174.799 179.341C179.013 178.164 182.709 175.748 185.335 172.453C187.962 169.158 189.381 165.16 189.381 161.052C189.378 160.331 189.331 159.61 189.242 158.894C192.209 158.505 193.228 155.078 196.196 154.689Z" fill="#2F2E41"/>
<path d="M371.722 455H0.973094C0.715014 455 0.467503 454.904 0.285012 454.734C0.102521 454.563 0 454.332 0 454.091C0 453.85 0.102521 453.619 0.285012 453.449C0.467503 453.278 0.715014 453.183 0.973094 453.183H371.722C371.98 453.183 372.228 453.278 372.41 453.449C372.593 453.619 372.695 453.85 372.695 454.091C372.695 454.332 372.593 454.563 372.41 454.734C372.228 454.904 371.98 455 371.722 455Z" fill="black"/>
<path d="M867.027 455H496.278C496.02 455 495.772 454.904 495.59 454.734C495.407 454.563 495.305 454.332 495.305 454.091C495.305 453.85 495.407 453.619 495.59 453.449C495.772 453.278 496.02 453.183 496.278 453.183H867.027C867.285 453.183 867.533 453.278 867.715 453.449C867.897 453.619 868 453.85 868 454.091C868 454.332 867.897 454.563 867.715 454.734C867.533 454.904 867.285 455 867.027 455Z" fill="black"/>
<path d="M383.688 17.9453H381.742V293.297H383.688V17.9453Z" fill="#CBCBCB"/>
</g>
<defs>
<clipPath id="clip0_63_292">
<rect width="868" height="455" fill="white"/>
</clipPath>
</defs>
</svg>
