<svg width="623" height="294" viewBox="0 0 623 294" fill="none" xmlns="http://www.w3.org/2000/svg">
<g clip-path="url(#clip0_63_830)">
<path d="M435.966 61.7799C435.914 61.7888 435.836 61.8019 435.742 61.8175C433.897 62.1223 422.742 63.8403 411.496 59.5639C406.732 57.7523 408.357 57.3008 397.746 51.0025C385.306 43.6185 382.114 43.67 381.187 40.227C379.337 33.3518 389.215 22.5438 395.752 23.2554C397.474 23.4427 399.317 24.4671 402.184 23.7725C402.814 23.6199 405.572 22.9519 406.916 20.6735C408.115 18.641 407.099 17.1749 407.582 15.5079C408.847 11.1325 419.4 8.94886 428.652 10.4917C433.973 11.3791 438.111 13.8017 446.172 18.6107C460.201 26.9808 467.216 31.1659 468.792 37.5779C470.286 43.6554 466.7 46.2741 469.308 52.7798C471.737 58.8373 475.595 58.4328 476.922 63.3331C479.058 71.2187 471.13 79.8732 467.827 83.4784C464.206 87.431 460.743 89.6004 456.146 92.4803C450.375 96.0952 447.49 97.9026 444.021 97.7187C437.732 97.3853 419.043 98.5203 418.799 93.3251C418.708 91.3781 396.042 92.9722 407.203 72.0108C408.572 69.4398 435.389 72.186 435.743 70.709" fill="#2F2E41"/>
<path d="M180.319 270.448L154.189 272.809L121.737 289.261L116.385 270.181L111.711 246.026L121.448 234.579L138.269 246.026L173.438 242.21L180.319 270.448Z" fill="#FFB6B6"/>
<path d="M395.158 191.078L415.036 288.764L270.536 247.553L177.261 273.501L163.499 243.737L266.713 200.236L351.578 201.762L395.158 191.078Z" fill="#2F2E41"/>
<path d="M118.804 244.993L115.746 247.282L134.734 283.156C134.734 283.156 121.908 290.625 118.085 290.625C114.262 290.625 101.22 216.755 102.749 205.846C104.278 194.936 114.217 198.439 114.217 198.439L135.672 243.682L118.804 244.993Z" fill="#2F2E41"/>
<path d="M541.875 232.604C543.879 232.389 544.661 235.127 542.85 236.012C540.228 237.293 537.762 238.907 536.476 240.818C533.19 245.704 528.648 242.88 528.003 242.441C526.941 244.205 526.418 245.988 526.193 247.573L527.742 252.696C527.81 253.038 527.739 252.686 527.742 252.696L528.93 265.734C529.743 268.901 529.129 271.95 528.93 272.846L530.117 289.44L526.797 289.466L526.439 273.232L526.37 273.212C526.372 273.205 526.397 273.116 526.433 272.957L526.285 266.249C525.987 265.101 525.514 263.893 524.793 262.695C524.147 263.133 519.606 265.958 516.319 261.072C515.033 259.16 512.567 257.546 509.945 256.265C508.135 255.381 508.916 252.642 510.921 252.858C512.618 253.04 514.471 253.314 516.441 253.714C524.794 255.412 524.968 261.074 524.894 262.372L524.951 262.337C525.522 263.251 525.945 264.171 526.259 265.071L525.981 252.439C525.808 251.545 523.878 250.127 524.18 247.955L525.471 229.302C525.015 230.083 524.51 230.59 524.033 230.536C522.894 230.406 522.319 227.114 522.463 224.718C521.047 226.676 518.36 228.953 517.381 228.299C516.64 227.804 517.079 225.766 517.888 223.914C516.202 224.928 514.335 225.594 513.755 224.95C512.964 224.072 514.859 221.073 516.607 219.4C514.268 219.618 511.293 219.246 511.098 218.183C510.937 217.307 512.708 216.202 514.603 215.491C512.699 214.99 510.919 214.117 510.978 213.254C511.062 212.023 514.846 211.279 517.267 211.444C517.406 211.454 517.537 211.466 517.662 211.481C515.588 210.226 513.037 207.637 513.634 206.6C514.078 205.828 516.144 206.127 518.051 206.806C516.923 205.196 516.13 203.382 516.734 202.761C517.594 201.876 520.964 203.749 522.704 205.437C522.866 205.594 523.009 205.744 523.133 205.887C523.126 205.764 523.123 205.635 523.123 205.498C523.123 203.076 524.124 199.358 525.359 199.358C526.227 199.358 526.978 201.191 527.349 203.12C528.189 201.281 529.414 199.593 530.278 199.813C531.311 200.076 531.49 202.978 531.135 205.277C532.958 203.801 535.629 202.466 536.382 203.239C536.986 203.86 536.192 205.675 535.064 207.285C536.971 206.605 539.037 206.306 539.481 207.078C539.965 207.918 538.385 209.774 536.665 211.117C538.945 211.221 541.588 211.909 541.658 212.935C541.717 213.798 539.937 214.671 538.033 215.172C539.928 215.883 541.699 216.988 541.538 217.864C541.343 218.927 538.368 219.299 536.029 219.081C537.777 220.754 539.671 223.753 538.881 224.631C538.301 225.275 536.434 224.609 534.747 223.595C535.557 225.447 535.996 227.485 535.255 227.98C534.327 228.599 531.868 226.59 530.407 224.712C530.622 227.11 530.121 230.485 528.972 230.642C528.088 230.762 527.063 228.946 526.438 227.024C526.25 227.622 526.025 228.206 525.778 228.721L526.16 246.074C526.478 244.79 527.004 243.429 527.844 242.084L527.901 242.119C527.828 240.821 528.001 235.159 536.355 233.461C538.325 233.06 540.177 232.787 541.875 232.604ZM526.648 268.175L526.71 271.014C526.767 270.217 526.774 269.248 526.648 268.175Z" fill="#AC4C2F"/>
<path d="M1.41315 287.749H621.587C622.371 287.749 623 288.377 623 289.16C623 289.942 622.371 290.57 621.587 290.57H1.41315C0.629395 290.57 0 289.942 0 289.16C0 288.377 0.629395 287.749 1.41315 287.749Z" fill="#3F3D56"/>
<path d="M454.316 106.099L444.377 70.9927L419.912 71.7558L411.502 99.9933L454.316 106.099Z" fill="#FFB6B6"/>
<path d="M449.059 96.0625C449.059 96.0625 456.322 94.1546 470.084 111.708C483.846 129.261 477.729 254.422 477.729 254.422L377.955 231.908L404.064 142.183L409.302 94.5361L449.059 96.0625Z" fill="#58A1D8"/>
<path d="M293.407 128.299L326.229 147.268L319.021 160.499L285.549 142.217C281.955 142.037 278.457 141.001 275.346 139.194C267.499 134.78 263.421 127.164 266.234 122.181C269.047 117.197 277.687 116.735 285.531 121.149C288.69 122.87 291.391 125.322 293.407 128.299Z" fill="#FFB6B6"/>
<path d="M450.704 131.248L382.345 193.747L288.208 148.284L300.017 124.855L367.248 151.461L431.711 99.6592L450.704 131.248Z" fill="#58A1D8"/>
<path d="M473.142 240.684L445.618 197.183C445.618 197.183 390.57 142.235 369.927 146.814C349.284 151.393 324.819 237.631 324.819 237.631L345.462 250.605L382.16 199.473C382.16 199.473 385.983 269.685 397.352 284.948C408.721 300.212 454.792 293.343 471.613 284.948C488.433 276.553 473.142 240.684 473.142 240.684Z" fill="#2F2E41"/>
<path d="M346.991 241.447L343.933 255.948L345.462 265.106L340.11 275.79L298.06 280.369L295.766 260.527L317.938 249.079L333.994 233.052L346.991 241.447Z" fill="#FFB6B6"/>
<path d="M301.118 272.738L303.412 275.79L347.448 263.123C347.448 263.123 345.462 282.659 345.462 286.475C345.462 290.291 272.829 290.291 261.9 288.764C250.971 287.238 254.48 277.317 254.48 277.317L299.805 255.9L301.118 272.738Z" fill="#2F2E41"/>
<path d="M351.321 138.272L314.085 141.517L292.182 134.842L279.781 119.723L269.641 85.0366L327.481 58.9636L328.538 58.4888L336.553 59.2584L350.987 136.483L351.321 138.272Z" fill="#FD6982"/>
<path opacity="0.2" d="M350.987 136.483L340.978 137.84L327.481 58.9636L328.538 58.4888L336.553 59.2584L350.987 136.483Z" fill="#241F20"/>
<path d="M347.238 143.641C348.693 143.526 350.016 142.783 350.87 141.603C351.724 140.422 352.014 138.934 351.666 137.519L349.78 129.866L349.608 129.889C349.505 129.903 339.222 131.271 327.377 131.769C311.722 132.427 300.461 131.272 294.812 128.429C280.899 121.424 272.851 83.6028 272.771 83.2215L272.734 83.0449L269.709 83.4632C268.34 83.653 267.139 84.3709 266.326 85.4852C265.515 86.5968 265.2 87.9544 265.439 89.3078C267.302 99.884 273.397 125.57 289.71 135.631C289.87 135.73 290.029 135.826 290.192 135.923C306.563 145.65 335.481 144.568 347.238 143.641Z" fill="#3F3D58"/>
<path d="M304.181 132.292C307.42 133.861 310.235 136.181 312.391 139.058L346.083 156.443L339.515 170.002L305.208 153.335C301.609 153.327 298.065 152.458 294.872 150.802C286.823 146.767 282.385 139.354 284.956 134.242C287.528 129.131 296.135 128.257 304.181 132.292Z" fill="#FFB6B6"/>
<path d="M469.649 134.509L404.358 200.194L308.153 159.269L318.828 135.304L387.255 158.675L449.167 103.861L469.649 134.509Z" fill="#58A1D8"/>
<path d="M430.864 84.8619C411.295 84.8619 395.431 69.0268 395.431 49.4932C395.431 29.9596 411.295 14.1245 430.864 14.1245C450.433 14.1245 466.296 29.9596 466.296 49.4932C466.296 69.0268 450.433 84.8619 430.864 84.8619Z" fill="#FFB6B6"/>
<path d="M442.276 51.7819C442.224 51.7907 442.147 51.8038 442.052 51.8194C440.207 52.1243 429.053 53.8422 417.806 49.5659C413.042 47.7543 414.667 47.3028 404.056 41.0045C391.616 33.6204 388.424 33.672 387.497 30.2289C385.648 23.3537 395.525 12.5457 402.063 13.2573C403.784 13.4447 405.627 14.469 408.494 13.7745C409.124 13.6219 411.882 12.9539 413.226 10.6755C414.425 8.64299 413.41 7.17681 413.892 5.50988C415.158 1.13441 425.71 -1.04919 434.962 0.493642C440.283 1.38103 444.422 3.80363 452.482 8.61261C466.511 16.9828 473.526 21.1679 475.102 27.5799C476.597 33.6573 473.01 36.276 475.619 42.7817C478.047 48.8393 481.905 48.4347 483.232 53.3351C485.368 61.2206 477.44 69.8751 474.137 73.4803C470.516 77.433 467.053 79.6024 462.456 82.4823C456.685 86.0972 453.8 87.9046 450.331 87.7207C444.042 87.3873 437.787 81.698 437.543 76.5027C437.451 74.5558 438.265 73.9719 440.279 67.2786C441.118 64.4901 441.7 62.188 442.054 60.711" fill="#2F2E41"/>
</g>
<defs>
<clipPath id="clip0_63_830">
<rect width="623" height="294" fill="white" transform="matrix(-1 0 0 1 623 0)"/>
</clipPath>
</defs>
</svg>
