<svg width="613" height="441" viewBox="0 0 613 441" fill="none" xmlns="http://www.w3.org/2000/svg">
<g clip-path="url(#clip0_63_236)">
<path d="M481.787 39.6809C480.239 28.3751 478.297 16.2366 470.286 8.07522C467.744 5.48562 464.702 3.43521 461.343 2.04761C457.984 0.660014 454.377 -0.0360346 450.74 0.00143631C447.103 0.0389072 443.511 0.809129 440.182 2.26564C436.852 3.72216 433.853 5.83481 431.365 8.47624C425.534 14.6686 422.959 23.3636 422.723 31.8478C422.488 40.3321 424.386 48.7222 426.492 56.9468C437.636 57.1684 448.697 55.0011 458.925 50.592C461.432 49.374 464.032 48.3577 466.702 47.5529C469.404 46.8683 471.33 48.5911 473.844 49.7924L475.224 47.1624C476.353 49.2549 479.851 48.6346 481.119 46.6227C482.388 44.6109 482.11 42.0344 481.787 39.6809Z" fill="#2F2E41"/>
<path d="M435.242 87.4173L438.469 71.0094L414.275 60.5831L371.023 39.9559C370.721 38.0418 369.843 36.264 368.505 34.8576C367.166 33.4511 365.43 32.4823 363.527 32.0794C361.623 31.6764 359.641 31.8582 357.844 32.6008C356.046 33.3434 354.517 34.6117 353.459 36.238C352.402 37.8643 351.865 39.772 351.92 41.7086C351.975 43.6453 352.619 45.5196 353.768 47.0837C354.916 48.6479 356.515 49.8281 358.352 50.4682C360.189 51.1083 362.178 51.1782 364.055 50.6687L405.238 75.9681L435.242 87.4173Z" fill="#FFB8B8"/>
<path d="M419.001 84.6411L436.524 66.8096L436.871 66.9145C437.089 66.9802 458.86 73.5872 472.74 80.3012C474.309 81.0022 475.705 82.0353 476.831 83.3287C477.958 84.622 478.787 86.1444 479.262 87.7896C479.953 90.0932 479.953 92.5475 479.262 94.851C478.571 97.1546 477.219 99.2072 475.373 100.757C473.475 102.448 471.128 103.559 468.612 103.958C466.097 104.357 463.519 104.026 461.187 103.005L419.001 84.6411Z" fill="#75CF97"/>
<path d="M418.947 163.037L468.221 176.144L478.172 129.808L432.945 115.873L418.947 163.037Z" fill="#FFB8B8"/>
<path d="M473.737 150.46L425.602 139.441L416.385 117.203C415.635 114.028 415.817 110.706 416.909 107.632C418.002 104.558 419.959 101.861 422.548 99.8627L440.135 85.0826L449.563 73.0941L448.536 66.7408C448.353 65.471 448.62 64.1773 449.293 63.0832C449.966 61.989 451.002 61.1633 452.221 60.7486L464.786 56.2632C466.175 55.7462 467.71 55.7739 469.079 56.3407C470.449 56.9075 471.55 57.9711 472.162 59.3162L473.493 62.3837C473.493 62.3837 479.175 65.0452 482.378 66.5424C484.027 67.2885 485.498 68.3727 486.697 69.724C487.895 71.0754 488.793 72.6635 489.332 74.3843C494.235 90.1575 492.913 107.198 485.636 122.035L473.737 150.46Z" fill="#75CF97"/>
<path d="M45.6592 386.527L22.3857 380.328C18.9636 368.202 18.5669 355.428 21.2299 343.115C31.3834 363.094 58.6528 366.861 74.8072 382.442C79.8082 387.34 83.6379 393.295 86.0124 399.867C88.387 406.438 89.2456 413.457 88.5245 420.404L94.0998 436.482C82.7832 436.037 71.6982 433.154 61.6084 428.034C51.5187 422.913 42.6642 415.676 35.6548 406.82C31.772 401.814 28.538 396.34 26.0292 390.529C35.7678 389.109 45.6592 386.527 45.6592 386.527Z" fill="#75CF97"/>
<path d="M334.805 441H106.695C100.581 440.993 94.7202 438.572 90.3975 434.269C86.0747 429.966 83.6431 424.132 83.6362 418.046V117.378C83.6431 111.292 86.0747 105.458 90.3975 101.155C94.7203 96.8517 100.581 94.4312 106.695 94.4243H334.805C340.919 94.4312 346.78 96.8517 351.102 101.155C355.425 105.458 357.857 111.292 357.864 117.378V418.046C357.857 424.132 355.425 429.966 351.102 434.269C346.78 438.572 340.919 440.993 334.805 441Z" fill="#E6E6E6"/>
<path d="M247.742 422.389H122.729C117.162 422.383 111.826 420.179 107.89 416.261C103.954 412.343 101.74 407.03 101.733 401.489V133.935C101.74 128.394 103.954 123.082 107.89 119.164C111.826 115.246 117.162 113.042 122.729 113.036H318.77C324.337 113.042 329.673 115.246 333.609 119.164C337.545 123.082 339.759 128.394 339.766 133.935V330.785C339.738 355.071 330.034 378.355 312.782 395.529C295.53 412.702 272.14 422.362 247.742 422.389Z" fill="white"/>
<path d="M299.214 164.401H142.285C141.613 164.402 140.948 164.271 140.326 164.015C139.705 163.76 139.141 163.386 138.665 162.913C138.189 162.441 137.811 161.879 137.553 161.262C137.295 160.644 137.162 159.981 137.161 159.312C137.16 158.643 137.292 157.981 137.548 157.362C137.805 156.744 138.181 156.182 138.656 155.708C139.13 155.234 139.694 154.858 140.315 154.602C140.935 154.345 141.601 154.212 142.273 154.211H299.214C300.572 154.21 301.874 154.745 302.835 155.699C303.796 156.653 304.337 157.949 304.339 159.3C304.34 160.651 303.803 161.947 302.844 162.904C301.885 163.861 300.584 164.399 299.227 164.401H299.214Z" fill="#75CF97"/>
<path d="M299.214 184.533H142.285C140.928 184.533 139.626 183.996 138.666 183.04C137.706 182.085 137.167 180.789 137.167 179.438C137.167 178.086 137.706 176.791 138.666 175.835C139.626 174.88 140.928 174.343 142.285 174.343H299.214C300.571 174.343 301.873 174.88 302.833 175.835C303.793 176.791 304.332 178.086 304.332 179.438C304.332 180.789 303.793 182.085 302.833 183.04C301.873 183.996 300.571 184.533 299.214 184.533Z" fill="#75CF97"/>
<path d="M210.31 204.664H142.285C140.928 204.664 139.626 204.127 138.666 203.172C137.706 202.216 137.167 200.92 137.167 199.569C137.167 198.218 137.706 196.922 138.666 195.966C139.626 195.011 140.928 194.474 142.285 194.474H210.31C211.668 194.474 212.969 195.011 213.929 195.966C214.889 196.922 215.428 198.218 215.428 199.569C215.428 200.92 214.889 202.216 213.929 203.172C212.969 204.127 211.668 204.664 210.31 204.664Z" fill="#75CF97"/>
<path d="M299.214 246.827H142.285C140.928 246.829 139.626 246.294 138.665 245.339C137.704 244.385 137.163 243.09 137.161 241.739C137.159 240.388 137.697 239.091 138.656 238.134C139.614 237.178 140.915 236.639 142.273 236.638H299.214C300.572 236.636 301.874 237.171 302.835 238.125C303.796 239.08 304.337 240.375 304.339 241.726C304.34 243.077 303.803 244.374 302.844 245.33C301.885 246.287 300.584 246.825 299.227 246.827H299.214Z" fill="#E4E4E4"/>
<path d="M299.214 266.958H142.285C140.928 266.958 139.626 266.422 138.666 265.466C137.706 264.511 137.167 263.215 137.167 261.863C137.167 260.512 137.706 259.216 138.666 258.261C139.626 257.305 140.928 256.769 142.285 256.769H299.214C300.571 256.769 301.873 257.305 302.833 258.261C303.793 259.216 304.332 260.512 304.332 261.863C304.332 263.215 303.793 264.511 302.833 265.466C301.873 266.422 300.571 266.958 299.214 266.958Z" fill="#E4E4E4"/>
<path d="M210.31 287.09H142.285C140.928 287.09 139.626 286.553 138.666 285.597C137.706 284.642 137.167 283.346 137.167 281.995C137.167 280.644 137.706 279.348 138.666 278.392C139.626 277.437 140.928 276.9 142.285 276.9H210.31C211.668 276.9 212.969 277.437 213.929 278.392C214.889 279.348 215.428 280.644 215.428 281.995C215.428 283.346 214.889 284.642 213.929 285.597C212.969 286.553 211.668 287.09 210.31 287.09Z" fill="#E4E4E4"/>
<path d="M299.214 329.253H142.285C140.928 329.254 139.626 328.719 138.665 327.765C137.704 326.811 137.163 325.516 137.161 324.164C137.159 322.813 137.697 321.517 138.656 320.56C139.614 319.604 140.915 319.065 142.273 319.063H299.214C300.572 319.062 301.874 319.597 302.835 320.551C303.796 321.505 304.337 322.801 304.339 324.152C304.34 325.503 303.803 326.799 302.844 327.756C301.885 328.713 300.584 329.251 299.227 329.253H299.214Z" fill="#E4E4E4"/>
<path d="M299.214 349.384H142.285C140.928 349.384 139.626 348.847 138.666 347.892C137.706 346.936 137.167 345.64 137.167 344.289C137.167 342.938 137.706 341.642 138.666 340.687C139.626 339.731 140.928 339.194 142.285 339.194H299.214C300.571 339.194 301.873 339.731 302.833 340.687C303.793 341.642 304.332 342.938 304.332 344.289C304.332 345.64 303.793 346.936 302.833 347.892C301.873 348.847 300.571 349.384 299.214 349.384Z" fill="#E4E4E4"/>
<path d="M210.31 369.516H142.285C140.929 369.513 139.63 368.975 138.672 368.02C137.715 367.065 137.177 365.771 137.177 364.421C137.177 363.072 137.715 361.777 138.672 360.822C139.63 359.867 140.929 359.329 142.285 359.326H210.31C211.666 359.329 212.965 359.867 213.923 360.822C214.881 361.777 215.418 363.072 215.418 364.421C215.418 365.771 214.881 367.065 213.923 368.02C212.965 368.975 211.666 369.513 210.31 369.516Z" fill="#E4E4E4"/>
<path d="M346.599 166.505C383.346 166.505 413.135 136.851 413.135 100.272C413.135 63.6925 383.346 34.0391 346.599 34.0391C309.853 34.0391 280.063 63.6925 280.063 100.272C280.063 136.851 309.853 166.505 346.599 166.505Z" fill="#75CF97"/>
<path opacity="0.16" d="M346.599 157.329C329.766 157.327 313.559 150.973 301.246 139.547C288.933 128.121 281.429 112.474 280.246 95.7588C280.138 97.3007 280.063 98.8518 280.063 100.421C280.07 117.983 287.083 134.823 299.56 147.239C312.037 159.654 328.957 166.629 346.599 166.629C364.241 166.629 381.161 159.654 393.638 147.239C406.116 134.823 413.128 117.983 413.135 100.421C413.135 98.8518 413.061 97.3007 412.953 95.7588C411.77 112.474 404.266 128.121 391.952 139.547C379.639 150.973 363.433 157.327 346.599 157.329Z" fill="#231F20"/>
<path d="M346.599 132.639C344.39 132.636 342.272 131.762 340.71 130.207C339.148 128.651 338.269 126.543 338.267 124.344V76.3497C338.265 75.2597 338.48 74.1802 338.898 73.1729C339.317 72.1655 339.93 71.2501 340.704 70.4789C341.478 69.7078 342.397 69.096 343.408 68.6786C344.42 68.2612 345.504 68.0464 346.599 68.0464C347.694 68.0464 348.778 68.2612 349.79 68.6786C350.801 69.096 351.72 69.7078 352.494 70.4789C353.268 71.2501 353.882 72.1655 354.3 73.1729C354.718 74.1802 354.933 75.2597 354.932 76.3497V124.344C354.929 126.543 354.051 128.651 352.488 130.206C350.926 131.761 348.808 132.636 346.599 132.639Z" fill="white"/>
<path d="M314.16 100.347C314.162 98.1479 315.041 96.0396 316.603 94.4845C318.165 92.9295 320.283 92.0548 322.492 92.0523H370.706C371.801 92.0511 372.886 92.2648 373.898 92.6811C374.91 93.0974 375.829 93.7082 376.604 94.4785C377.379 95.2489 377.993 96.1636 378.413 97.1706C378.832 98.1775 379.048 99.2568 379.048 100.347C379.048 101.437 378.832 102.516 378.413 103.523C377.993 104.53 377.379 105.445 376.604 106.215C375.829 106.985 374.91 107.596 373.898 108.012C372.886 108.429 371.801 108.643 370.706 108.641H322.492C320.283 108.639 318.165 107.764 316.603 106.209C315.041 104.654 314.162 102.546 314.16 100.347Z" fill="white"/>
<path d="M446.619 114.42L432.461 105.426L413.859 124.023L378.745 156.542C376.845 156.12 374.862 156.283 373.057 157.009C371.253 157.734 369.712 158.987 368.638 160.603C367.565 162.22 367.009 164.122 367.046 166.059C367.082 167.996 367.708 169.877 368.841 171.452C369.975 173.027 371.562 174.222 373.392 174.88C375.223 175.538 377.211 175.627 379.094 175.135C380.976 174.644 382.665 173.595 383.935 172.127C385.206 170.66 385.999 168.843 386.21 166.917L424.935 138.025L446.619 114.42Z" fill="#FFB8B8"/>
<path d="M438.08 128.45L427.823 105.691L428.047 105.408C428.189 105.231 442.334 87.4794 453.69 77.0792C454.919 75.8825 456.396 74.9672 458.018 74.3971C459.639 73.827 461.366 73.6158 463.077 73.7782C465.483 73.9822 467.778 74.8807 469.678 76.3636C471.579 77.8466 473.003 79.8494 473.777 82.1265C474.663 84.5035 474.843 87.0843 474.296 89.5605C473.748 92.0366 472.495 94.3034 470.687 96.0897L438.08 128.45Z" fill="#75CF97"/>
<path d="M447.347 53.6441C459.64 53.6441 469.606 43.7238 469.606 31.4866C469.606 19.2493 459.64 9.3291 447.347 9.3291C435.054 9.3291 425.088 19.2493 425.088 31.4866C425.088 43.7238 435.054 53.6441 447.347 53.6441Z" fill="#FFB8B8"/>
<path d="M412.765 425.13H403.563L399.183 389.799H412.765V425.13Z" fill="#FFB8B8"/>
<path d="M417.621 441H411.022L409.844 434.798L406.827 441H389.325C388.486 441 387.669 440.733 386.994 440.238C386.318 439.743 385.819 439.046 385.569 438.249C385.319 437.452 385.332 436.596 385.606 435.806C385.879 435.017 386.399 434.335 387.09 433.861L401.066 424.252V417.982L415.767 418.855L417.621 441Z" fill="#2F2E41"/>
<path d="M528.094 417.347L519.544 420.735L502.349 389.522L514.967 384.521L528.094 417.347Z" fill="#FFB8B8"/>
<path d="M538.503 430.305L532.372 432.734L528.973 427.406L528.474 434.279L512.213 440.722C511.434 441.031 510.576 441.084 509.764 440.873C508.952 440.662 508.23 440.198 507.701 439.549C507.173 438.9 506.867 438.101 506.828 437.266C506.789 436.432 507.019 435.607 507.484 434.912L516.899 420.839L514.57 415.014L528.553 410.413L538.503 430.305Z" fill="#2F2E41"/>
<path d="M416.314 408.899H397.28L402.54 319.881L398.695 259.543L398.703 259.495L413.045 173.003C414.173 166.183 417.222 159.821 421.838 154.657L422.012 154.461L470.012 166.262L474.838 177.216C491.316 186.972 496.521 241.989 496.734 244.332L503.711 312.916L520.777 396.973L508.759 403.415L508.558 403.016L470.617 327.915L446.657 248.717L431.312 319.997L416.314 408.899Z" fill="#2F2E41"/>
<path d="M474.913 32.5295C474.126 27.3791 473.303 22.1857 471.453 17.3361C469.602 12.4866 466.62 7.94428 462.341 5.19708C455.567 0.847576 446.796 1.68644 439.201 4.1884C433.327 6.1233 427.593 9.06419 423.451 13.7922C419.309 18.5202 416.982 25.2665 418.523 31.4485C426.625 29.543 434.727 27.6376 442.828 25.7321L441.942 26.3559C444.602 27.6764 446.925 29.5827 448.734 31.9304C450.544 34.278 451.792 37.0051 452.385 39.9047C452.964 42.8396 452.881 45.866 452.141 48.765C451.402 51.6639 450.024 54.363 448.108 56.6669C453.633 54.7157 459.159 52.7645 464.684 50.8134C468.095 49.609 471.745 48.2213 473.767 45.1322C476.112 41.5507 475.567 36.8036 474.913 32.5295Z" fill="#2F2E41"/>
<path d="M1.16694 440.787H611.833C612.143 440.787 612.439 440.664 612.658 440.446C612.877 440.229 613 439.933 613 439.625C613 439.317 612.877 439.021 612.658 438.804C612.439 438.586 612.143 438.463 611.833 438.463H1.16694C0.85744 438.463 0.560637 438.586 0.34179 438.804C0.122943 439.021 0 439.317 0 439.625C0 439.933 0.122943 440.229 0.34179 440.446C0.560637 440.664 0.85744 440.787 1.16694 440.787Z" fill="black"/>
</g>
<defs>
<clipPath id="clip0_63_236">
<rect width="613" height="441" fill="white"/>
</clipPath>
</defs>
</svg>
