<svg width="25" height="25" viewBox="0 -5 36 36" fill="none" xmlns="http://www.w3.org/2000/svg"><g filter="url(#filter0_d_63_92)"><path d="M30.7927 12.8354C30.4832 12.8354 30.1865 12.7125 29.9677 12.4937C29.7489 12.2749 29.626 11.9781 29.626 11.6687C29.6235 9.19412 28.6394 6.82159 26.8896 5.07178C25.1398 3.32198 22.7673 2.33786 20.2927 2.33539C19.9832 2.33539 19.6865 2.21247 19.4677 1.99368C19.2489 1.77489 19.126 1.47814 19.126 1.16872C19.126 0.8593 19.2489 0.562554 19.4677 0.343762C19.6865 0.124969 19.9832 0.00205294 20.2927 0.00205294C23.3858 0.00544981 26.3513 1.2357 28.5385 3.42289C30.7257 5.61008 31.9559 8.57557 31.9593 11.6687C31.9593 11.9781 31.8364 12.2749 31.6176 12.4937C31.3988 12.7125 31.1021 12.8354 30.7927 12.8354ZM27.2927 11.6687C27.2927 9.8122 26.5552 8.03173 25.2424 6.71897C23.9297 5.40622 22.1492 4.66872 20.2927 4.66872C19.9832 4.66872 19.6865 4.79164 19.4677 5.01043C19.2489 5.22922 19.126 5.52597 19.126 5.83539C19.126 6.14481 19.2489 6.44155 19.4677 6.66034C19.6865 6.87914 19.9832 7.00205 20.2927 7.00205C21.5303 7.00205 22.7173 7.49372 23.5925 8.36889C24.4677 9.24406 24.9593 10.431 24.9593 11.6687C24.9593 11.9781 25.0822 12.2749 25.301 12.4937C25.5198 12.7125 25.8166 12.8354 26.126 12.8354C26.4354 12.8354 26.7322 12.7125 26.951 12.4937C27.1698 12.2749 27.2927 11.9781 27.2927 11.6687ZM29.8395 25.8601L30.9012 24.6362C31.5769 23.9583 31.9564 23.0402 31.9564 22.083C31.9564 21.1258 31.5769 20.2076 30.9012 19.5297C30.865 19.4936 28.058 17.3341 28.058 17.3341C27.3843 16.6928 26.4895 16.3357 25.5593 16.337C24.6292 16.3383 23.7354 16.6979 23.0635 17.3411L20.8398 19.2147C19.0247 18.4635 17.3759 17.3611 15.988 15.9708C14.6001 14.5806 13.5006 12.9298 12.7525 11.1134L14.6192 8.89672C15.2628 8.22492 15.6228 7.33091 15.6244 6.40052C15.6259 5.47014 15.2688 4.57495 14.6273 3.90105C14.6273 3.90105 12.4655 1.09755 12.4293 1.06139C11.7637 0.391426 10.8612 0.0102453 9.91683 0.000203524C8.97247 -0.00983825 8.06206 0.352065 7.38233 1.00772L6.04066 2.17439C-1.88567 11.3701 15.1827 28.3066 24.6817 28.0021C25.6409 28.0076 26.5915 27.8209 27.4774 27.453C28.3632 27.0851 29.1664 26.5435 29.8395 25.8601Z" fill="black"/></g><defs><filter id="filter0_d_63_92" x="0" y="0" width="35.9594" height="36.0063" filterUnits="userSpaceOnUse" color-interpolation-filters="sRGB"><feFlood flood-opacity="0" result="BackgroundImageFix"/><feColorMatrix in="SourceAlpha" type="matrix" values="0 0 0 0 0 0 0 0 0 0 0 0 0 0 0 0 0 0 127 0" result="hardAlpha"/><feOffset dy="4"/><feGaussianBlur stdDeviation="2"/><feComposite in2="hardAlpha" operator="out"/><feColorMatrix type="matrix" values="0 0 0 0 0 0 0 0 0 0 0 0 0 0 0 0 0 0 0.25 0"/><feBlend mode="normal" in2="BackgroundImageFix" result="effect1_dropShadow_63_92"/><feBlend mode="normal" in="SourceGraphic" in2="effect1_dropShadow_63_92" result="shape"/></filter></defs></svg>
