<svg width="20" height="20" viewBox="0 0 28 25" fill="none" xmlns="http://www.w3.org/2000/svg">
<g filter="url(#filter0_d_63_640)">
<path d="M22.1667 0.5H5.83333C2.61683 0.5 0 3.11683 0 6.33333V15.6667C0 18.8832 2.61683 21.5 5.83333 21.5H22.1667C25.3832 21.5 28 18.8832 28 15.6667V6.33333C28 3.11683 25.3832 0.5 22.1667 0.5ZM13.1052 10.783L11.0355 12.4688L11.8918 15.0763C12.0085 15.4287 11.8907 15.8172 11.5955 16.0447C11.3003 16.271 10.8943 16.2873 10.584 16.0843L8.17483 14.5152L5.80533 16.1007C5.65833 16.1998 5.488 16.2488 5.31883 16.2488C5.13333 16.2488 4.949 16.1905 4.79383 16.0738C4.49633 15.851 4.37267 15.4648 4.4835 15.1113L5.30717 12.4723L3.227 10.7795C2.947 10.5415 2.8455 10.1553 2.9715 9.81117C3.0975 9.467 3.42533 9.23833 3.79283 9.23833H6.419L7.34883 6.63083C7.476 6.289 7.80383 6.0615 8.169 6.0615C8.53417 6.0615 8.862 6.289 8.98917 6.63083L9.919 9.23833H12.5452C12.9127 9.23833 13.2417 9.46817 13.3677 9.8135C13.4937 10.1588 13.3898 10.5462 13.1087 10.783H13.1052ZM19.8333 16.8333H17.5C16.856 16.8333 16.3333 16.3118 16.3333 15.6667C16.3333 15.0215 16.856 14.5 17.5 14.5H19.8333C20.4773 14.5 21 15.0215 21 15.6667C21 16.3118 20.4773 16.8333 19.8333 16.8333ZM23.3333 12.1667H17.5C16.856 12.1667 16.3333 11.6452 16.3333 11C16.3333 10.3548 16.856 9.83333 17.5 9.83333H23.3333C23.9773 9.83333 24.5 10.3548 24.5 11C24.5 11.6452 23.9773 12.1667 23.3333 12.1667ZM23.3333 7.5H17.5C16.856 7.5 16.3333 6.9785 16.3333 6.33333C16.3333 5.68817 16.856 5.16667 17.5 5.16667H23.3333C23.9773 5.16667 24.5 5.68817 24.5 6.33333C24.5 6.9785 23.9773 7.5 23.3333 7.5Z" fill="black"/>
</g>
<defs>
<filter id="filter0_d_63_640" x="-4" y="0.5" width="36" height="29" filterUnits="userSpaceOnUse" color-interpolation-filters="sRGB">
<feFlood flood-opacity="0" result="BackgroundImageFix"/>
<feColorMatrix in="SourceAlpha" type="matrix" values="0 0 0 0 0 0 0 0 0 0 0 0 0 0 0 0 0 0 127 0" result="hardAlpha"/>
<feOffset dy="4"/>
<feGaussianBlur stdDeviation="2"/>
<feComposite in2="hardAlpha" operator="out"/>
<feColorMatrix type="matrix" values="0 0 0 0 0 0 0 0 0 0 0 0 0 0 0 0 0 0 0.25 0"/>
<feBlend mode="normal" in2="BackgroundImageFix" result="effect1_dropShadow_63_640"/>
<feBlend mode="normal" in="SourceGraphic" in2="effect1_dropShadow_63_640" result="shape"/>
</filter>
</defs>
</svg>
