<svg width="29" height="28" viewBox="0 0 29 28" fill="none" xmlns="http://www.w3.org/2000/svg">
<path d="M28.245 21.1563L25.3703 4.82301C25.1344 3.47113 24.4288 2.24596 23.3778 1.36357C22.3268 0.481191 20.9979 -0.0017214 19.6256 6.73767e-06H9.02647C7.6531 -0.00208136 6.32316 0.481241 5.27158 1.36461C4.22 2.24797 3.51442 3.47454 3.27947 4.82767L0.422304 21.161C0.275579 21.9993 0.314071 22.8596 0.535079 23.6815C0.756086 24.5034 1.15426 25.2669 1.70165 25.9186C2.24905 26.5703 2.93241 27.0943 3.7038 27.4538C4.47518 27.8134 5.3159 27.9998 6.16697 28H22.5003C23.3519 28.0001 24.1933 27.8137 24.9652 27.454C25.7371 27.0942 26.4209 26.5698 26.9685 25.9175C27.5161 25.2653 27.9143 24.5011 28.135 23.6785C28.3557 22.856 28.3925 21.9951 28.245 21.1563ZM15.5003 23.3333C15.5003 23.6428 15.3774 23.9395 15.1586 24.1583C14.9398 24.3771 14.6431 24.5 14.3336 24.5C14.0242 24.5 13.7275 24.3771 13.5087 24.1583C13.2899 23.9395 13.167 23.6428 13.167 23.3333V21C13.167 20.6906 13.2899 20.3938 13.5087 20.175C13.7275 19.9563 14.0242 19.8333 14.3336 19.8333C14.6431 19.8333 14.9398 19.9563 15.1586 20.175C15.3774 20.3938 15.5003 20.6906 15.5003 21V23.3333ZM15.5003 15.1667C15.5003 15.4761 15.3774 15.7728 15.1586 15.9916C14.9398 16.2104 14.6431 16.3333 14.3336 16.3333C14.0242 16.3333 13.7275 16.2104 13.5087 15.9916C13.2899 15.7728 13.167 15.4761 13.167 15.1667V12.8333C13.167 12.5239 13.2899 12.2272 13.5087 12.0084C13.7275 11.7896 14.0242 11.6667 14.3336 11.6667C14.6431 11.6667 14.9398 11.7896 15.1586 12.0084C15.3774 12.2272 15.5003 12.5239 15.5003 12.8333V15.1667ZM15.5003 7.00001C15.5003 7.30943 15.3774 7.60617 15.1586 7.82496C14.9398 8.04376 14.6431 8.16667 14.3336 8.16667C14.0242 8.16667 13.7275 8.04376 13.5087 7.82496C13.2899 7.60617 13.167 7.30943 13.167 7.00001V4.66667C13.167 4.35725 13.2899 4.06051 13.5087 3.84172C13.7275 3.62292 14.0242 3.50001 14.3336 3.50001C14.6431 3.50001 14.9398 3.62292 15.1586 3.84172C15.3774 4.06051 15.5003 4.35725 15.5003 4.66667V7.00001Z" fill="black"/>
</svg>
