<svg width="20" height="21" viewBox="0 0 20 21" fill="none" xmlns="http://www.w3.org/2000/svg">
<path d="M14.1667 9.24195C13.013 9.24195 11.8852 9.58603 10.9259 10.2307C9.96661 10.8753 9.21893 11.7916 8.77742 12.8636C8.33591 13.9356 8.22039 15.1152 8.44547 16.2533C8.67055 17.3913 9.22612 18.4367 10.0419 19.2572C10.8577 20.0776 11.8971 20.6364 13.0287 20.8628C14.1602 21.0891 15.3331 20.973 16.399 20.5289C17.4649 20.0849 18.376 19.3329 19.017 18.3681C19.6579 17.4033 20.0001 16.2691 20.0001 15.1087C19.9983 13.5533 19.3831 12.0621 18.2896 10.9622C17.196 9.8624 15.7133 9.24372 14.1667 9.24195ZM16.4226 17.3775C16.2663 17.5346 16.0544 17.6229 15.8334 17.6229C15.6124 17.6229 15.4005 17.5346 15.2442 17.3775L13.5776 15.7013C13.4213 15.5441 13.3334 15.331 13.3334 15.1087V12.5944C13.3334 12.3721 13.4212 12.1589 13.5775 12.0018C13.7337 11.8446 13.9457 11.7563 14.1667 11.7563C14.3877 11.7563 14.5997 11.8446 14.756 12.0018C14.9123 12.1589 15.0001 12.3721 15.0001 12.5944V14.7617L16.4226 16.1924C16.5788 16.3496 16.6665 16.5627 16.6665 16.7849C16.6665 17.0072 16.5788 17.2203 16.4226 17.3775ZM7.06172 10.0801C6.15522 10.0801 5.26908 9.80971 4.51535 9.3032C3.76163 8.79669 3.17417 8.07677 2.82727 7.23447C2.48037 6.39217 2.3896 5.46534 2.56645 4.57116C2.7433 3.67698 3.17982 2.85563 3.82081 2.21096C4.4618 1.5663 5.27847 1.12728 6.16755 0.949414C7.05663 0.771551 7.97819 0.862837 8.81568 1.21173C9.65318 1.56062 10.369 2.15144 10.8726 2.90949C11.3762 3.66754 11.6451 4.55876 11.6451 5.47045C11.6437 6.69259 11.1604 7.86428 10.3012 8.72847C9.44191 9.59265 8.27689 10.0787 7.06172 10.0801ZM9.46338 20.9755H0.833384C0.723173 20.9755 0.614056 20.9535 0.512349 20.9108C0.410643 20.8681 0.318367 20.8056 0.240863 20.7268C0.16336 20.648 0.10217 20.5545 0.0608337 20.4517C0.0194979 20.349 -0.00116189 20.239 5.04223e-05 20.1282C-0.00378797 18.3894 0.515831 16.6901 1.49055 15.254C2.46526 13.8179 3.84941 12.7122 5.46088 12.0823C6.10082 11.8536 6.77694 11.7446 7.45588 11.7605C7.32175 12.0311 7.20376 12.3096 7.10255 12.5944C6.81396 13.4009 6.6665 14.2516 6.66672 15.1087C6.667 16.2347 6.91839 17.3463 7.4024 18.3616C7.8864 19.377 8.59068 20.2702 9.46338 20.9755Z" fill="#D9D9D9"/>
</svg>
